%TF.GenerationSoftware,KiCad,Pcbnew,6.0.6-1.fc35*%
%TF.CreationDate,2022-08-01T00:07:55+02:00*%
%TF.ProjectId,lm324_4ch_therm,6c6d3332-345f-4346-9368-5f746865726d,rev?*%
%TF.SameCoordinates,Original*%
%TF.FileFunction,Copper,L2,Bot*%
%TF.FilePolarity,Positive*%
%FSLAX46Y46*%
G04 Gerber Fmt 4.6, Leading zero omitted, Abs format (unit mm)*
G04 Created by KiCad (PCBNEW 6.0.6-1.fc35) date 2022-08-01 00:07:55*
%MOMM*%
%LPD*%
G01*
G04 APERTURE LIST*
G04 Aperture macros list*
%AMRoundRect*
0 Rectangle with rounded corners*
0 $1 Rounding radius*
0 $2 $3 $4 $5 $6 $7 $8 $9 X,Y pos of 4 corners*
0 Add a 4 corners polygon primitive as box body*
4,1,4,$2,$3,$4,$5,$6,$7,$8,$9,$2,$3,0*
0 Add four circle primitives for the rounded corners*
1,1,$1+$1,$2,$3*
1,1,$1+$1,$4,$5*
1,1,$1+$1,$6,$7*
1,1,$1+$1,$8,$9*
0 Add four rect primitives between the rounded corners*
20,1,$1+$1,$2,$3,$4,$5,0*
20,1,$1+$1,$4,$5,$6,$7,0*
20,1,$1+$1,$6,$7,$8,$9,0*
20,1,$1+$1,$8,$9,$2,$3,0*%
G04 Aperture macros list end*
%TA.AperFunction,ComponentPad*%
%ADD10R,1.700000X1.700000*%
%TD*%
%TA.AperFunction,ComponentPad*%
%ADD11O,1.700000X1.700000*%
%TD*%
%TA.AperFunction,ComponentPad*%
%ADD12R,1.800000X1.800000*%
%TD*%
%TA.AperFunction,ComponentPad*%
%ADD13C,1.800000*%
%TD*%
%TA.AperFunction,ComponentPad*%
%ADD14R,1.600000X1.600000*%
%TD*%
%TA.AperFunction,ComponentPad*%
%ADD15C,1.600000*%
%TD*%
%TA.AperFunction,ComponentPad*%
%ADD16C,5.600000*%
%TD*%
%TA.AperFunction,SMDPad,CuDef*%
%ADD17RoundRect,0.250000X0.475000X-0.250000X0.475000X0.250000X-0.475000X0.250000X-0.475000X-0.250000X0*%
%TD*%
%TA.AperFunction,SMDPad,CuDef*%
%ADD18RoundRect,0.250000X0.250000X0.475000X-0.250000X0.475000X-0.250000X-0.475000X0.250000X-0.475000X0*%
%TD*%
%TA.AperFunction,SMDPad,CuDef*%
%ADD19RoundRect,0.250000X-0.625000X0.312500X-0.625000X-0.312500X0.625000X-0.312500X0.625000X0.312500X0*%
%TD*%
%TA.AperFunction,SMDPad,CuDef*%
%ADD20RoundRect,0.150000X-0.825000X-0.150000X0.825000X-0.150000X0.825000X0.150000X-0.825000X0.150000X0*%
%TD*%
%TA.AperFunction,SMDPad,CuDef*%
%ADD21RoundRect,0.250000X0.625000X-0.312500X0.625000X0.312500X-0.625000X0.312500X-0.625000X-0.312500X0*%
%TD*%
%TA.AperFunction,ViaPad*%
%ADD22C,0.800000*%
%TD*%
%TA.AperFunction,Conductor*%
%ADD23C,0.320000*%
%TD*%
%TA.AperFunction,Conductor*%
%ADD24C,0.250000*%
%TD*%
G04 APERTURE END LIST*
D10*
%TO.P,J1,1,Pin_1*%
%TO.N,Net-(J1-Pad1)*%
X134899000Y-61234000D03*
D11*
%TO.P,J1,2,Pin_2*%
%TO.N,GND*%
X134899000Y-63774000D03*
%TD*%
D12*
%TO.P,D4,1,K*%
%TO.N,GND*%
X131826000Y-57150000D03*
D13*
%TO.P,D4,2,A*%
%TO.N,Net-(D4-Pad2)*%
X129286000Y-57150000D03*
%TD*%
D10*
%TO.P,J2,1,Pin_1*%
%TO.N,+5V*%
X118745000Y-61214000D03*
D11*
%TO.P,J2,2,Pin_2*%
%TO.N,GND*%
X118745000Y-63754000D03*
%TD*%
D14*
%TO.P,BZ1,1,-*%
%TO.N,Net-(Q2-Pad3)*%
X134874000Y-46406000D03*
D15*
%TO.P,BZ1,2,+*%
%TO.N,GND*%
X134874000Y-49606000D03*
%TD*%
D16*
%TO.P,REF2,1*%
%TO.N,N/C*%
X115697000Y-48133000D03*
%TD*%
D10*
%TO.P,J5,1,Pin_1*%
%TO.N,Net-(U1-Pad5)*%
X129311000Y-61234000D03*
D11*
%TO.P,J5,2,Pin_2*%
%TO.N,GND*%
X129311000Y-63774000D03*
%TD*%
D10*
%TO.P,J4,1,Pin_1*%
%TO.N,Net-(U1-Pad3)*%
X126492000Y-61214000D03*
D11*
%TO.P,J4,2,Pin_2*%
%TO.N,GND*%
X126492000Y-63754000D03*
%TD*%
D10*
%TO.P,J3,1,Pin_1*%
%TO.N,Net-(U1-Pad10)*%
X132105000Y-61234000D03*
D11*
%TO.P,J3,2,Pin_2*%
%TO.N,GND*%
X132105000Y-63774000D03*
%TD*%
D10*
%TO.P,J6,1,Pin_1*%
%TO.N,Net-(J6-Pad1)*%
X134874000Y-53594000D03*
D11*
%TO.P,J6,2,Pin_2*%
%TO.N,GND*%
X134874000Y-56134000D03*
%TD*%
D17*
%TO.P,C1,1*%
%TO.N,+5V*%
X118872000Y-55880000D03*
%TO.P,C1,2*%
%TO.N,GND*%
X118872000Y-53980000D03*
%TD*%
D18*
%TO.P,C2,1*%
%TO.N,GND*%
X130302000Y-53848000D03*
%TO.P,C2,2*%
%TO.N,Net-(J1-Pad1)*%
X128402000Y-53848000D03*
%TD*%
D19*
%TO.P,R8,1*%
%TO.N,/ref1*%
X120904000Y-46482000D03*
%TO.P,R8,2*%
%TO.N,GND*%
X120904000Y-49407000D03*
%TD*%
D20*
%TO.P,U1,1*%
%TO.N,Net-(U1-Pad1)*%
X121223000Y-59436000D03*
%TO.P,U1,2,-*%
%TO.N,Net-(U1-Pad2)*%
X121223000Y-58166000D03*
%TO.P,U1,3,+*%
%TO.N,Net-(U1-Pad3)*%
X121223000Y-56896000D03*
%TO.P,U1,4,V+*%
%TO.N,+5V*%
X121223000Y-55626000D03*
%TO.P,U1,5,+*%
%TO.N,Net-(U1-Pad5)*%
X121223000Y-54356000D03*
%TO.P,U1,6,-*%
%TO.N,Net-(U1-Pad6)*%
X121223000Y-53086000D03*
%TO.P,U1,7*%
%TO.N,Net-(U1-Pad7)*%
X121223000Y-51816000D03*
%TO.P,U1,8*%
%TO.N,Net-(U1-Pad8)*%
X126173000Y-51816000D03*
%TO.P,U1,9,-*%
%TO.N,/ref1*%
X126173000Y-53086000D03*
%TO.P,U1,10,+*%
%TO.N,Net-(U1-Pad10)*%
X126173000Y-54356000D03*
%TO.P,U1,11,V-*%
%TO.N,GND*%
X126173000Y-55626000D03*
%TO.P,U1,12,+*%
%TO.N,Net-(J1-Pad1)*%
X126173000Y-56896000D03*
%TO.P,U1,13,-*%
%TO.N,/ref1*%
X126173000Y-58166000D03*
%TO.P,U1,14*%
%TO.N,Net-(U1-Pad14)*%
X126173000Y-59436000D03*
%TD*%
D18*
%TO.P,C3,1*%
%TO.N,GND*%
X135758000Y-58801000D03*
%TO.P,C3,2*%
%TO.N,Net-(U1-Pad10)*%
X133858000Y-58801000D03*
%TD*%
D21*
%TO.P,R1,1*%
%TO.N,+5V*%
X125730000Y-49403000D03*
%TO.P,R1,2*%
%TO.N,/ref1*%
X125730000Y-46478000D03*
%TD*%
%TO.P,R2,1*%
%TO.N,+5V*%
X128143000Y-49407000D03*
%TO.P,R2,2*%
%TO.N,/ref2*%
X128143000Y-46482000D03*
%TD*%
D19*
%TO.P,R3,1*%
%TO.N,/ref2*%
X123317000Y-46482000D03*
%TO.P,R3,2*%
%TO.N,GND*%
X123317000Y-49407000D03*
%TD*%
D22*
%TO.N,Net-(Q2-Pad3)*%
X131081000Y-49259000D03*
%TO.N,GND*%
X129397500Y-47381400D03*
%TO.N,+5V*%
X124425900Y-51421300D03*
%TO.N,Net-(J1-Pad1)*%
X131559500Y-59489400D03*
%TO.N,Net-(U1-Pad10)*%
X124829200Y-60293800D03*
%TO.N,Net-(U1-Pad3)*%
X120306600Y-62500600D03*
%TO.N,Net-(U1-Pad1)*%
X119634600Y-58514600D03*
%TO.N,Net-(U1-Pad7)*%
X123739300Y-50669300D03*
%TO.N,Net-(D4-Pad2)*%
X131140200Y-52425600D03*
%TO.N,Net-(U1-Pad8)*%
X123729000Y-56134000D03*
%TO.N,Net-(U1-Pad14)*%
X124587000Y-57658000D03*
%TO.N,Net-(J6-Pad1)*%
X132824300Y-46585900D03*
%TO.N,/ref1*%
X116996700Y-64736900D03*
X119737600Y-47722700D03*
%TO.N,Net-(U1-Pad2)*%
X119569100Y-57362900D03*
%TO.N,/ref2*%
X123713400Y-47752000D03*
%TO.N,Net-(U1-Pad6)*%
X118944600Y-45610500D03*
%TD*%
D23*
%TO.N,Net-(Q2-Pad3)*%
X133788500Y-46406000D02*
X133191200Y-45808700D01*
X134874000Y-46406000D02*
X133788500Y-46406000D01*
X133191200Y-45808700D02*
X132467400Y-45808700D01*
X131081000Y-47195100D02*
X131081000Y-49259000D01*
X132467400Y-45808700D02*
X131081000Y-47195100D01*
D24*
%TO.N,GND*%
X127474000Y-54821800D02*
X127474000Y-53186500D01*
X123317000Y-49407000D02*
X120904000Y-49407000D01*
X123317000Y-49407000D02*
X124210000Y-48514000D01*
X134899000Y-62598700D02*
X135707000Y-62598700D01*
X133659100Y-50820900D02*
X134874000Y-49606000D01*
X134899000Y-63774000D02*
X134899000Y-62598700D01*
X133659100Y-54919100D02*
X133659100Y-50820900D01*
X135707000Y-62598700D02*
X136074400Y-62231300D01*
X126669800Y-55626000D02*
X127474000Y-54821800D01*
X128264900Y-48514000D02*
X129397500Y-47381400D01*
X136074400Y-62231300D02*
X136074400Y-59117400D01*
X127474000Y-53186500D02*
X127917900Y-52742600D01*
X124210000Y-48514000D02*
X128264900Y-48514000D01*
%TO.N,+5V*%
X122837300Y-52987300D02*
X123466700Y-52357900D01*
X124370700Y-51453900D02*
X124393300Y-51453900D01*
X124076900Y-51747700D02*
X124099500Y-51747700D01*
X123737900Y-52109300D02*
X123737900Y-52086700D01*
X123511900Y-52335300D02*
X123511900Y-52312700D01*
X123715300Y-52131900D02*
X123715300Y-52109300D01*
X123557100Y-52290100D02*
X123557100Y-52267500D01*
X123896100Y-51928500D02*
X123918700Y-51928500D01*
X123760500Y-52086700D02*
X123760500Y-52064100D01*
X123534500Y-52290100D02*
X123557100Y-52290100D01*
X123624900Y-52222300D02*
X123624900Y-52199700D01*
X124167300Y-51679900D02*
X124167300Y-51657300D01*
X123986500Y-51860700D02*
X123986500Y-51838100D01*
X124212500Y-51612100D02*
X124235100Y-51612100D01*
X124257700Y-51589500D02*
X124257700Y-51566900D01*
X123602300Y-52222300D02*
X123624900Y-52222300D01*
X123692700Y-52131900D02*
X123715300Y-52131900D01*
X125730000Y-50094600D02*
X125730000Y-49403000D01*
X124144700Y-51702500D02*
X124144700Y-51679900D01*
X123941300Y-51905900D02*
X123941300Y-51883300D01*
X124257700Y-51566900D02*
X124280300Y-51566900D01*
X124009100Y-51815500D02*
X124031700Y-51815500D01*
X123850900Y-51996300D02*
X123850900Y-51973700D01*
X123850900Y-51973700D02*
X123873500Y-51973700D01*
X123760500Y-52064100D02*
X123783100Y-52064100D01*
X124031700Y-51815500D02*
X124031700Y-51792900D01*
X124099500Y-51725100D02*
X124122100Y-51725100D01*
X123534500Y-52312700D02*
X123534500Y-52290100D01*
X124302900Y-51521700D02*
X124325500Y-51521700D01*
X123963900Y-51883300D02*
X123963900Y-51860700D01*
X124280300Y-51566900D02*
X124280300Y-51544300D01*
X124144700Y-51679900D02*
X124167300Y-51679900D01*
X123602300Y-52244900D02*
X123602300Y-52222300D01*
X123941300Y-51883300D02*
X123963900Y-51883300D01*
X124235100Y-51612100D02*
X124235100Y-51589500D01*
X124189900Y-51657300D02*
X124189900Y-51634700D01*
X123918700Y-51905900D02*
X123941300Y-51905900D01*
X123986500Y-51838100D02*
X124009100Y-51838100D01*
X124235100Y-51589500D02*
X124257700Y-51589500D01*
X123692700Y-52154500D02*
X123692700Y-52131900D01*
X123828300Y-51996300D02*
X123850900Y-51996300D01*
X124325500Y-51521700D02*
X124325500Y-51499100D01*
X124348100Y-51499100D02*
X124348100Y-51476500D01*
X123670100Y-52177100D02*
X123670100Y-52154500D01*
X123579700Y-52244900D02*
X123602300Y-52244900D01*
X124031700Y-51792900D02*
X124054300Y-51792900D01*
X118745000Y-61214000D02*
X118745000Y-56007000D01*
X123624900Y-52199700D02*
X123647500Y-52199700D01*
X123715300Y-52109300D02*
X123737900Y-52109300D01*
X124122100Y-51725100D02*
X124122100Y-51702500D01*
X123896100Y-51951100D02*
X123896100Y-51928500D01*
X123828300Y-52018900D02*
X123828300Y-51996300D01*
X122837300Y-54835700D02*
X122837300Y-52987300D01*
X123783100Y-52041500D02*
X123805700Y-52041500D01*
X124054300Y-51792900D02*
X124054300Y-51770300D01*
X124099500Y-51747700D02*
X124099500Y-51725100D01*
X123489300Y-52335300D02*
X123511900Y-52335300D01*
X124393300Y-51431300D02*
X125730000Y-50094600D01*
X123557100Y-52267500D02*
X123579700Y-52267500D01*
X122047000Y-55626000D02*
X122837300Y-54835700D01*
X124076900Y-51770300D02*
X124076900Y-51747700D01*
X123963900Y-51860700D02*
X123986500Y-51860700D01*
X123783100Y-52064100D02*
X123783100Y-52041500D01*
X123579700Y-52267500D02*
X123579700Y-52244900D01*
X123511900Y-52312700D02*
X123534500Y-52312700D01*
X119126000Y-55626000D02*
X121223000Y-55626000D01*
X123647500Y-52199700D02*
X123647500Y-52177100D01*
X123466700Y-52357900D02*
X123489300Y-52357900D01*
X124122100Y-51702500D02*
X124144700Y-51702500D01*
X123647500Y-52177100D02*
X123670100Y-52177100D01*
X124189900Y-51634700D02*
X124212500Y-51634700D01*
X124167300Y-51657300D02*
X124189900Y-51657300D01*
X124393300Y-51453900D02*
X124425900Y-51421300D01*
X123489300Y-52357900D02*
X123489300Y-52335300D01*
X123805700Y-52018900D02*
X123828300Y-52018900D01*
X124302900Y-51544300D02*
X124302900Y-51521700D01*
X124054300Y-51770300D02*
X124076900Y-51770300D01*
X124009100Y-51838100D02*
X124009100Y-51815500D01*
X123670100Y-52154500D02*
X123692700Y-52154500D01*
X123737900Y-52086700D02*
X123760500Y-52086700D01*
X121223000Y-55626000D02*
X122047000Y-55626000D01*
X124348100Y-51476500D02*
X124370700Y-51476500D01*
X128143000Y-49407000D02*
X125734000Y-49407000D01*
X123918700Y-51928500D02*
X123918700Y-51905900D01*
X123873500Y-51951100D02*
X123896100Y-51951100D01*
X124325500Y-51499100D02*
X124348100Y-51499100D01*
X124370700Y-51476500D02*
X124370700Y-51453900D01*
X123805700Y-52041500D02*
X123805700Y-52018900D01*
X123873500Y-51973700D02*
X123873500Y-51951100D01*
X124280300Y-51544300D02*
X124302900Y-51544300D01*
X124393300Y-51453900D02*
X124393300Y-51431300D01*
X124212500Y-51634700D02*
X124212500Y-51612100D01*
D23*
%TO.N,Net-(J1-Pad1)*%
X126173000Y-56896000D02*
X128025700Y-56896000D01*
X128402000Y-53848000D02*
X128025700Y-54224300D01*
X128025700Y-57677900D02*
X129837100Y-59489300D01*
X129837100Y-59489300D02*
X131559500Y-59489300D01*
X131559500Y-59489300D02*
X131559500Y-59489400D01*
X128025700Y-56896000D02*
X128025700Y-57677900D01*
X128025700Y-54224300D02*
X128025700Y-56896000D01*
%TO.N,Net-(U1-Pad10)*%
X123444000Y-57658000D02*
X123444000Y-59690000D01*
X124587000Y-56515000D02*
X123444000Y-57658000D01*
X125349000Y-54356000D02*
X124587000Y-55118000D01*
X133327700Y-58801000D02*
X133858000Y-58801000D01*
X124587000Y-55118000D02*
X124587000Y-56515000D01*
X132105000Y-60023700D02*
X133327700Y-58801000D01*
X124047800Y-60293800D02*
X124829200Y-60293800D01*
X126173000Y-54356000D02*
X125349000Y-54356000D01*
X123444000Y-59690000D02*
X124047800Y-60293800D01*
X132105000Y-60758900D02*
X132105000Y-60023700D01*
%TO.N,Net-(U1-Pad3)*%
X120493000Y-62500600D02*
X120306600Y-62500600D01*
X123767800Y-61214000D02*
X122773700Y-60219900D01*
X126492000Y-61214000D02*
X123767800Y-61214000D01*
X122773700Y-60219900D02*
X120493000Y-62500600D01*
X121668500Y-56896000D02*
X122773700Y-58001200D01*
X122773700Y-58001200D02*
X122773700Y-60219900D01*
%TO.N,Net-(U1-Pad5)*%
X117515300Y-62204300D02*
X117515300Y-55629700D01*
X118270200Y-54874800D02*
X119750200Y-54874800D01*
X120013200Y-63296400D02*
X119141200Y-62424400D01*
X123190000Y-62444300D02*
X122337900Y-63296400D01*
X127495600Y-62444300D02*
X123190000Y-62444300D01*
X119141200Y-62424400D02*
X117735400Y-62424400D01*
X122337900Y-63296400D02*
X120013200Y-63296400D01*
X119750200Y-54874800D02*
X120269000Y-54356000D01*
X117515300Y-55629700D02*
X118270200Y-54874800D01*
X128705900Y-61234000D02*
X127495600Y-62444300D01*
X129311000Y-61234000D02*
X128705900Y-61234000D01*
X120269000Y-54356000D02*
X121223000Y-54356000D01*
X117735400Y-62424400D02*
X117515300Y-62204300D01*
%TO.N,Net-(U1-Pad1)*%
X120556000Y-59436000D02*
X119634600Y-58514600D01*
%TO.N,Net-(U1-Pad7)*%
X122369700Y-50669300D02*
X123739300Y-50669300D01*
X121223000Y-51816000D02*
X122369700Y-50669300D01*
D24*
%TO.N,Net-(D4-Pad2)*%
X131140200Y-52425600D02*
X131140200Y-55295800D01*
X131140200Y-55295800D02*
X129286000Y-57150000D01*
D23*
%TO.N,Net-(U1-Pad8)*%
X125742600Y-51816000D02*
X123729000Y-53829600D01*
X123729000Y-53829600D02*
X123729000Y-56134000D01*
%TO.N,Net-(U1-Pad14)*%
X126173000Y-59436000D02*
X125095000Y-59436000D01*
X124587000Y-58928000D02*
X124587000Y-57658000D01*
X125095000Y-59436000D02*
X124587000Y-58928000D01*
%TO.N,Net-(J6-Pad1)*%
X134816600Y-47847700D02*
X134086100Y-47847700D01*
X134874000Y-53594000D02*
X134874000Y-52383700D01*
X134874000Y-52383700D02*
X136070200Y-51187500D01*
X136070200Y-49101300D02*
X134816600Y-47847700D01*
X134086100Y-47847700D02*
X132824300Y-46585900D01*
X136070200Y-51187500D02*
X136070200Y-49101300D01*
%TO.N,/ref1*%
X129890900Y-65002000D02*
X117261800Y-65002000D01*
X130810000Y-64082900D02*
X129890900Y-65002000D01*
X117261800Y-65002000D02*
X116996700Y-64736900D01*
X120904000Y-46556300D02*
X119737600Y-47722700D01*
X130810000Y-60452000D02*
X130810000Y-64082900D01*
X121842100Y-45543900D02*
X120904000Y-46482000D01*
X124795900Y-45543900D02*
X121842100Y-45543900D01*
X130158600Y-49528900D02*
X126601500Y-53086000D01*
X128519500Y-60009700D02*
X130367700Y-60009700D01*
X129065200Y-45543900D02*
X130158600Y-46637300D01*
X125730000Y-46478000D02*
X126664100Y-45543900D01*
X125730000Y-46478000D02*
X124795900Y-45543900D01*
X130158600Y-46637300D02*
X130158600Y-49528900D01*
X130367700Y-60009700D02*
X130810000Y-60452000D01*
X126664100Y-45543900D02*
X129065200Y-45543900D01*
X126675800Y-58166000D02*
X128519500Y-60009700D01*
%TO.N,Net-(U1-Pad2)*%
X121223000Y-58166000D02*
X120372200Y-58166000D01*
X120372200Y-58166000D02*
X119569100Y-57362900D01*
%TO.N,/ref2*%
X127221300Y-47403700D02*
X124238700Y-47403700D01*
X124238700Y-47403700D02*
X124150200Y-47315200D01*
X124150200Y-47315200D02*
X123317000Y-46482000D01*
X124150200Y-47315200D02*
X123713400Y-47752000D01*
X128143000Y-46482000D02*
X127221300Y-47403700D01*
%TO.N,Net-(U1-Pad6)*%
X120698400Y-53086000D02*
X118944600Y-51332200D01*
X118944600Y-51332200D02*
X118944600Y-45610500D01*
%TD*%
%TA.AperFunction,Conductor*%
%TO.N,GND*%
G36*
X133214409Y-59732990D02*
G01*
X133229729Y-59742657D01*
X133305159Y-59800536D01*
X133451238Y-59861044D01*
X133568639Y-59876500D01*
X133575117Y-59876500D01*
X133861048Y-59876499D01*
X133919236Y-59895406D01*
X133955200Y-59944906D01*
X133955201Y-60006091D01*
X133919237Y-60055591D01*
X133904678Y-60064366D01*
X133842145Y-60095068D01*
X133759707Y-60177650D01*
X133708464Y-60282482D01*
X133707355Y-60290084D01*
X133707354Y-60290087D01*
X133699024Y-60347192D01*
X133698500Y-60350782D01*
X133698500Y-62117218D01*
X133699028Y-62120801D01*
X133699028Y-62120808D01*
X133707435Y-62177913D01*
X133708642Y-62186112D01*
X133760068Y-62290855D01*
X133842650Y-62373293D01*
X133947482Y-62424536D01*
X133955084Y-62425645D01*
X133955087Y-62425646D01*
X134012237Y-62433983D01*
X134012239Y-62433983D01*
X134015782Y-62434500D01*
X134367256Y-62434500D01*
X134425447Y-62453407D01*
X134461411Y-62502907D01*
X134461411Y-62564093D01*
X134425447Y-62613593D01*
X134409095Y-62623224D01*
X134275538Y-62685503D01*
X134268068Y-62689815D01*
X134095987Y-62810308D01*
X134089392Y-62815841D01*
X133940841Y-62964392D01*
X133935308Y-62970987D01*
X133814815Y-63143068D01*
X133810503Y-63150538D01*
X133721725Y-63340922D01*
X133718779Y-63349015D01*
X133664405Y-63551944D01*
X133662912Y-63560412D01*
X133658715Y-63608379D01*
X133661715Y-63621377D01*
X133663943Y-63623313D01*
X133667318Y-63624000D01*
X136124972Y-63624000D01*
X136137657Y-63619878D01*
X136139393Y-63617489D01*
X136139783Y-63614068D01*
X136135088Y-63560412D01*
X136133595Y-63551944D01*
X136079221Y-63349015D01*
X136076275Y-63340922D01*
X135987497Y-63150538D01*
X135983185Y-63143068D01*
X135862692Y-62970987D01*
X135857159Y-62964392D01*
X135708608Y-62815841D01*
X135702013Y-62810308D01*
X135529933Y-62689815D01*
X135522463Y-62685503D01*
X135388906Y-62623224D01*
X135344158Y-62581496D01*
X135332483Y-62521435D01*
X135358341Y-62465982D01*
X135411855Y-62436319D01*
X135430745Y-62434500D01*
X135782218Y-62434500D01*
X135785801Y-62433972D01*
X135785808Y-62433972D01*
X135843499Y-62425479D01*
X135843501Y-62425478D01*
X135851112Y-62424358D01*
X135955855Y-62372932D01*
X136038293Y-62290350D01*
X136089536Y-62185518D01*
X136090645Y-62177916D01*
X136090646Y-62177913D01*
X136098983Y-62120763D01*
X136098983Y-62120761D01*
X136099500Y-62117218D01*
X136099500Y-60350782D01*
X136096028Y-60327192D01*
X136090479Y-60289501D01*
X136090478Y-60289499D01*
X136089358Y-60281888D01*
X136037932Y-60177145D01*
X135955708Y-60095064D01*
X135927883Y-60040572D01*
X135937402Y-59980132D01*
X135980629Y-59936830D01*
X136025651Y-59926000D01*
X136071692Y-59926000D01*
X136075584Y-59925847D01*
X136105449Y-59923497D01*
X136115349Y-59921689D01*
X136262216Y-59879020D01*
X136273561Y-59874110D01*
X136406105Y-59795724D01*
X136465817Y-59782376D01*
X136521970Y-59806676D01*
X136553116Y-59859341D01*
X136555500Y-59880937D01*
X136555500Y-65209500D01*
X136536593Y-65267691D01*
X136487093Y-65303655D01*
X136456500Y-65308500D01*
X130545364Y-65308500D01*
X130487173Y-65289593D01*
X130451209Y-65240093D01*
X130451209Y-65178907D01*
X130475360Y-65139496D01*
X131019041Y-64595816D01*
X131073558Y-64568039D01*
X131133990Y-64577610D01*
X131159049Y-64595816D01*
X131295392Y-64732159D01*
X131301987Y-64737692D01*
X131474067Y-64858185D01*
X131481537Y-64862497D01*
X131671922Y-64951275D01*
X131680015Y-64954221D01*
X131882944Y-65008595D01*
X131891412Y-65010088D01*
X131939379Y-65014285D01*
X131952377Y-65011285D01*
X131954313Y-65009057D01*
X131955000Y-65005682D01*
X131955000Y-64999972D01*
X132255000Y-64999972D01*
X132259122Y-65012657D01*
X132261511Y-65014393D01*
X132264932Y-65014783D01*
X132318588Y-65010088D01*
X132327056Y-65008595D01*
X132529985Y-64954221D01*
X132538078Y-64951275D01*
X132728463Y-64862497D01*
X132735933Y-64858185D01*
X132908013Y-64737692D01*
X132914608Y-64732159D01*
X133063159Y-64583608D01*
X133068692Y-64577013D01*
X133189185Y-64404932D01*
X133193497Y-64397462D01*
X133282275Y-64207078D01*
X133285221Y-64198985D01*
X133339595Y-63996056D01*
X133341088Y-63987588D01*
X133345285Y-63939621D01*
X133343972Y-63933932D01*
X133658217Y-63933932D01*
X133662912Y-63987588D01*
X133664405Y-63996056D01*
X133718779Y-64198985D01*
X133721725Y-64207078D01*
X133810503Y-64397462D01*
X133814815Y-64404932D01*
X133935308Y-64577013D01*
X133940841Y-64583608D01*
X134089392Y-64732159D01*
X134095987Y-64737692D01*
X134268067Y-64858185D01*
X134275537Y-64862497D01*
X134465922Y-64951275D01*
X134474015Y-64954221D01*
X134676944Y-65008595D01*
X134685412Y-65010088D01*
X134733379Y-65014285D01*
X134746377Y-65011285D01*
X134748313Y-65009057D01*
X134749000Y-65005682D01*
X134749000Y-64999972D01*
X135049000Y-64999972D01*
X135053122Y-65012657D01*
X135055511Y-65014393D01*
X135058932Y-65014783D01*
X135112588Y-65010088D01*
X135121056Y-65008595D01*
X135323985Y-64954221D01*
X135332078Y-64951275D01*
X135522463Y-64862497D01*
X135529933Y-64858185D01*
X135702013Y-64737692D01*
X135708608Y-64732159D01*
X135857159Y-64583608D01*
X135862692Y-64577013D01*
X135983185Y-64404932D01*
X135987497Y-64397462D01*
X136076275Y-64207078D01*
X136079221Y-64198985D01*
X136133595Y-63996056D01*
X136135088Y-63987588D01*
X136139285Y-63939621D01*
X136136285Y-63926623D01*
X136134057Y-63924687D01*
X136130682Y-63924000D01*
X135064680Y-63924000D01*
X135051995Y-63928122D01*
X135049000Y-63932243D01*
X135049000Y-64999972D01*
X134749000Y-64999972D01*
X134749000Y-63939680D01*
X134744878Y-63926995D01*
X134740757Y-63924000D01*
X133673028Y-63924000D01*
X133660343Y-63928122D01*
X133658607Y-63930511D01*
X133658217Y-63933932D01*
X133343972Y-63933932D01*
X133342285Y-63926623D01*
X133340057Y-63924687D01*
X133336682Y-63924000D01*
X132270680Y-63924000D01*
X132257995Y-63928122D01*
X132255000Y-63932243D01*
X132255000Y-64999972D01*
X131955000Y-64999972D01*
X131955000Y-63723000D01*
X131973907Y-63664809D01*
X132023407Y-63628845D01*
X132054000Y-63624000D01*
X133330972Y-63624000D01*
X133343657Y-63619878D01*
X133345393Y-63617489D01*
X133345783Y-63614068D01*
X133341088Y-63560412D01*
X133339595Y-63551944D01*
X133285221Y-63349015D01*
X133282275Y-63340922D01*
X133193497Y-63150538D01*
X133189185Y-63143068D01*
X133068692Y-62970987D01*
X133063159Y-62964392D01*
X132914608Y-62815841D01*
X132908013Y-62810308D01*
X132735933Y-62689815D01*
X132728463Y-62685503D01*
X132594906Y-62623224D01*
X132550158Y-62581496D01*
X132538483Y-62521435D01*
X132564341Y-62465982D01*
X132617855Y-62436319D01*
X132636745Y-62434500D01*
X132988218Y-62434500D01*
X132991801Y-62433972D01*
X132991808Y-62433972D01*
X133049499Y-62425479D01*
X133049501Y-62425478D01*
X133057112Y-62424358D01*
X133161855Y-62372932D01*
X133244293Y-62290350D01*
X133295536Y-62185518D01*
X133296645Y-62177916D01*
X133296646Y-62177913D01*
X133304983Y-62120763D01*
X133304983Y-62120761D01*
X133305500Y-62117218D01*
X133305500Y-60350782D01*
X133302028Y-60327192D01*
X133296479Y-60289501D01*
X133296478Y-60289499D01*
X133295358Y-60281888D01*
X133243932Y-60177145D01*
X133161350Y-60094707D01*
X133056518Y-60043464D01*
X133034137Y-60040199D01*
X132979285Y-60013090D01*
X132950843Y-59958917D01*
X132959676Y-59898372D01*
X132978424Y-59872232D01*
X133099460Y-59751196D01*
X133153977Y-59723419D01*
X133214409Y-59732990D01*
G37*
%TD.AperFunction*%
%TA.AperFunction,Conductor*%
G36*
X128340928Y-62415467D02*
G01*
X128349678Y-62419744D01*
X128359482Y-62424536D01*
X128396051Y-62429871D01*
X128424237Y-62433983D01*
X128424239Y-62433983D01*
X128427782Y-62434500D01*
X128779256Y-62434500D01*
X128837447Y-62453407D01*
X128873411Y-62502907D01*
X128873411Y-62564093D01*
X128837447Y-62613593D01*
X128821095Y-62623224D01*
X128687538Y-62685503D01*
X128680068Y-62689815D01*
X128507987Y-62810308D01*
X128501392Y-62815841D01*
X128352841Y-62964392D01*
X128347308Y-62970987D01*
X128226815Y-63143068D01*
X128222503Y-63150538D01*
X128133725Y-63340922D01*
X128130779Y-63349015D01*
X128076405Y-63551944D01*
X128074912Y-63560412D01*
X128070715Y-63608379D01*
X128073715Y-63621377D01*
X128075943Y-63623313D01*
X128079318Y-63624000D01*
X129362000Y-63624000D01*
X129420191Y-63642907D01*
X129456155Y-63692407D01*
X129461000Y-63723000D01*
X129461000Y-63825000D01*
X129442093Y-63883191D01*
X129392593Y-63919155D01*
X129362000Y-63924000D01*
X128085028Y-63924000D01*
X128072343Y-63928122D01*
X128070607Y-63930511D01*
X128070217Y-63933932D01*
X128074912Y-63987588D01*
X128076405Y-63996056D01*
X128130779Y-64198985D01*
X128133725Y-64207078D01*
X128200679Y-64350661D01*
X128208136Y-64411390D01*
X128178473Y-64464904D01*
X128123020Y-64490762D01*
X128110955Y-64491500D01*
X127682719Y-64491500D01*
X127624528Y-64472593D01*
X127588564Y-64423093D01*
X127588564Y-64361907D01*
X127592995Y-64350661D01*
X127669275Y-64187078D01*
X127672221Y-64178985D01*
X127726595Y-63976056D01*
X127728088Y-63967588D01*
X127732285Y-63919621D01*
X127729285Y-63906623D01*
X127727057Y-63904687D01*
X127723682Y-63904000D01*
X125266028Y-63904000D01*
X125253343Y-63908122D01*
X125251607Y-63910511D01*
X125251217Y-63913932D01*
X125255912Y-63967588D01*
X125257405Y-63976056D01*
X125311779Y-64178985D01*
X125314725Y-64187078D01*
X125391005Y-64350661D01*
X125398462Y-64411390D01*
X125368799Y-64464904D01*
X125313346Y-64490762D01*
X125301281Y-64491500D01*
X119935719Y-64491500D01*
X119877528Y-64472593D01*
X119841564Y-64423093D01*
X119841564Y-64361907D01*
X119845995Y-64350661D01*
X119922275Y-64187078D01*
X119925221Y-64178985D01*
X119979595Y-63976056D01*
X119981088Y-63967588D01*
X119987241Y-63897271D01*
X120011148Y-63840949D01*
X120063595Y-63809437D01*
X120085864Y-63806900D01*
X122269616Y-63806900D01*
X122283038Y-63808400D01*
X122289660Y-63808933D01*
X122296538Y-63810489D01*
X122351329Y-63807090D01*
X122357459Y-63806900D01*
X122374560Y-63806900D01*
X122378051Y-63806400D01*
X122378053Y-63806400D01*
X122380801Y-63806006D01*
X122386040Y-63805256D01*
X122393933Y-63804447D01*
X122412037Y-63803324D01*
X122435446Y-63801872D01*
X122435447Y-63801872D01*
X122442487Y-63801435D01*
X122452510Y-63797816D01*
X122472101Y-63792931D01*
X122472911Y-63792815D01*
X122482654Y-63791420D01*
X122489072Y-63788502D01*
X122489075Y-63788501D01*
X122526935Y-63771287D01*
X122534294Y-63768291D01*
X122537161Y-63767256D01*
X122580030Y-63751780D01*
X122585726Y-63747619D01*
X122585731Y-63747616D01*
X122588638Y-63745492D01*
X122606063Y-63735309D01*
X122609351Y-63733814D01*
X122609352Y-63733814D01*
X122615771Y-63730895D01*
X122624934Y-63723000D01*
X122652616Y-63699147D01*
X122658840Y-63694206D01*
X122667666Y-63687758D01*
X122667667Y-63687757D01*
X122670754Y-63685502D01*
X122682503Y-63673753D01*
X122687884Y-63668758D01*
X122721206Y-63640046D01*
X122721207Y-63640045D01*
X122726550Y-63635441D01*
X122730385Y-63629524D01*
X122730387Y-63629522D01*
X122731430Y-63627912D01*
X122744502Y-63611754D01*
X123372460Y-62983796D01*
X123426977Y-62956019D01*
X123442464Y-62954800D01*
X125335461Y-62954800D01*
X125393652Y-62973707D01*
X125429616Y-63023207D01*
X125429616Y-63084393D01*
X125416556Y-63110585D01*
X125407816Y-63123066D01*
X125403503Y-63130538D01*
X125314725Y-63320922D01*
X125311779Y-63329015D01*
X125257405Y-63531944D01*
X125255912Y-63540412D01*
X125251715Y-63588379D01*
X125254715Y-63601377D01*
X125256943Y-63603313D01*
X125260318Y-63604000D01*
X127717972Y-63604000D01*
X127730657Y-63599878D01*
X127732393Y-63597489D01*
X127732783Y-63594068D01*
X127728088Y-63540412D01*
X127726595Y-63531944D01*
X127672221Y-63329015D01*
X127669275Y-63320922D01*
X127580497Y-63130538D01*
X127576185Y-63123068D01*
X127558128Y-63097280D01*
X127540239Y-63038768D01*
X127560159Y-62980916D01*
X127605599Y-62947381D01*
X127610210Y-62945716D01*
X127629801Y-62940831D01*
X127640354Y-62939320D01*
X127646772Y-62936402D01*
X127646775Y-62936401D01*
X127684635Y-62919187D01*
X127691994Y-62916191D01*
X127696351Y-62914618D01*
X127737730Y-62899680D01*
X127743426Y-62895519D01*
X127743431Y-62895516D01*
X127746338Y-62893392D01*
X127763763Y-62883209D01*
X127767051Y-62881714D01*
X127767052Y-62881714D01*
X127773471Y-62878795D01*
X127780710Y-62872558D01*
X127810316Y-62847047D01*
X127816540Y-62842106D01*
X127825366Y-62835658D01*
X127825367Y-62835657D01*
X127828454Y-62833402D01*
X127840203Y-62821653D01*
X127845584Y-62816658D01*
X127878906Y-62787946D01*
X127878907Y-62787945D01*
X127884250Y-62783341D01*
X127888085Y-62777424D01*
X127888087Y-62777422D01*
X127889130Y-62775812D01*
X127902202Y-62759654D01*
X128227449Y-62434407D01*
X128281966Y-62406630D01*
X128340928Y-62415467D01*
G37*
%TD.AperFunction*%
%TA.AperFunction,Conductor*%
G36*
X118367004Y-49937594D02*
G01*
X118415997Y-49974245D01*
X118434100Y-50031312D01*
X118434100Y-51263916D01*
X118432600Y-51277338D01*
X118432067Y-51283960D01*
X118430511Y-51290838D01*
X118431363Y-51304568D01*
X118433910Y-51345629D01*
X118434100Y-51351759D01*
X118434100Y-51368860D01*
X118434600Y-51372351D01*
X118434600Y-51372353D01*
X118435743Y-51380332D01*
X118436553Y-51388236D01*
X118438721Y-51423176D01*
X118439565Y-51436787D01*
X118441961Y-51443423D01*
X118443184Y-51446811D01*
X118448069Y-51466401D01*
X118449580Y-51476954D01*
X118452498Y-51483372D01*
X118452499Y-51483375D01*
X118469713Y-51521235D01*
X118472709Y-51528593D01*
X118489220Y-51574330D01*
X118493381Y-51580026D01*
X118493384Y-51580031D01*
X118495508Y-51582938D01*
X118505691Y-51600363D01*
X118510105Y-51610071D01*
X118514705Y-51615410D01*
X118514706Y-51615411D01*
X118541853Y-51646916D01*
X118546794Y-51653140D01*
X118552224Y-51660573D01*
X118555498Y-51665054D01*
X118567247Y-51676803D01*
X118572242Y-51682184D01*
X118586602Y-51698849D01*
X118605559Y-51720850D01*
X118611476Y-51724685D01*
X118611478Y-51724687D01*
X118613088Y-51725730D01*
X118629246Y-51738802D01*
X119868504Y-52978060D01*
X119896281Y-53032577D01*
X119897500Y-53048064D01*
X119897500Y-53126838D01*
X119878593Y-53185029D01*
X119829093Y-53220993D01*
X119767907Y-53220993D01*
X119748105Y-53212051D01*
X119612561Y-53131890D01*
X119601216Y-53126980D01*
X119454349Y-53084311D01*
X119444449Y-53082503D01*
X119414584Y-53080153D01*
X119410692Y-53080000D01*
X119037680Y-53080000D01*
X119024995Y-53084122D01*
X119022000Y-53088243D01*
X119022000Y-54031000D01*
X119003093Y-54089191D01*
X118953593Y-54125155D01*
X118923000Y-54130000D01*
X117762680Y-54130000D01*
X117749995Y-54134122D01*
X117747000Y-54138243D01*
X117747000Y-54293692D01*
X117747153Y-54297584D01*
X117749503Y-54327449D01*
X117751311Y-54337349D01*
X117793980Y-54484216D01*
X117798888Y-54495557D01*
X117807587Y-54510266D01*
X117820935Y-54569978D01*
X117796636Y-54626131D01*
X117792378Y-54630666D01*
X117202603Y-55220441D01*
X117192079Y-55228849D01*
X117187001Y-55233171D01*
X117181032Y-55236937D01*
X117176360Y-55242227D01*
X117144705Y-55278069D01*
X117140506Y-55282538D01*
X117128399Y-55294645D01*
X117126288Y-55297462D01*
X117121445Y-55303924D01*
X117116426Y-55310088D01*
X117099321Y-55329456D01*
X117084232Y-55346541D01*
X117081237Y-55352920D01*
X117081236Y-55352922D01*
X117079701Y-55356193D01*
X117069305Y-55373493D01*
X117062911Y-55382025D01*
X117060435Y-55388631D01*
X117060434Y-55388632D01*
X117045841Y-55427560D01*
X117042756Y-55434883D01*
X117025083Y-55472524D01*
X117025082Y-55472528D01*
X117022086Y-55478909D01*
X117021001Y-55485878D01*
X117020445Y-55489449D01*
X117015326Y-55508960D01*
X117011581Y-55518950D01*
X117009882Y-55541819D01*
X117007978Y-55567447D01*
X117007074Y-55575326D01*
X117004800Y-55589926D01*
X117004800Y-55606532D01*
X117004528Y-55613868D01*
X117000745Y-55664779D01*
X117002217Y-55671674D01*
X117002217Y-55671676D01*
X117002619Y-55673558D01*
X117004800Y-55694225D01*
X117004800Y-62136016D01*
X117003300Y-62149438D01*
X117002767Y-62156060D01*
X117001211Y-62162938D01*
X117002612Y-62185518D01*
X117004610Y-62217729D01*
X117004800Y-62223859D01*
X117004800Y-62240960D01*
X117005300Y-62244451D01*
X117005300Y-62244453D01*
X117006443Y-62252432D01*
X117007253Y-62260333D01*
X117010265Y-62308887D01*
X117012661Y-62315523D01*
X117013884Y-62318911D01*
X117018769Y-62338501D01*
X117020280Y-62349054D01*
X117023198Y-62355472D01*
X117023199Y-62355475D01*
X117040413Y-62393335D01*
X117043409Y-62400693D01*
X117059920Y-62446430D01*
X117064081Y-62452126D01*
X117064084Y-62452131D01*
X117066208Y-62455038D01*
X117076391Y-62472463D01*
X117080805Y-62482171D01*
X117085405Y-62487510D01*
X117085406Y-62487511D01*
X117112553Y-62519016D01*
X117117494Y-62525240D01*
X117123942Y-62534066D01*
X117126198Y-62537154D01*
X117137947Y-62548903D01*
X117142942Y-62554284D01*
X117166390Y-62581496D01*
X117176259Y-62592950D01*
X117182176Y-62596785D01*
X117182178Y-62596787D01*
X117183788Y-62597830D01*
X117199946Y-62610902D01*
X117326141Y-62737097D01*
X117334549Y-62747621D01*
X117338871Y-62752699D01*
X117342637Y-62758668D01*
X117347927Y-62763340D01*
X117383769Y-62794995D01*
X117388238Y-62799194D01*
X117400344Y-62811300D01*
X117403159Y-62813410D01*
X117403172Y-62813421D01*
X117409625Y-62818257D01*
X117415786Y-62823272D01*
X117452241Y-62855468D01*
X117458623Y-62858464D01*
X117458627Y-62858467D01*
X117461896Y-62860002D01*
X117479189Y-62870393D01*
X117482078Y-62872558D01*
X117482085Y-62872562D01*
X117487724Y-62876788D01*
X117532015Y-62893392D01*
X117533266Y-62893861D01*
X117540586Y-62896946D01*
X117578227Y-62914618D01*
X117578229Y-62914619D01*
X117584609Y-62917614D01*
X117595151Y-62919256D01*
X117614660Y-62924374D01*
X117624650Y-62928119D01*
X117630425Y-62928548D01*
X117682697Y-62959216D01*
X117707193Y-63015284D01*
X117694054Y-63075042D01*
X117689761Y-63081729D01*
X117660815Y-63123068D01*
X117656503Y-63130538D01*
X117567725Y-63320922D01*
X117564779Y-63329015D01*
X117510405Y-63531944D01*
X117508912Y-63540412D01*
X117504715Y-63588379D01*
X117507715Y-63601377D01*
X117509943Y-63603313D01*
X117513318Y-63604000D01*
X118796000Y-63604000D01*
X118854191Y-63622907D01*
X118890155Y-63672407D01*
X118895000Y-63703000D01*
X118895000Y-63805000D01*
X118876093Y-63863191D01*
X118826593Y-63899155D01*
X118796000Y-63904000D01*
X117519028Y-63904000D01*
X117506343Y-63908122D01*
X117504607Y-63910511D01*
X117504217Y-63913932D01*
X117508911Y-63967586D01*
X117510725Y-63977872D01*
X117502209Y-64038462D01*
X117459705Y-64082474D01*
X117399449Y-64093097D01*
X117360183Y-64078650D01*
X117332454Y-64061053D01*
X117332448Y-64061050D01*
X117327779Y-64058087D01*
X117213428Y-64017368D01*
X117174372Y-64003461D01*
X117174370Y-64003461D01*
X117169162Y-64001606D01*
X117163673Y-64000951D01*
X117163671Y-64000951D01*
X117007469Y-63982324D01*
X117007466Y-63982324D01*
X117001973Y-63981669D01*
X116834521Y-63999269D01*
X116813403Y-64006458D01*
X116752226Y-64007313D01*
X116702228Y-63972044D01*
X116682500Y-63912740D01*
X116682500Y-53814320D01*
X117747000Y-53814320D01*
X117751122Y-53827005D01*
X117755243Y-53830000D01*
X118706320Y-53830000D01*
X118719005Y-53825878D01*
X118722000Y-53821757D01*
X118722000Y-53095680D01*
X118717878Y-53082995D01*
X118713757Y-53080000D01*
X118333308Y-53080000D01*
X118329416Y-53080153D01*
X118299551Y-53082503D01*
X118289651Y-53084311D01*
X118142784Y-53126980D01*
X118131439Y-53131890D01*
X118000809Y-53209144D01*
X117991040Y-53216721D01*
X117883721Y-53324040D01*
X117876144Y-53333809D01*
X117798890Y-53464439D01*
X117793980Y-53475784D01*
X117751311Y-53622651D01*
X117749503Y-53632551D01*
X117747153Y-53662416D01*
X117747000Y-53666308D01*
X117747000Y-53814320D01*
X116682500Y-53814320D01*
X116682500Y-52378001D01*
X116682999Y-52368074D01*
X116683095Y-52367120D01*
X116685080Y-52359584D01*
X116684639Y-52351806D01*
X116684704Y-52351160D01*
X116684617Y-52345273D01*
X116685158Y-52325412D01*
X116689535Y-52164625D01*
X116666347Y-51971065D01*
X116665396Y-51967569D01*
X116616114Y-51786457D01*
X116616112Y-51786452D01*
X116615162Y-51782960D01*
X116613632Y-51779459D01*
X116593990Y-51734530D01*
X116537075Y-51604337D01*
X116511613Y-51563595D01*
X116435681Y-51442097D01*
X116435679Y-51442095D01*
X116433759Y-51439022D01*
X116430487Y-51435176D01*
X116402354Y-51402115D01*
X116367485Y-51361137D01*
X116344175Y-51304568D01*
X116358567Y-51245099D01*
X116405166Y-51205448D01*
X116417590Y-51201267D01*
X116557573Y-51164282D01*
X116669433Y-51134728D01*
X116669441Y-51134725D01*
X116672092Y-51134025D01*
X116706333Y-51120744D01*
X116767306Y-51097094D01*
X117000536Y-51006630D01*
X117312733Y-50843417D01*
X117604791Y-50646421D01*
X117606904Y-50644623D01*
X117870966Y-50419889D01*
X117870970Y-50419886D01*
X117873070Y-50418098D01*
X118114226Y-50161293D01*
X118255830Y-49972007D01*
X118305825Y-49936739D01*
X118367004Y-49937594D01*
G37*
%TD.AperFunction*%
%TA.AperFunction,Conductor*%
G36*
X132148026Y-46946773D02*
G01*
X132187762Y-46983699D01*
X132213399Y-47026030D01*
X132225924Y-47046712D01*
X132342886Y-47167829D01*
X132347521Y-47170862D01*
X132432905Y-47226736D01*
X132483775Y-47260025D01*
X132488962Y-47261954D01*
X132636396Y-47316784D01*
X132636398Y-47316784D01*
X132641589Y-47318715D01*
X132647081Y-47319448D01*
X132647082Y-47319448D01*
X132802996Y-47340251D01*
X132802997Y-47340251D01*
X132808483Y-47340983D01*
X132813997Y-47340481D01*
X132818052Y-47340566D01*
X132875834Y-47360687D01*
X132885984Y-47369540D01*
X133676841Y-48160397D01*
X133685249Y-48170921D01*
X133689571Y-48175999D01*
X133693337Y-48181968D01*
X133698627Y-48186640D01*
X133734469Y-48218295D01*
X133738938Y-48222494D01*
X133751045Y-48234601D01*
X133753862Y-48236712D01*
X133760324Y-48241555D01*
X133766488Y-48246574D01*
X133797324Y-48273807D01*
X133802941Y-48278768D01*
X133809320Y-48281763D01*
X133809322Y-48281764D01*
X133810921Y-48282514D01*
X133812595Y-48283300D01*
X133829893Y-48293695D01*
X133838425Y-48300089D01*
X133845031Y-48302565D01*
X133845032Y-48302566D01*
X133883960Y-48317159D01*
X133891283Y-48320244D01*
X133928924Y-48337917D01*
X133928928Y-48337918D01*
X133935309Y-48340914D01*
X133945851Y-48342556D01*
X133965360Y-48347674D01*
X133968747Y-48348944D01*
X133968749Y-48348944D01*
X133975350Y-48351419D01*
X134023857Y-48355023D01*
X134031726Y-48355926D01*
X134046326Y-48358200D01*
X134062932Y-48358200D01*
X134070269Y-48358472D01*
X134121179Y-48362255D01*
X134128074Y-48360783D01*
X134128076Y-48360783D01*
X134129958Y-48360381D01*
X134150625Y-48358200D01*
X134264174Y-48358200D01*
X134322365Y-48377107D01*
X134358329Y-48426607D01*
X134358329Y-48487793D01*
X134322365Y-48537293D01*
X134314792Y-48542281D01*
X134169538Y-48628698D01*
X134162224Y-48634012D01*
X134148397Y-48646139D01*
X134141578Y-48657601D01*
X134141902Y-48661118D01*
X134143271Y-48663139D01*
X135016128Y-49535996D01*
X135043905Y-49590513D01*
X135034334Y-49650945D01*
X135016128Y-49676004D01*
X134147037Y-50545095D01*
X134140983Y-50556978D01*
X134140990Y-50557023D01*
X134146513Y-50563239D01*
X134295178Y-50662575D01*
X134303133Y-50666893D01*
X134497412Y-50750362D01*
X134506024Y-50753160D01*
X134712272Y-50799829D01*
X134721232Y-50801009D01*
X134932544Y-50809311D01*
X134941556Y-50808839D01*
X135150848Y-50778494D01*
X135159630Y-50776385D01*
X135359878Y-50708410D01*
X135368134Y-50704734D01*
X135412326Y-50679985D01*
X135472336Y-50668048D01*
X135527901Y-50693664D01*
X135557798Y-50747048D01*
X135559700Y-50766362D01*
X135559700Y-50935036D01*
X135540793Y-50993227D01*
X135530704Y-51005040D01*
X134561303Y-51974441D01*
X134550779Y-51982849D01*
X134545701Y-51987171D01*
X134539732Y-51990937D01*
X134535060Y-51996227D01*
X134503405Y-52032069D01*
X134499206Y-52036538D01*
X134487099Y-52048645D01*
X134484988Y-52051462D01*
X134480145Y-52057924D01*
X134475126Y-52064088D01*
X134452427Y-52089790D01*
X134442932Y-52100541D01*
X134439937Y-52106920D01*
X134439936Y-52106922D01*
X134438401Y-52110193D01*
X134428005Y-52127493D01*
X134421611Y-52136025D01*
X134419135Y-52142631D01*
X134419134Y-52142632D01*
X134404541Y-52181560D01*
X134401456Y-52188883D01*
X134383783Y-52226524D01*
X134383782Y-52226528D01*
X134380786Y-52232909D01*
X134379429Y-52241627D01*
X134379145Y-52243449D01*
X134374026Y-52262960D01*
X134370281Y-52272950D01*
X134368692Y-52294335D01*
X134368135Y-52301835D01*
X134344968Y-52358465D01*
X134292940Y-52390662D01*
X134269407Y-52393500D01*
X133990782Y-52393500D01*
X133987199Y-52394028D01*
X133987192Y-52394028D01*
X133929501Y-52402521D01*
X133929499Y-52402522D01*
X133921888Y-52403642D01*
X133914982Y-52407033D01*
X133914981Y-52407033D01*
X133896015Y-52416345D01*
X133817145Y-52455068D01*
X133811364Y-52460859D01*
X133799407Y-52472837D01*
X133734707Y-52537650D01*
X133683464Y-52642482D01*
X133682355Y-52650084D01*
X133682354Y-52650087D01*
X133676162Y-52692532D01*
X133673500Y-52710782D01*
X133673500Y-54477218D01*
X133674028Y-54480801D01*
X133674028Y-54480808D01*
X133678365Y-54510266D01*
X133683642Y-54546112D01*
X133687033Y-54553018D01*
X133687033Y-54553019D01*
X133697599Y-54574540D01*
X133735068Y-54650855D01*
X133817650Y-54733293D01*
X133922482Y-54784536D01*
X133930084Y-54785645D01*
X133930087Y-54785646D01*
X133987237Y-54793983D01*
X133987239Y-54793983D01*
X133990782Y-54794500D01*
X134342256Y-54794500D01*
X134400447Y-54813407D01*
X134436411Y-54862907D01*
X134436411Y-54924093D01*
X134400447Y-54973593D01*
X134384095Y-54983224D01*
X134250538Y-55045503D01*
X134243068Y-55049815D01*
X134070987Y-55170308D01*
X134064392Y-55175841D01*
X133915841Y-55324392D01*
X133910308Y-55330987D01*
X133789815Y-55503068D01*
X133785503Y-55510538D01*
X133696725Y-55700922D01*
X133693779Y-55709015D01*
X133639405Y-55911944D01*
X133637912Y-55920412D01*
X133633715Y-55968379D01*
X133636715Y-55981377D01*
X133638943Y-55983313D01*
X133642318Y-55984000D01*
X136099972Y-55984000D01*
X136112657Y-55979878D01*
X136114393Y-55977489D01*
X136114783Y-55974068D01*
X136110088Y-55920412D01*
X136108595Y-55911944D01*
X136054221Y-55709015D01*
X136051275Y-55700922D01*
X135962497Y-55510538D01*
X135958185Y-55503068D01*
X135837692Y-55330987D01*
X135832159Y-55324392D01*
X135683608Y-55175841D01*
X135677013Y-55170308D01*
X135504933Y-55049815D01*
X135497463Y-55045503D01*
X135363906Y-54983224D01*
X135319158Y-54941496D01*
X135307483Y-54881435D01*
X135333341Y-54825982D01*
X135386855Y-54796319D01*
X135405745Y-54794500D01*
X135757218Y-54794500D01*
X135760801Y-54793972D01*
X135760808Y-54793972D01*
X135818499Y-54785479D01*
X135818501Y-54785478D01*
X135826112Y-54784358D01*
X135930855Y-54732932D01*
X135947199Y-54716560D01*
X136007513Y-54656140D01*
X136013293Y-54650350D01*
X136064536Y-54545518D01*
X136065645Y-54537916D01*
X136065646Y-54537913D01*
X136073983Y-54480763D01*
X136073983Y-54480761D01*
X136074500Y-54477218D01*
X136074500Y-52710782D01*
X136072962Y-52700329D01*
X136065479Y-52649501D01*
X136065478Y-52649499D01*
X136064358Y-52641888D01*
X136059031Y-52631037D01*
X136031294Y-52574545D01*
X136012932Y-52537145D01*
X135930350Y-52454707D01*
X135825518Y-52403464D01*
X135803137Y-52400199D01*
X135748285Y-52373090D01*
X135719843Y-52318917D01*
X135728676Y-52258372D01*
X135747424Y-52232232D01*
X136382897Y-51596759D01*
X136400070Y-51583038D01*
X136403669Y-51580767D01*
X136462971Y-51565704D01*
X136519801Y-51588374D01*
X136552453Y-51640119D01*
X136555500Y-51664492D01*
X136555500Y-57721063D01*
X136536593Y-57779254D01*
X136487093Y-57815218D01*
X136425907Y-57815218D01*
X136406105Y-57806276D01*
X136273561Y-57727890D01*
X136262216Y-57722980D01*
X136115349Y-57680311D01*
X136105449Y-57678503D01*
X136075584Y-57676153D01*
X136071692Y-57676000D01*
X135923680Y-57676000D01*
X135910995Y-57680122D01*
X135908000Y-57684243D01*
X135908000Y-58852000D01*
X135889093Y-58910191D01*
X135839593Y-58946155D01*
X135809000Y-58951000D01*
X135707000Y-58951000D01*
X135648809Y-58932093D01*
X135612845Y-58882593D01*
X135608000Y-58852000D01*
X135608000Y-57691680D01*
X135603878Y-57678995D01*
X135599757Y-57676000D01*
X135444308Y-57676000D01*
X135440416Y-57676153D01*
X135410551Y-57678503D01*
X135400651Y-57680311D01*
X135253784Y-57722980D01*
X135242439Y-57727890D01*
X135111809Y-57805144D01*
X135102040Y-57812721D01*
X134994721Y-57920040D01*
X134987144Y-57929809D01*
X134909890Y-58060439D01*
X134904980Y-58071784D01*
X134879612Y-58159102D01*
X134845221Y-58209707D01*
X134787653Y-58230433D01*
X134728897Y-58213363D01*
X134694275Y-58168728D01*
X134693044Y-58169238D01*
X134670470Y-58114740D01*
X134632536Y-58023159D01*
X134536282Y-57897718D01*
X134410841Y-57801464D01*
X134264762Y-57740956D01*
X134147361Y-57725500D01*
X133858045Y-57725500D01*
X133568640Y-57725501D01*
X133565429Y-57725924D01*
X133565424Y-57725924D01*
X133483671Y-57736686D01*
X133451238Y-57740956D01*
X133445246Y-57743438D01*
X133445242Y-57743439D01*
X133350973Y-57782487D01*
X133305159Y-57801464D01*
X133300013Y-57805413D01*
X133300009Y-57805415D01*
X133285268Y-57816727D01*
X133227593Y-57837152D01*
X133168927Y-57819775D01*
X133131679Y-57771234D01*
X133126000Y-57738186D01*
X133126000Y-57315680D01*
X133121878Y-57302995D01*
X133117757Y-57300000D01*
X131991680Y-57300000D01*
X131978995Y-57304122D01*
X131976000Y-57308243D01*
X131976000Y-58434319D01*
X131980122Y-58447004D01*
X131984243Y-58449999D01*
X132717737Y-58449999D01*
X132775928Y-58468906D01*
X132811892Y-58518406D01*
X132811892Y-58579592D01*
X132787741Y-58619003D01*
X132329795Y-59076949D01*
X132275278Y-59104726D01*
X132214846Y-59095155D01*
X132175834Y-59059407D01*
X132154315Y-59024969D01*
X132154313Y-59024967D01*
X132151384Y-59020279D01*
X132147489Y-59016356D01*
X132147486Y-59016353D01*
X132036644Y-58904735D01*
X132036642Y-58904734D01*
X132032742Y-58900806D01*
X131924507Y-58832118D01*
X131895249Y-58813550D01*
X131895245Y-58813548D01*
X131890579Y-58810587D01*
X131776228Y-58769868D01*
X131737172Y-58755961D01*
X131737170Y-58755961D01*
X131731962Y-58754106D01*
X131726473Y-58753451D01*
X131726471Y-58753451D01*
X131570269Y-58734824D01*
X131570266Y-58734824D01*
X131564773Y-58734169D01*
X131397321Y-58751769D01*
X131392082Y-58753553D01*
X131392080Y-58753553D01*
X131252706Y-58801000D01*
X131237931Y-58806030D01*
X131233221Y-58808928D01*
X131233216Y-58808930D01*
X131132686Y-58870777D01*
X131094522Y-58894256D01*
X131090573Y-58898123D01*
X131090572Y-58898124D01*
X131037054Y-58950533D01*
X130982249Y-58977738D01*
X130967787Y-58978800D01*
X130089564Y-58978800D01*
X130031373Y-58959893D01*
X130019560Y-58949804D01*
X129587360Y-58517604D01*
X129559583Y-58463087D01*
X129569154Y-58402655D01*
X129612419Y-58359390D01*
X129631740Y-58351973D01*
X129645556Y-58348271D01*
X129715330Y-58329575D01*
X129913639Y-58237102D01*
X129923164Y-58230433D01*
X129992203Y-58182091D01*
X130092877Y-58111598D01*
X130247598Y-57956877D01*
X130345906Y-57816478D01*
X130394769Y-57779657D01*
X130455945Y-57778589D01*
X130506066Y-57813683D01*
X130526001Y-57873263D01*
X130526001Y-58077585D01*
X130526611Y-58085329D01*
X130539616Y-58167449D01*
X130544373Y-58182091D01*
X130594823Y-58281106D01*
X130603865Y-58293551D01*
X130682449Y-58372135D01*
X130694894Y-58381177D01*
X130793912Y-58431629D01*
X130808547Y-58436384D01*
X130890673Y-58449391D01*
X130898412Y-58450000D01*
X131660320Y-58450000D01*
X131673005Y-58445878D01*
X131676000Y-58441757D01*
X131676000Y-56984320D01*
X131976000Y-56984320D01*
X131980122Y-56997005D01*
X131984243Y-57000000D01*
X133110319Y-57000000D01*
X133123004Y-56995878D01*
X133125999Y-56991757D01*
X133125999Y-56293932D01*
X133633217Y-56293932D01*
X133637912Y-56347588D01*
X133639405Y-56356056D01*
X133693779Y-56558985D01*
X133696725Y-56567078D01*
X133785503Y-56757462D01*
X133789815Y-56764932D01*
X133910308Y-56937013D01*
X133915841Y-56943608D01*
X134064392Y-57092159D01*
X134070987Y-57097692D01*
X134243067Y-57218185D01*
X134250537Y-57222497D01*
X134440922Y-57311275D01*
X134449015Y-57314221D01*
X134651944Y-57368595D01*
X134660412Y-57370088D01*
X134708379Y-57374285D01*
X134721377Y-57371285D01*
X134723313Y-57369057D01*
X134724000Y-57365682D01*
X134724000Y-57359972D01*
X135024000Y-57359972D01*
X135028122Y-57372657D01*
X135030511Y-57374393D01*
X135033932Y-57374783D01*
X135087588Y-57370088D01*
X135096056Y-57368595D01*
X135298985Y-57314221D01*
X135307078Y-57311275D01*
X135497463Y-57222497D01*
X135504933Y-57218185D01*
X135677013Y-57097692D01*
X135683608Y-57092159D01*
X135832159Y-56943608D01*
X135837692Y-56937013D01*
X135958185Y-56764932D01*
X135962497Y-56757462D01*
X136051275Y-56567078D01*
X136054221Y-56558985D01*
X136108595Y-56356056D01*
X136110088Y-56347588D01*
X136114285Y-56299621D01*
X136111285Y-56286623D01*
X136109057Y-56284687D01*
X136105682Y-56284000D01*
X135039680Y-56284000D01*
X135026995Y-56288122D01*
X135024000Y-56292243D01*
X135024000Y-57359972D01*
X134724000Y-57359972D01*
X134724000Y-56299680D01*
X134719878Y-56286995D01*
X134715757Y-56284000D01*
X133648028Y-56284000D01*
X133635343Y-56288122D01*
X133633607Y-56290511D01*
X133633217Y-56293932D01*
X133125999Y-56293932D01*
X133125999Y-56222415D01*
X133125389Y-56214671D01*
X133112384Y-56132551D01*
X133107627Y-56117909D01*
X133057177Y-56018894D01*
X133048135Y-56006449D01*
X132969551Y-55927865D01*
X132957106Y-55918823D01*
X132858088Y-55868371D01*
X132843453Y-55863616D01*
X132761327Y-55850609D01*
X132753588Y-55850000D01*
X131991680Y-55850000D01*
X131978995Y-55854122D01*
X131976000Y-55858243D01*
X131976000Y-56984320D01*
X131676000Y-56984320D01*
X131676000Y-55865681D01*
X131671878Y-55852996D01*
X131667757Y-55850001D01*
X131497466Y-55850001D01*
X131439275Y-55831094D01*
X131403311Y-55781594D01*
X131403311Y-55720408D01*
X131427462Y-55680997D01*
X131430925Y-55677534D01*
X131440287Y-55670054D01*
X131440215Y-55669969D01*
X131445585Y-55665398D01*
X131451550Y-55661635D01*
X131485244Y-55623484D01*
X131489443Y-55619016D01*
X131500574Y-55607885D01*
X131502684Y-55605070D01*
X131502688Y-55605065D01*
X131506897Y-55599449D01*
X131511911Y-55593291D01*
X131537043Y-55564834D01*
X131537046Y-55564829D01*
X131541713Y-55559545D01*
X131545638Y-55551185D01*
X131556029Y-55533891D01*
X131561572Y-55526495D01*
X131577382Y-55484322D01*
X131580460Y-55477016D01*
X131599599Y-55436252D01*
X131601020Y-55427127D01*
X131606140Y-55407610D01*
X131609384Y-55398957D01*
X131612721Y-55354044D01*
X131613625Y-55346167D01*
X131615700Y-55332844D01*
X131615700Y-55317632D01*
X131615972Y-55310296D01*
X131616209Y-55307108D01*
X131619477Y-55263126D01*
X131618005Y-55256232D01*
X131618005Y-55256227D01*
X131617881Y-55255648D01*
X131615700Y-55234982D01*
X131615700Y-53051633D01*
X131634607Y-52993442D01*
X131646428Y-52979940D01*
X131659974Y-52967040D01*
X131718754Y-52911065D01*
X131735134Y-52886412D01*
X131800548Y-52787956D01*
X131811931Y-52770823D01*
X131843553Y-52687577D01*
X131869756Y-52618597D01*
X131869757Y-52618594D01*
X131871721Y-52613423D01*
X131873697Y-52599369D01*
X131887927Y-52498116D01*
X131895155Y-52446688D01*
X131895297Y-52436503D01*
X131895406Y-52428717D01*
X131895406Y-52428710D01*
X131895449Y-52425600D01*
X131894884Y-52420558D01*
X131887099Y-52351160D01*
X131876681Y-52258276D01*
X131821308Y-52099268D01*
X131753616Y-51990937D01*
X131735015Y-51961169D01*
X131735013Y-51961167D01*
X131732084Y-51956479D01*
X131728189Y-51952556D01*
X131728186Y-51952553D01*
X131617344Y-51840935D01*
X131617342Y-51840934D01*
X131613442Y-51837006D01*
X131538189Y-51789249D01*
X131475949Y-51749750D01*
X131475945Y-51749748D01*
X131471279Y-51746787D01*
X131341467Y-51700563D01*
X131317872Y-51692161D01*
X131317870Y-51692161D01*
X131312662Y-51690306D01*
X131307173Y-51689651D01*
X131307171Y-51689651D01*
X131150969Y-51671024D01*
X131150966Y-51671024D01*
X131145473Y-51670369D01*
X130978021Y-51687969D01*
X130972782Y-51689753D01*
X130972780Y-51689753D01*
X130823874Y-51740445D01*
X130818631Y-51742230D01*
X130813921Y-51745128D01*
X130813916Y-51745130D01*
X130703676Y-51812951D01*
X130675222Y-51830456D01*
X130671273Y-51834323D01*
X130671272Y-51834324D01*
X130602895Y-51901284D01*
X130554924Y-51948261D01*
X130551926Y-51952913D01*
X130480279Y-52064088D01*
X130463715Y-52089790D01*
X130406127Y-52248009D01*
X130405433Y-52253501D01*
X130405433Y-52253502D01*
X130404830Y-52258276D01*
X130385025Y-52415055D01*
X130401455Y-52582625D01*
X130431750Y-52673696D01*
X130446939Y-52719355D01*
X130452000Y-52750604D01*
X130452000Y-54957320D01*
X130456122Y-54970005D01*
X130460243Y-54973000D01*
X130551534Y-54973000D01*
X130609725Y-54991907D01*
X130645689Y-55041407D01*
X130645689Y-55102593D01*
X130621538Y-55142004D01*
X129816663Y-55946879D01*
X129762146Y-55974656D01*
X129715402Y-55970155D01*
X129715330Y-55970425D01*
X129711153Y-55969306D01*
X129711151Y-55969305D01*
X129508154Y-55914912D01*
X129508152Y-55914912D01*
X129503977Y-55913793D01*
X129286000Y-55894723D01*
X129068023Y-55913793D01*
X129063848Y-55914912D01*
X129063846Y-55914912D01*
X128944545Y-55946879D01*
X128856670Y-55970425D01*
X128677038Y-56054189D01*
X128616310Y-56061646D01*
X128562796Y-56031983D01*
X128536938Y-55976530D01*
X128536200Y-55964465D01*
X128536200Y-55022499D01*
X128555107Y-54964308D01*
X128604607Y-54928344D01*
X128635200Y-54923499D01*
X128691360Y-54923499D01*
X128694571Y-54923076D01*
X128694576Y-54923076D01*
X128776329Y-54912314D01*
X128808762Y-54908044D01*
X128814754Y-54905562D01*
X128814758Y-54905561D01*
X128914753Y-54864141D01*
X128954841Y-54847536D01*
X129080282Y-54751282D01*
X129176536Y-54625841D01*
X129237044Y-54479762D01*
X129239981Y-54480978D01*
X129266332Y-54440506D01*
X129323480Y-54418648D01*
X129382561Y-54434554D01*
X129421010Y-54482150D01*
X129423612Y-54489898D01*
X129448980Y-54577216D01*
X129453890Y-54588561D01*
X129531144Y-54719191D01*
X129538721Y-54728960D01*
X129646040Y-54836279D01*
X129655809Y-54843856D01*
X129786439Y-54921110D01*
X129797784Y-54926020D01*
X129944651Y-54968689D01*
X129954551Y-54970497D01*
X129984416Y-54972847D01*
X129988308Y-54973000D01*
X130136320Y-54973000D01*
X130149005Y-54968878D01*
X130152000Y-54964757D01*
X130152000Y-52738680D01*
X130147878Y-52725995D01*
X130143757Y-52723000D01*
X129988308Y-52723000D01*
X129984416Y-52723153D01*
X129954551Y-52725503D01*
X129944651Y-52727311D01*
X129797784Y-52769980D01*
X129786439Y-52774890D01*
X129655809Y-52852144D01*
X129646040Y-52859721D01*
X129538721Y-52967040D01*
X129531144Y-52976809D01*
X129453890Y-53107439D01*
X129448980Y-53118784D01*
X129423612Y-53206102D01*
X129389221Y-53256707D01*
X129331653Y-53277433D01*
X129272897Y-53260363D01*
X129238275Y-53215728D01*
X129237044Y-53216238D01*
X129187107Y-53095680D01*
X129176536Y-53070159D01*
X129080282Y-52944718D01*
X128954841Y-52848464D01*
X128808762Y-52787956D01*
X128691361Y-52772500D01*
X128402045Y-52772500D01*
X128112640Y-52772501D01*
X128109429Y-52772924D01*
X128109424Y-52772924D01*
X128027671Y-52783686D01*
X127995238Y-52787956D01*
X127989246Y-52790438D01*
X127989242Y-52790439D01*
X127889247Y-52831859D01*
X127849159Y-52848464D01*
X127844010Y-52852415D01*
X127808974Y-52879299D01*
X127751298Y-52899723D01*
X127692633Y-52882345D01*
X127655385Y-52833804D01*
X127653784Y-52772639D01*
X127678703Y-52730753D01*
X128991176Y-51418281D01*
X130471300Y-49938157D01*
X130481829Y-49929745D01*
X130486903Y-49925427D01*
X130492868Y-49921663D01*
X130520424Y-49890462D01*
X130573116Y-49859362D01*
X130634025Y-49865174D01*
X130648835Y-49873157D01*
X130740475Y-49933125D01*
X130745662Y-49935054D01*
X130893096Y-49989884D01*
X130893098Y-49989884D01*
X130898289Y-49991815D01*
X130903781Y-49992548D01*
X130903782Y-49992548D01*
X131026156Y-50008876D01*
X131065183Y-50014083D01*
X131070689Y-50013582D01*
X131070691Y-50013582D01*
X131227353Y-49999325D01*
X131227357Y-49999324D01*
X131232864Y-49998823D01*
X131238125Y-49997114D01*
X131238128Y-49997113D01*
X131315390Y-49972009D01*
X131392997Y-49946793D01*
X131537623Y-49860578D01*
X131541632Y-49856760D01*
X131541635Y-49856758D01*
X131648638Y-49754860D01*
X131659554Y-49744465D01*
X131752731Y-49604223D01*
X131762319Y-49578981D01*
X133669569Y-49578981D01*
X133683399Y-49790000D01*
X133684812Y-49798921D01*
X133736866Y-50003882D01*
X133739886Y-50012410D01*
X133828416Y-50204446D01*
X133832937Y-50212277D01*
X133916085Y-50329928D01*
X133926772Y-50337908D01*
X133927521Y-50337918D01*
X133933652Y-50334216D01*
X134650782Y-49617086D01*
X134656836Y-49605203D01*
X134656040Y-49600172D01*
X133937062Y-48881194D01*
X133925179Y-48875140D01*
X133923062Y-48875475D01*
X133919332Y-48878536D01*
X133866094Y-48946068D01*
X133861170Y-48953651D01*
X133762705Y-49140802D01*
X133759251Y-49149142D01*
X133696541Y-49351098D01*
X133694660Y-49359948D01*
X133669805Y-49569948D01*
X133669569Y-49578981D01*
X131762319Y-49578981D01*
X131786171Y-49516191D01*
X131810556Y-49451997D01*
X131810557Y-49451994D01*
X131812521Y-49446823D01*
X131835955Y-49280088D01*
X131836249Y-49259000D01*
X131817481Y-49091676D01*
X131762108Y-48932668D01*
X131716182Y-48859170D01*
X131675815Y-48794569D01*
X131675813Y-48794567D01*
X131672884Y-48789879D01*
X131620251Y-48736878D01*
X131592665Y-48682265D01*
X131591500Y-48667120D01*
X131591500Y-47447564D01*
X131610407Y-47389373D01*
X131620496Y-47377560D01*
X132033077Y-46964979D01*
X132087594Y-46937202D01*
X132148026Y-46946773D01*
G37*
%TD.AperFunction*%
%TA.AperFunction,Conductor*%
G36*
X122143547Y-47092407D02*
G01*
X122189042Y-47125462D01*
X122263718Y-47222782D01*
X122389159Y-47319036D01*
X122535238Y-47379544D01*
X122652639Y-47395000D01*
X122903240Y-47395000D01*
X122961431Y-47413907D01*
X122997395Y-47463407D01*
X122996270Y-47527859D01*
X122979327Y-47574409D01*
X122958225Y-47741455D01*
X122974655Y-47909025D01*
X123027802Y-48068791D01*
X123030667Y-48073522D01*
X123030669Y-48073526D01*
X123109416Y-48203552D01*
X123115024Y-48212812D01*
X123176750Y-48276730D01*
X123203571Y-48331722D01*
X123192946Y-48391978D01*
X123148933Y-48434481D01*
X123105534Y-48444500D01*
X122628308Y-48444500D01*
X122624416Y-48444653D01*
X122594551Y-48447003D01*
X122584651Y-48448811D01*
X122437784Y-48491480D01*
X122426439Y-48496390D01*
X122295809Y-48573644D01*
X122286040Y-48581221D01*
X122180504Y-48686757D01*
X122125987Y-48714534D01*
X122065555Y-48704963D01*
X122040496Y-48686757D01*
X121934960Y-48581221D01*
X121925191Y-48573644D01*
X121794561Y-48496390D01*
X121783216Y-48491480D01*
X121636349Y-48448811D01*
X121626449Y-48447003D01*
X121596584Y-48444653D01*
X121592692Y-48444500D01*
X121069680Y-48444500D01*
X121056995Y-48448622D01*
X121054000Y-48452743D01*
X121054000Y-49241320D01*
X121058122Y-49254005D01*
X121062243Y-49257000D01*
X123368000Y-49257000D01*
X123426191Y-49275907D01*
X123462155Y-49325407D01*
X123467000Y-49356000D01*
X123467000Y-49458000D01*
X123448093Y-49516191D01*
X123398593Y-49552155D01*
X123368000Y-49557000D01*
X121069680Y-49557000D01*
X121056995Y-49561122D01*
X121054000Y-49565243D01*
X121054000Y-50353820D01*
X121058122Y-50366505D01*
X121062243Y-50369500D01*
X121592692Y-50369500D01*
X121596584Y-50369347D01*
X121626449Y-50366997D01*
X121636349Y-50365189D01*
X121710784Y-50343563D01*
X121771939Y-50345485D01*
X121820285Y-50382986D01*
X121837355Y-50441741D01*
X121816630Y-50499310D01*
X121808408Y-50508636D01*
X121180539Y-51136505D01*
X121126022Y-51164282D01*
X121110535Y-51165501D01*
X120350624Y-51165501D01*
X120347965Y-51165790D01*
X120347962Y-51165790D01*
X120295595Y-51171478D01*
X120295593Y-51171478D01*
X120289420Y-51172149D01*
X120230322Y-51194303D01*
X120161785Y-51219996D01*
X120161782Y-51219997D01*
X120155176Y-51222474D01*
X120040454Y-51308454D01*
X120036221Y-51314102D01*
X119958705Y-51417531D01*
X119954474Y-51423176D01*
X119951999Y-51429779D01*
X119948970Y-51435311D01*
X119904441Y-51477273D01*
X119843752Y-51485048D01*
X119792129Y-51457773D01*
X119484096Y-51149740D01*
X119456319Y-51095223D01*
X119455100Y-51079736D01*
X119455100Y-49909051D01*
X119474007Y-49850860D01*
X119523507Y-49814896D01*
X119584693Y-49814896D01*
X119634193Y-49850860D01*
X119649169Y-49881431D01*
X119675980Y-49973716D01*
X119680890Y-49985061D01*
X119758144Y-50115691D01*
X119765721Y-50125460D01*
X119873040Y-50232779D01*
X119882809Y-50240356D01*
X120013439Y-50317610D01*
X120024784Y-50322520D01*
X120171651Y-50365189D01*
X120181551Y-50366997D01*
X120211416Y-50369347D01*
X120215308Y-50369500D01*
X120738320Y-50369500D01*
X120751005Y-50365378D01*
X120754000Y-50361257D01*
X120754000Y-48460180D01*
X120749878Y-48447495D01*
X120745757Y-48444500D01*
X120315495Y-48444500D01*
X120257304Y-48425593D01*
X120221340Y-48376093D01*
X120221340Y-48314907D01*
X120247223Y-48273807D01*
X120285386Y-48237465D01*
X120316154Y-48208165D01*
X120409331Y-48067923D01*
X120457991Y-47939823D01*
X120467156Y-47915697D01*
X120467157Y-47915694D01*
X120469121Y-47910523D01*
X120470366Y-47901669D01*
X120480586Y-47828948D01*
X120492555Y-47743788D01*
X120492759Y-47729136D01*
X120512474Y-47671215D01*
X120521745Y-47660511D01*
X120758260Y-47423996D01*
X120812777Y-47396219D01*
X120828264Y-47395000D01*
X121511132Y-47394999D01*
X121568360Y-47394999D01*
X121571571Y-47394576D01*
X121571576Y-47394576D01*
X121653329Y-47383814D01*
X121685762Y-47379544D01*
X121691754Y-47377062D01*
X121691758Y-47377061D01*
X121791753Y-47335641D01*
X121831841Y-47319036D01*
X121957282Y-47222782D01*
X122031958Y-47125462D01*
X122082382Y-47090806D01*
X122143547Y-47092407D01*
G37*
%TD.AperFunction*%
%TA.AperFunction,Conductor*%
G36*
X129537504Y-46738160D02*
G01*
X129619104Y-46819760D01*
X129646881Y-46874277D01*
X129648100Y-46889764D01*
X129648100Y-49276436D01*
X129629193Y-49334627D01*
X129619104Y-49346440D01*
X129537504Y-49428040D01*
X129482987Y-49455817D01*
X129422555Y-49446246D01*
X129379290Y-49402981D01*
X129368500Y-49358036D01*
X129368499Y-49058382D01*
X129368499Y-49055140D01*
X129367973Y-49051139D01*
X129355139Y-48953651D01*
X129353044Y-48937738D01*
X129350562Y-48931746D01*
X129350561Y-48931742D01*
X129295019Y-48797654D01*
X129292536Y-48791659D01*
X129196282Y-48666218D01*
X129070841Y-48569964D01*
X128924762Y-48509456D01*
X128807361Y-48494000D01*
X128143103Y-48494000D01*
X127478640Y-48494001D01*
X127475429Y-48494424D01*
X127475424Y-48494424D01*
X127393671Y-48505186D01*
X127361238Y-48509456D01*
X127355246Y-48511938D01*
X127355242Y-48511939D01*
X127255247Y-48553359D01*
X127215159Y-48569964D01*
X127089718Y-48666218D01*
X127022280Y-48754106D01*
X127016577Y-48761538D01*
X126966153Y-48796194D01*
X126904988Y-48794593D01*
X126859493Y-48761538D01*
X126787236Y-48667371D01*
X126783282Y-48662218D01*
X126657841Y-48565964D01*
X126511762Y-48505456D01*
X126394361Y-48490000D01*
X125730103Y-48490000D01*
X125065640Y-48490001D01*
X125062429Y-48490424D01*
X125062424Y-48490424D01*
X124980671Y-48501186D01*
X124948238Y-48505456D01*
X124942246Y-48507938D01*
X124942242Y-48507939D01*
X124842247Y-48549359D01*
X124802159Y-48565964D01*
X124676718Y-48662218D01*
X124633069Y-48719103D01*
X124582646Y-48753758D01*
X124521482Y-48752157D01*
X124472940Y-48714910D01*
X124469316Y-48709232D01*
X124462856Y-48698309D01*
X124455279Y-48688540D01*
X124347960Y-48581221D01*
X124338191Y-48573644D01*
X124204563Y-48494616D01*
X124164100Y-48448720D01*
X124158342Y-48387806D01*
X124186686Y-48337710D01*
X124291954Y-48237465D01*
X124308334Y-48212812D01*
X124382068Y-48101833D01*
X124385131Y-48097223D01*
X124430402Y-47978045D01*
X124468741Y-47930361D01*
X124522950Y-47914200D01*
X127153016Y-47914200D01*
X127166438Y-47915700D01*
X127173060Y-47916233D01*
X127179938Y-47917789D01*
X127234729Y-47914390D01*
X127240859Y-47914200D01*
X127257960Y-47914200D01*
X127261451Y-47913700D01*
X127261453Y-47913700D01*
X127264201Y-47913306D01*
X127269440Y-47912556D01*
X127277333Y-47911747D01*
X127297067Y-47910523D01*
X127318846Y-47909172D01*
X127318847Y-47909172D01*
X127325887Y-47908735D01*
X127335910Y-47905116D01*
X127355501Y-47900231D01*
X127366054Y-47898720D01*
X127372472Y-47895802D01*
X127372475Y-47895801D01*
X127410335Y-47878587D01*
X127417694Y-47875591D01*
X127463430Y-47859080D01*
X127469126Y-47854919D01*
X127469131Y-47854916D01*
X127472038Y-47852792D01*
X127489463Y-47842609D01*
X127492751Y-47841114D01*
X127492752Y-47841114D01*
X127499171Y-47838195D01*
X127536016Y-47806447D01*
X127542240Y-47801506D01*
X127551066Y-47795058D01*
X127551067Y-47795057D01*
X127554154Y-47792802D01*
X127565903Y-47781053D01*
X127571284Y-47776058D01*
X127604606Y-47747346D01*
X127604607Y-47747345D01*
X127609950Y-47742741D01*
X127613785Y-47736824D01*
X127613787Y-47736822D01*
X127614830Y-47735212D01*
X127627902Y-47719054D01*
X127922960Y-47423996D01*
X127977477Y-47396219D01*
X127992964Y-47395000D01*
X128744688Y-47394999D01*
X128807360Y-47394999D01*
X128810571Y-47394576D01*
X128810576Y-47394576D01*
X128892329Y-47383814D01*
X128924762Y-47379544D01*
X128930754Y-47377062D01*
X128930758Y-47377061D01*
X129030753Y-47335641D01*
X129070841Y-47319036D01*
X129196282Y-47222782D01*
X129292536Y-47097341D01*
X129353044Y-46951262D01*
X129368500Y-46833861D01*
X129368500Y-46808164D01*
X129387407Y-46749973D01*
X129436907Y-46714009D01*
X129498093Y-46714009D01*
X129537504Y-46738160D01*
G37*
%TD.AperFunction*%
%TD*%
M02*
