%TF.GenerationSoftware,KiCad,Pcbnew,6.0.6-1.fc35*%
%TF.CreationDate,2022-08-01T00:07:55+02:00*%
%TF.ProjectId,lm324_4ch_therm,6c6d3332-345f-4346-9368-5f746865726d,rev?*%
%TF.SameCoordinates,Original*%
%TF.FileFunction,Soldermask,Top*%
%TF.FilePolarity,Negative*%
%FSLAX46Y46*%
G04 Gerber Fmt 4.6, Leading zero omitted, Abs format (unit mm)*
G04 Created by KiCad (PCBNEW 6.0.6-1.fc35) date 2022-08-01 00:07:55*
%MOMM*%
%LPD*%
G01*
G04 APERTURE LIST*
G04 Aperture macros list*
%AMRoundRect*
0 Rectangle with rounded corners*
0 $1 Rounding radius*
0 $2 $3 $4 $5 $6 $7 $8 $9 X,Y pos of 4 corners*
0 Add a 4 corners polygon primitive as box body*
4,1,4,$2,$3,$4,$5,$6,$7,$8,$9,$2,$3,0*
0 Add four circle primitives for the rounded corners*
1,1,$1+$1,$2,$3*
1,1,$1+$1,$4,$5*
1,1,$1+$1,$6,$7*
1,1,$1+$1,$8,$9*
0 Add four rect primitives between the rounded corners*
20,1,$1+$1,$2,$3,$4,$5,0*
20,1,$1+$1,$4,$5,$6,$7,0*
20,1,$1+$1,$6,$7,$8,$9,0*
20,1,$1+$1,$8,$9,$2,$3,0*%
%AMFreePoly0*
4,1,22,0.550000,-0.750000,0.000000,-0.750000,0.000000,-0.745033,-0.079941,-0.743568,-0.215256,-0.701293,-0.333266,-0.622738,-0.424486,-0.514219,-0.481581,-0.384460,-0.499164,-0.250000,-0.500000,-0.250000,-0.500000,0.250000,-0.499164,0.250000,-0.499963,0.256109,-0.478152,0.396186,-0.417904,0.524511,-0.324060,0.630769,-0.204165,0.706417,-0.067858,0.745374,0.000000,0.744959,0.000000,0.750000,
0.550000,0.750000,0.550000,-0.750000,0.550000,-0.750000,$1*%
%AMFreePoly1*
4,1,20,0.000000,0.744959,0.073905,0.744508,0.209726,0.703889,0.328688,0.626782,0.421226,0.519385,0.479903,0.390333,0.500000,0.250000,0.500000,-0.250000,0.499851,-0.262216,0.476331,-0.402017,0.414519,-0.529596,0.319384,-0.634700,0.198574,-0.708877,0.061801,-0.746166,0.000000,-0.745033,0.000000,-0.750000,-0.550000,-0.750000,-0.550000,0.750000,0.000000,0.750000,0.000000,0.744959,
0.000000,0.744959,$1*%
G04 Aperture macros list end*
%ADD10R,1.700000X1.700000*%
%ADD11O,1.700000X1.700000*%
%ADD12R,1.800000X1.800000*%
%ADD13C,1.800000*%
%ADD14R,1.600000X1.600000*%
%ADD15C,1.600000*%
%ADD16R,1.700000X1.300000*%
%ADD17R,0.500000X0.800000*%
%ADD18R,0.400000X0.800000*%
%ADD19FreePoly0,0.000000*%
%ADD20R,1.000000X1.500000*%
%ADD21FreePoly1,0.000000*%
%ADD22C,5.600000*%
%ADD23R,0.900000X0.800000*%
%ADD24R,1.300000X1.700000*%
%ADD25RoundRect,0.250000X0.475000X-0.250000X0.475000X0.250000X-0.475000X0.250000X-0.475000X-0.250000X0*%
%ADD26R,0.800000X0.900000*%
G04 APERTURE END LIST*
D10*
%TO.C,J1*%
X134899000Y-61234000D03*
D11*
X134899000Y-63774000D03*
%TD*%
D12*
%TO.C,D4*%
X131826000Y-57150000D03*
D13*
X129286000Y-57150000D03*
%TD*%
D10*
%TO.C,J2*%
X118745000Y-61214000D03*
D11*
X118745000Y-63754000D03*
%TD*%
D14*
%TO.C,BZ1*%
X134874000Y-46406000D03*
D15*
X134874000Y-49606000D03*
%TD*%
D16*
%TO.C,D1*%
X120142000Y-56106000D03*
X120142000Y-52606000D03*
%TD*%
D17*
%TO.C,RN2*%
X129978000Y-52440000D03*
D18*
X129178000Y-52440000D03*
X128378000Y-52440000D03*
D17*
X127578000Y-52440000D03*
X127578000Y-54240000D03*
D18*
X128378000Y-54240000D03*
X129178000Y-54240000D03*
D17*
X129978000Y-54240000D03*
%TD*%
%TO.C,RN1*%
X121482000Y-60336000D03*
D18*
X122282000Y-60336000D03*
X123082000Y-60336000D03*
D17*
X123882000Y-60336000D03*
X123882000Y-58536000D03*
D18*
X123082000Y-58536000D03*
X122282000Y-58536000D03*
D17*
X121482000Y-58536000D03*
%TD*%
D19*
%TO.C,JP2*%
X120336000Y-46482000D03*
D20*
X121636000Y-46482000D03*
D21*
X122936000Y-46482000D03*
%TD*%
D22*
%TO.C,REF2*%
X115697000Y-48133000D03*
%TD*%
D10*
%TO.C,J5*%
X129311000Y-61234000D03*
D11*
X129311000Y-63774000D03*
%TD*%
D10*
%TO.C,J4*%
X126492000Y-61214000D03*
D11*
X126492000Y-63754000D03*
%TD*%
D23*
%TO.C,Q1*%
X126705000Y-49514000D03*
X126705000Y-47614000D03*
X124705000Y-48564000D03*
%TD*%
D24*
%TO.C,D3*%
X122456000Y-56134000D03*
X125956000Y-56134000D03*
%TD*%
D25*
%TO.C,C4*%
X121666000Y-63942000D03*
X121666000Y-62042000D03*
%TD*%
D10*
%TO.C,J3*%
X132105000Y-61234000D03*
D11*
X132105000Y-63774000D03*
%TD*%
D24*
%TO.C,D5*%
X122456000Y-53873400D03*
X125956000Y-53873400D03*
%TD*%
D26*
%TO.C,Q2*%
X128286000Y-50886000D03*
X130186000Y-50886000D03*
X129236000Y-48886000D03*
%TD*%
D19*
%TO.C,JP1*%
X120336000Y-49022000D03*
D20*
X121636000Y-49022000D03*
D21*
X122936000Y-49022000D03*
%TD*%
D24*
%TO.C,D2*%
X122481400Y-51460400D03*
X125981400Y-51460400D03*
%TD*%
D25*
%TO.C,C5*%
X123698000Y-63942000D03*
X123698000Y-62042000D03*
%TD*%
D10*
%TO.C,J6*%
X134874000Y-53594000D03*
D11*
X134874000Y-56134000D03*
%TD*%
M02*
