%TF.GenerationSoftware,KiCad,Pcbnew,6.0.6-1.fc35*%
%TF.CreationDate,2022-07-18T21:23:53+02:00*%
%TF.ProjectId,lm324_4ch_therm,6c6d3332-345f-4346-9368-5f746865726d,rev?*%
%TF.SameCoordinates,Original*%
%TF.FileFunction,Copper,L1,Top*%
%TF.FilePolarity,Positive*%
%FSLAX46Y46*%
G04 Gerber Fmt 4.6, Leading zero omitted, Abs format (unit mm)*
G04 Created by KiCad (PCBNEW 6.0.6-1.fc35) date 2022-07-18 21:23:53*
%MOMM*%
%LPD*%
G01*
G04 APERTURE LIST*
G04 Aperture macros list*
%AMRoundRect*
0 Rectangle with rounded corners*
0 $1 Rounding radius*
0 $2 $3 $4 $5 $6 $7 $8 $9 X,Y pos of 4 corners*
0 Add a 4 corners polygon primitive as box body*
4,1,4,$2,$3,$4,$5,$6,$7,$8,$9,$2,$3,0*
0 Add four circle primitives for the rounded corners*
1,1,$1+$1,$2,$3*
1,1,$1+$1,$4,$5*
1,1,$1+$1,$6,$7*
1,1,$1+$1,$8,$9*
0 Add four rect primitives between the rounded corners*
20,1,$1+$1,$2,$3,$4,$5,0*
20,1,$1+$1,$4,$5,$6,$7,0*
20,1,$1+$1,$6,$7,$8,$9,0*
20,1,$1+$1,$8,$9,$2,$3,0*%
%AMFreePoly0*
4,1,22,0.550000,-0.750000,0.000000,-0.750000,0.000000,-0.745033,-0.079941,-0.743568,-0.215256,-0.701293,-0.333266,-0.622738,-0.424486,-0.514219,-0.481581,-0.384460,-0.499164,-0.250000,-0.500000,-0.250000,-0.500000,0.250000,-0.499164,0.250000,-0.499963,0.256109,-0.478152,0.396186,-0.417904,0.524511,-0.324060,0.630769,-0.204165,0.706417,-0.067858,0.745374,0.000000,0.744959,0.000000,0.750000,
0.550000,0.750000,0.550000,-0.750000,0.550000,-0.750000,$1*%
%AMFreePoly1*
4,1,20,0.000000,0.744959,0.073905,0.744508,0.209726,0.703889,0.328688,0.626782,0.421226,0.519385,0.479903,0.390333,0.500000,0.250000,0.500000,-0.250000,0.499851,-0.262216,0.476331,-0.402017,0.414519,-0.529596,0.319384,-0.634700,0.198574,-0.708877,0.061801,-0.746166,0.000000,-0.745033,0.000000,-0.750000,-0.550000,-0.750000,-0.550000,0.750000,0.000000,0.750000,0.000000,0.744959,
0.000000,0.744959,$1*%
G04 Aperture macros list end*
%TA.AperFunction,ComponentPad*%
%ADD10R,1.700000X1.700000*%
%TD*%
%TA.AperFunction,ComponentPad*%
%ADD11O,1.700000X1.700000*%
%TD*%
%TA.AperFunction,ComponentPad*%
%ADD12R,1.800000X1.800000*%
%TD*%
%TA.AperFunction,ComponentPad*%
%ADD13C,1.800000*%
%TD*%
%TA.AperFunction,ComponentPad*%
%ADD14R,1.600000X1.600000*%
%TD*%
%TA.AperFunction,ComponentPad*%
%ADD15C,1.600000*%
%TD*%
%TA.AperFunction,SMDPad,CuDef*%
%ADD16R,1.700000X1.300000*%
%TD*%
%TA.AperFunction,SMDPad,CuDef*%
%ADD17R,0.500000X0.800000*%
%TD*%
%TA.AperFunction,SMDPad,CuDef*%
%ADD18R,0.400000X0.800000*%
%TD*%
%TA.AperFunction,SMDPad,CuDef*%
%ADD19FreePoly0,0.000000*%
%TD*%
%TA.AperFunction,SMDPad,CuDef*%
%ADD20R,1.000000X1.500000*%
%TD*%
%TA.AperFunction,SMDPad,CuDef*%
%ADD21FreePoly1,0.000000*%
%TD*%
%TA.AperFunction,ComponentPad*%
%ADD22C,5.600000*%
%TD*%
%TA.AperFunction,SMDPad,CuDef*%
%ADD23R,0.900000X0.800000*%
%TD*%
%TA.AperFunction,SMDPad,CuDef*%
%ADD24R,1.300000X1.700000*%
%TD*%
%TA.AperFunction,SMDPad,CuDef*%
%ADD25RoundRect,0.250000X0.475000X-0.250000X0.475000X0.250000X-0.475000X0.250000X-0.475000X-0.250000X0*%
%TD*%
%TA.AperFunction,SMDPad,CuDef*%
%ADD26R,0.800000X0.900000*%
%TD*%
%TA.AperFunction,ViaPad*%
%ADD27C,0.800000*%
%TD*%
%TA.AperFunction,Conductor*%
%ADD28C,0.320000*%
%TD*%
%TA.AperFunction,Conductor*%
%ADD29C,0.250000*%
%TD*%
G04 APERTURE END LIST*
%TO.C,JP2*%
G36*
X121236000Y-46782000D02*
G01*
X120736000Y-46782000D01*
X120736000Y-46182000D01*
X121236000Y-46182000D01*
X121236000Y-46782000D01*
G37*
%TO.C,JP1*%
G36*
X121236000Y-49322000D02*
G01*
X120736000Y-49322000D01*
X120736000Y-48722000D01*
X121236000Y-48722000D01*
X121236000Y-49322000D01*
G37*
%TD*%
D10*
%TO.P,J1,1,Pin_1*%
%TO.N,Net-(J1-Pad1)*%
X134899000Y-61234000D03*
D11*
%TO.P,J1,2,Pin_2*%
%TO.N,GND*%
X134899000Y-63774000D03*
%TD*%
D12*
%TO.P,D4,1,K*%
%TO.N,GND*%
X131826000Y-57150000D03*
D13*
%TO.P,D4,2,A*%
%TO.N,Net-(D4-Pad2)*%
X129286000Y-57150000D03*
%TD*%
D10*
%TO.P,J2,1,Pin_1*%
%TO.N,+5V*%
X118745000Y-61214000D03*
D11*
%TO.P,J2,2,Pin_2*%
%TO.N,GND*%
X118745000Y-63754000D03*
%TD*%
D14*
%TO.P,BZ1,1,-*%
%TO.N,Net-(Q2-Pad3)*%
X134874000Y-46406000D03*
D15*
%TO.P,BZ1,2,+*%
%TO.N,GND*%
X134874000Y-49606000D03*
%TD*%
D16*
%TO.P,D1,1,K*%
%TO.N,Net-(U1-Pad1)*%
X120142000Y-56106000D03*
%TO.P,D1,2,A*%
%TO.N,Net-(D1-Pad2)*%
X120142000Y-52606000D03*
%TD*%
D17*
%TO.P,RN2,1,R1.1*%
%TO.N,Net-(D4-Pad2)*%
X129978000Y-52440000D03*
D18*
%TO.P,RN2,2,R2.1*%
%TO.N,Net-(Q2-Pad3)*%
X129178000Y-52440000D03*
%TO.P,RN2,3,R3.1*%
%TO.N,+5V*%
X128378000Y-52440000D03*
D17*
%TO.P,RN2,4,R4.1*%
%TO.N,Net-(Q2-Pad1)*%
X127578000Y-52440000D03*
%TO.P,RN2,5,R4.2*%
%TO.N,Net-(D1-Pad2)*%
X127578000Y-54240000D03*
D18*
%TO.P,RN2,6,R3.2*%
%TO.N,Net-(Q2-Pad1)*%
X128378000Y-54240000D03*
%TO.P,RN2,7,R2.2*%
%TO.N,Net-(Q1-Pad1)*%
X129178000Y-54240000D03*
D17*
%TO.P,RN2,8,R1.2*%
%TO.N,Net-(Q2-Pad3)*%
X129978000Y-54240000D03*
%TD*%
%TO.P,RN1,1,R1.1*%
%TO.N,Net-(U1-Pad3)*%
X121482000Y-60336000D03*
D18*
%TO.P,RN1,2,R2.1*%
%TO.N,Net-(U1-Pad5)*%
X122282000Y-60336000D03*
%TO.P,RN1,3,R3.1*%
%TO.N,Net-(U1-Pad10)*%
X123082000Y-60336000D03*
D17*
%TO.P,RN1,4,R4.1*%
%TO.N,Net-(J1-Pad1)*%
X123882000Y-60336000D03*
%TO.P,RN1,5,R4.2*%
%TO.N,+5V*%
X123882000Y-58536000D03*
D18*
%TO.P,RN1,6,R3.2*%
X123082000Y-58536000D03*
%TO.P,RN1,7,R2.2*%
X122282000Y-58536000D03*
D17*
%TO.P,RN1,8,R1.2*%
X121482000Y-58536000D03*
%TD*%
D19*
%TO.P,JP2,1,A*%
%TO.N,/ref1*%
X120336000Y-46482000D03*
D20*
%TO.P,JP2,2,C*%
%TO.N,Net-(U1-Pad6)*%
X121636000Y-46482000D03*
D21*
%TO.P,JP2,3,B*%
%TO.N,/ref2*%
X122936000Y-46482000D03*
%TD*%
D22*
%TO.P,REF2,1*%
%TO.N,N/C*%
X115697000Y-48133000D03*
%TD*%
D10*
%TO.P,J5,1,Pin_1*%
%TO.N,Net-(U1-Pad5)*%
X129311000Y-61234000D03*
D11*
%TO.P,J5,2,Pin_2*%
%TO.N,GND*%
X129311000Y-63774000D03*
%TD*%
D10*
%TO.P,J4,1,Pin_1*%
%TO.N,Net-(U1-Pad3)*%
X126492000Y-61214000D03*
D11*
%TO.P,J4,2,Pin_2*%
%TO.N,GND*%
X126492000Y-63754000D03*
%TD*%
D23*
%TO.P,Q1,1,B*%
%TO.N,Net-(Q1-Pad1)*%
X126705000Y-49514000D03*
%TO.P,Q1,2,E*%
%TO.N,GND*%
X126705000Y-47614000D03*
%TO.P,Q1,3,C*%
%TO.N,Net-(J6-Pad1)*%
X124705000Y-48564000D03*
%TD*%
D24*
%TO.P,D3,1,K*%
%TO.N,Net-(U1-Pad8)*%
X122456000Y-56134000D03*
%TO.P,D3,2,A*%
%TO.N,Net-(D1-Pad2)*%
X125956000Y-56134000D03*
%TD*%
D25*
%TO.P,C4,1*%
%TO.N,GND*%
X121666000Y-63942000D03*
%TO.P,C4,2*%
%TO.N,Net-(U1-Pad3)*%
X121666000Y-62042000D03*
%TD*%
D10*
%TO.P,J3,1,Pin_1*%
%TO.N,Net-(U1-Pad10)*%
X132105000Y-61234000D03*
D11*
%TO.P,J3,2,Pin_2*%
%TO.N,GND*%
X132105000Y-63774000D03*
%TD*%
D24*
%TO.P,D5,1,K*%
%TO.N,Net-(U1-Pad14)*%
X122456000Y-53873400D03*
%TO.P,D5,2,A*%
%TO.N,Net-(D1-Pad2)*%
X125956000Y-53873400D03*
%TD*%
D26*
%TO.P,Q2,1,B*%
%TO.N,Net-(Q2-Pad1)*%
X128286000Y-50886000D03*
%TO.P,Q2,2,E*%
%TO.N,+5V*%
X130186000Y-50886000D03*
%TO.P,Q2,3,C*%
%TO.N,Net-(Q2-Pad3)*%
X129236000Y-48886000D03*
%TD*%
D19*
%TO.P,JP1,1,A*%
%TO.N,/ref1*%
X120336000Y-49022000D03*
D20*
%TO.P,JP1,2,C*%
%TO.N,Net-(U1-Pad2)*%
X121636000Y-49022000D03*
D21*
%TO.P,JP1,3,B*%
%TO.N,/ref2*%
X122936000Y-49022000D03*
%TD*%
D24*
%TO.P,D2,1,K*%
%TO.N,Net-(U1-Pad7)*%
X122481400Y-51460400D03*
%TO.P,D2,2,A*%
%TO.N,Net-(D1-Pad2)*%
X125981400Y-51460400D03*
%TD*%
D25*
%TO.P,C5,1*%
%TO.N,GND*%
X123698000Y-63942000D03*
%TO.P,C5,2*%
%TO.N,Net-(U1-Pad5)*%
X123698000Y-62042000D03*
%TD*%
D10*
%TO.P,J6,1,Pin_1*%
%TO.N,Net-(J6-Pad1)*%
X134874000Y-53594000D03*
D11*
%TO.P,J6,2,Pin_2*%
%TO.N,GND*%
X134874000Y-56134000D03*
%TD*%
D27*
%TO.N,Net-(Q2-Pad3)*%
X131081000Y-49259000D03*
%TO.N,GND*%
X129397500Y-47381400D03*
%TO.N,+5V*%
X124425900Y-51421300D03*
%TO.N,Net-(J1-Pad1)*%
X131559500Y-59489400D03*
%TO.N,Net-(U1-Pad10)*%
X124829200Y-60293800D03*
%TO.N,Net-(U1-Pad3)*%
X120306600Y-62500600D03*
%TO.N,Net-(U1-Pad1)*%
X119634600Y-58514600D03*
%TO.N,Net-(U1-Pad7)*%
X123739300Y-50669300D03*
%TO.N,Net-(D4-Pad2)*%
X131140200Y-52425600D03*
%TO.N,Net-(U1-Pad8)*%
X123729000Y-56134000D03*
%TO.N,Net-(U1-Pad14)*%
X124587000Y-57658000D03*
%TO.N,Net-(J6-Pad1)*%
X132824300Y-46585900D03*
%TO.N,/ref1*%
X116996700Y-64736900D03*
X119737600Y-47722700D03*
%TO.N,Net-(U1-Pad2)*%
X119569100Y-57362900D03*
%TO.N,/ref2*%
X123713400Y-47752000D03*
%TO.N,Net-(U1-Pad6)*%
X118944600Y-45610500D03*
%TD*%
D28*
%TO.N,Net-(Q2-Pad3)*%
X129978000Y-54240000D02*
X129978000Y-53867000D01*
X131953000Y-50131000D02*
X131081000Y-49259000D01*
X130708000Y-48886000D02*
X131081000Y-49259000D01*
X129178000Y-52440000D02*
X129178000Y-53067000D01*
X129978000Y-54240000D02*
X130926000Y-54240000D01*
X129978000Y-53867000D02*
X129178000Y-53067000D01*
X129236000Y-48886000D02*
X130708000Y-48886000D01*
X131953000Y-53213000D02*
X131953000Y-50131000D01*
X130926000Y-54240000D02*
X131953000Y-53213000D01*
D29*
%TO.N,GND*%
X118745000Y-63754000D02*
X119920300Y-63754000D01*
X125904400Y-63754000D02*
X125316700Y-63754000D01*
X126705000Y-47614000D02*
X129164900Y-47614000D01*
X131699000Y-47625000D02*
X129641100Y-47625000D01*
X126492000Y-63754000D02*
X128115700Y-63754000D01*
X119920300Y-63754000D02*
X120108300Y-63942000D01*
X120108300Y-63942000D02*
X121666000Y-63942000D01*
X129641100Y-47625000D02*
X129397500Y-47381400D01*
X128115700Y-63754000D02*
X128135700Y-63774000D01*
X125128700Y-63942000D02*
X125316700Y-63754000D01*
X121666000Y-63942000D02*
X123698000Y-63942000D01*
X123698000Y-63942000D02*
X125128700Y-63942000D01*
X129164900Y-47614000D02*
X129397500Y-47381400D01*
X131826000Y-57150000D02*
X133858000Y-57150000D01*
X134899000Y-63774000D02*
X132105000Y-63774000D01*
X132105000Y-63774000D02*
X129311000Y-63774000D01*
X129311000Y-63774000D02*
X128135700Y-63774000D01*
%TO.N,+5V*%
X127279300Y-50253600D02*
X127494900Y-50038000D01*
X122282000Y-58536000D02*
X121482000Y-58536000D01*
X127494900Y-50038000D02*
X129338000Y-50038000D01*
D28*
X128854200Y-51689000D02*
X129657200Y-50886000D01*
X128378000Y-52089000D02*
X128778000Y-51689000D01*
D29*
X129338000Y-50038000D02*
X130186000Y-50886000D01*
X123082000Y-58536000D02*
X122282000Y-58536000D01*
D28*
X128378000Y-52440000D02*
X128378000Y-52089000D01*
D29*
X124425900Y-51124100D02*
X124425900Y-51421300D01*
D28*
X129657200Y-50886000D02*
X130186000Y-50886000D01*
D29*
X123882000Y-58536000D02*
X123082000Y-58536000D01*
X125296400Y-50253600D02*
X124425900Y-51124100D01*
X127279300Y-50253600D02*
X125296400Y-50253600D01*
X121423000Y-58536000D02*
X118745000Y-61214000D01*
D28*
X128778000Y-51689000D02*
X128854200Y-51689000D01*
%TO.N,Net-(J1-Pad1)*%
X134385700Y-61234000D02*
X132641100Y-59489400D01*
X123882000Y-59887000D02*
X124285600Y-59483400D01*
X123882000Y-60336000D02*
X123882000Y-59887000D01*
X134899000Y-61234000D02*
X134385700Y-61234000D01*
X131553500Y-59483400D02*
X131559500Y-59489400D01*
X124285600Y-59483400D02*
X131553500Y-59483400D01*
X132641100Y-59489400D02*
X131559500Y-59489400D01*
D29*
%TO.N,Net-(D1-Pad2)*%
X125450600Y-51460400D02*
X124256800Y-52654200D01*
X127578000Y-54240000D02*
X126348000Y-54240000D01*
X125984000Y-51562000D02*
X125984000Y-53820000D01*
X125956000Y-53848000D02*
X125956000Y-56134000D01*
X125981400Y-51460400D02*
X125450600Y-51460400D01*
X124256800Y-52654200D02*
X120190200Y-52654200D01*
D28*
%TO.N,Net-(U1-Pad10)*%
X123082000Y-60336000D02*
X123082000Y-60722200D01*
X123082000Y-60722200D02*
X123456200Y-61096400D01*
X124286600Y-61096400D02*
X124829200Y-60553800D01*
X132105000Y-61234000D02*
X131575500Y-61234000D01*
X123456200Y-61096400D02*
X124286600Y-61096400D01*
X130345200Y-60003700D02*
X125119300Y-60003700D01*
X125119300Y-60003700D02*
X124829200Y-60293800D01*
X124829200Y-60553800D02*
X124829200Y-60293800D01*
X131575500Y-61234000D02*
X130345200Y-60003700D01*
%TO.N,Net-(U1-Pad3)*%
X120765200Y-62042000D02*
X120306600Y-62500600D01*
X121666000Y-62042000D02*
X120765200Y-62042000D01*
X121482000Y-60336000D02*
X121482000Y-61858000D01*
%TO.N,Net-(U1-Pad5)*%
X122282000Y-60336000D02*
X122282000Y-60658100D01*
X127505600Y-62424400D02*
X125154600Y-62424400D01*
X129311000Y-61234000D02*
X128696000Y-61234000D01*
X128696000Y-61234000D02*
X127505600Y-62424400D01*
X124772200Y-62042000D02*
X125154600Y-62424400D01*
X122282000Y-60658100D02*
X123665900Y-62042000D01*
X123698000Y-62042000D02*
X124772200Y-62042000D01*
%TO.N,Net-(U1-Pad1)*%
X120390200Y-57759000D02*
X119634600Y-58514600D01*
X120390200Y-56354200D02*
X120390200Y-57759000D01*
%TO.N,Net-(U1-Pad7)*%
X122948200Y-51460400D02*
X123739300Y-50669300D01*
X122481400Y-51460400D02*
X122948200Y-51460400D01*
D29*
%TO.N,Net-(D4-Pad2)*%
X131140200Y-52425600D02*
X131326700Y-52440000D01*
X131326700Y-52440000D02*
X129978000Y-52440000D01*
D28*
%TO.N,Net-(U1-Pad8)*%
X122456000Y-56134000D02*
X123466300Y-56134000D01*
X123466300Y-56134000D02*
X123729000Y-56134000D01*
D29*
%TO.N,Net-(Q1-Pad1)*%
X131038600Y-48107600D02*
X131159300Y-48228300D01*
X131342900Y-54965300D02*
X129514300Y-54965300D01*
X132811700Y-53496500D02*
X131342900Y-54965300D01*
X131159300Y-48228300D02*
X131159300Y-48237600D01*
X132811700Y-49890000D02*
X132811700Y-53496500D01*
X129178000Y-54629000D02*
X129514300Y-54965300D01*
X126705000Y-49514000D02*
X128111400Y-48107600D01*
X128111400Y-48107600D02*
X131038600Y-48107600D01*
X131159300Y-48237600D02*
X132811700Y-49890000D01*
X129178000Y-54240000D02*
X129178000Y-54629000D01*
D28*
%TO.N,Net-(U1-Pad14)*%
X123596400Y-53873400D02*
X122456000Y-53873400D01*
X124587000Y-54864000D02*
X123596400Y-53873400D01*
X124587000Y-57658000D02*
X124587000Y-54864000D01*
%TO.N,Net-(J6-Pad1)*%
X124705000Y-48564000D02*
X124705000Y-47803700D01*
X124705000Y-47803700D02*
X125922800Y-46585900D01*
X125922800Y-46585900D02*
X132824300Y-46585900D01*
%TO.N,/ref1*%
X120336000Y-46482000D02*
X120336000Y-47722700D01*
X116996700Y-52361300D02*
X116996700Y-64736900D01*
X120336000Y-47722700D02*
X120336000Y-49022000D01*
X120336000Y-47722700D02*
X119737600Y-47722700D01*
X120336000Y-49022000D02*
X116996700Y-52361300D01*
%TO.N,Net-(U1-Pad2)*%
X119300200Y-57362900D02*
X118915100Y-56977800D01*
X118915100Y-51812300D02*
X120595100Y-50132300D01*
X121636000Y-49022000D02*
X121636000Y-49687000D01*
X118915100Y-56977800D02*
X118915100Y-51812300D01*
X120595100Y-50132300D02*
X121190700Y-50132300D01*
X121636000Y-49687000D02*
X121190700Y-50132300D01*
X119569100Y-57362900D02*
X119300200Y-57362900D01*
%TO.N,/ref2*%
X122936000Y-47752000D02*
X123713400Y-47752000D01*
X122936000Y-47752000D02*
X122936000Y-49022000D01*
X122936000Y-46482000D02*
X122936000Y-47752000D01*
%TO.N,Net-(U1-Pad6)*%
X119183400Y-45371700D02*
X118944600Y-45610500D01*
X121636000Y-45755400D02*
X121252300Y-45371700D01*
X121252300Y-45371700D02*
X119183400Y-45371700D01*
X121636000Y-46482000D02*
X121636000Y-45755400D01*
%TO.N,Net-(Q2-Pad1)*%
X127578000Y-51746000D02*
X127578000Y-52440000D01*
X127578000Y-52820100D02*
X127578000Y-52440000D01*
X128286000Y-50886000D02*
X128286000Y-51038000D01*
X128286000Y-51038000D02*
X127578000Y-51746000D01*
X128378000Y-53620100D02*
X127578000Y-52820100D01*
X128378000Y-54240000D02*
X128378000Y-53620100D01*
%TD*%
%TA.AperFunction,Conductor*%
%TO.N,GND*%
G36*
X136514691Y-45327407D02*
G01*
X136550655Y-45376907D01*
X136555500Y-45407500D01*
X136555500Y-65209500D01*
X136536593Y-65267691D01*
X136487093Y-65303655D01*
X136456500Y-65308500D01*
X117702660Y-65308500D01*
X117644469Y-65289593D01*
X117608505Y-65240093D01*
X117608505Y-65178907D01*
X117620201Y-65154714D01*
X117665368Y-65086733D01*
X117668431Y-65082123D01*
X117702937Y-64991285D01*
X117726256Y-64929897D01*
X117726257Y-64929894D01*
X117728221Y-64924723D01*
X117739848Y-64842000D01*
X117751221Y-64761077D01*
X117751221Y-64761075D01*
X117751655Y-64757988D01*
X117751867Y-64758018D01*
X117774681Y-64702677D01*
X117826796Y-64670620D01*
X117887801Y-64675317D01*
X117920074Y-64696841D01*
X117935392Y-64712159D01*
X117941987Y-64717692D01*
X118114067Y-64838185D01*
X118121537Y-64842497D01*
X118311922Y-64931275D01*
X118320015Y-64934221D01*
X118522944Y-64988595D01*
X118531412Y-64990088D01*
X118579379Y-64994285D01*
X118592377Y-64991285D01*
X118594313Y-64989057D01*
X118595000Y-64985682D01*
X118595000Y-64979972D01*
X118895000Y-64979972D01*
X118899122Y-64992657D01*
X118901511Y-64994393D01*
X118904932Y-64994783D01*
X118958588Y-64990088D01*
X118967056Y-64988595D01*
X119169985Y-64934221D01*
X119178078Y-64931275D01*
X119368463Y-64842497D01*
X119375933Y-64838185D01*
X119548013Y-64717692D01*
X119554608Y-64712159D01*
X119703159Y-64563608D01*
X119708692Y-64557013D01*
X119829185Y-64384932D01*
X119833497Y-64377462D01*
X119890280Y-64255692D01*
X120541000Y-64255692D01*
X120541153Y-64259584D01*
X120543503Y-64289449D01*
X120545311Y-64299349D01*
X120587980Y-64446216D01*
X120592890Y-64457561D01*
X120670144Y-64588191D01*
X120677721Y-64597960D01*
X120785040Y-64705279D01*
X120794809Y-64712856D01*
X120925439Y-64790110D01*
X120936784Y-64795020D01*
X121083651Y-64837689D01*
X121093551Y-64839497D01*
X121123416Y-64841847D01*
X121127308Y-64842000D01*
X121500320Y-64842000D01*
X121513005Y-64837878D01*
X121516000Y-64833757D01*
X121516000Y-64826320D01*
X121816000Y-64826320D01*
X121820122Y-64839005D01*
X121824243Y-64842000D01*
X122204692Y-64842000D01*
X122208584Y-64841847D01*
X122238449Y-64839497D01*
X122248349Y-64837689D01*
X122395216Y-64795020D01*
X122406561Y-64790110D01*
X122537191Y-64712856D01*
X122546960Y-64705279D01*
X122611996Y-64640243D01*
X122666513Y-64612466D01*
X122726945Y-64622037D01*
X122752004Y-64640243D01*
X122817040Y-64705279D01*
X122826809Y-64712856D01*
X122957439Y-64790110D01*
X122968784Y-64795020D01*
X123115651Y-64837689D01*
X123125551Y-64839497D01*
X123155416Y-64841847D01*
X123159308Y-64842000D01*
X123532320Y-64842000D01*
X123545005Y-64837878D01*
X123548000Y-64833757D01*
X123548000Y-64826320D01*
X123848000Y-64826320D01*
X123852122Y-64839005D01*
X123856243Y-64842000D01*
X124236692Y-64842000D01*
X124240584Y-64841847D01*
X124270449Y-64839497D01*
X124280349Y-64837689D01*
X124427216Y-64795020D01*
X124438561Y-64790110D01*
X124569191Y-64712856D01*
X124578960Y-64705279D01*
X124686279Y-64597960D01*
X124693856Y-64588191D01*
X124771110Y-64457561D01*
X124776020Y-64446216D01*
X124818689Y-64299349D01*
X124820497Y-64289449D01*
X124822847Y-64259584D01*
X124823000Y-64255692D01*
X124823000Y-64107680D01*
X124818878Y-64094995D01*
X124814757Y-64092000D01*
X123863680Y-64092000D01*
X123850995Y-64096122D01*
X123848000Y-64100243D01*
X123848000Y-64826320D01*
X123548000Y-64826320D01*
X123548000Y-64107680D01*
X123543878Y-64094995D01*
X123539757Y-64092000D01*
X121831680Y-64092000D01*
X121818995Y-64096122D01*
X121816000Y-64100243D01*
X121816000Y-64826320D01*
X121516000Y-64826320D01*
X121516000Y-64107680D01*
X121511878Y-64094995D01*
X121507757Y-64092000D01*
X120556680Y-64092000D01*
X120543995Y-64096122D01*
X120541000Y-64100243D01*
X120541000Y-64255692D01*
X119890280Y-64255692D01*
X119922275Y-64187078D01*
X119925221Y-64178985D01*
X119979595Y-63976056D01*
X119981088Y-63967588D01*
X119985285Y-63919621D01*
X119983972Y-63913932D01*
X125251217Y-63913932D01*
X125255912Y-63967588D01*
X125257405Y-63976056D01*
X125311779Y-64178985D01*
X125314725Y-64187078D01*
X125403503Y-64377462D01*
X125407815Y-64384932D01*
X125528308Y-64557013D01*
X125533841Y-64563608D01*
X125682392Y-64712159D01*
X125688987Y-64717692D01*
X125861067Y-64838185D01*
X125868537Y-64842497D01*
X126058922Y-64931275D01*
X126067015Y-64934221D01*
X126269944Y-64988595D01*
X126278412Y-64990088D01*
X126326379Y-64994285D01*
X126339377Y-64991285D01*
X126341313Y-64989057D01*
X126342000Y-64985682D01*
X126342000Y-64979972D01*
X126642000Y-64979972D01*
X126646122Y-64992657D01*
X126648511Y-64994393D01*
X126651932Y-64994783D01*
X126705588Y-64990088D01*
X126714056Y-64988595D01*
X126916985Y-64934221D01*
X126925078Y-64931275D01*
X127115463Y-64842497D01*
X127122933Y-64838185D01*
X127295013Y-64717692D01*
X127301608Y-64712159D01*
X127450159Y-64563608D01*
X127455692Y-64557013D01*
X127576185Y-64384932D01*
X127580497Y-64377462D01*
X127669275Y-64187078D01*
X127672221Y-64178985D01*
X127726595Y-63976056D01*
X127728088Y-63967588D01*
X127731033Y-63933932D01*
X128070217Y-63933932D01*
X128074912Y-63987588D01*
X128076405Y-63996056D01*
X128130779Y-64198985D01*
X128133725Y-64207078D01*
X128222503Y-64397462D01*
X128226815Y-64404932D01*
X128347308Y-64577013D01*
X128352841Y-64583608D01*
X128501392Y-64732159D01*
X128507987Y-64737692D01*
X128680067Y-64858185D01*
X128687537Y-64862497D01*
X128877922Y-64951275D01*
X128886015Y-64954221D01*
X129088944Y-65008595D01*
X129097412Y-65010088D01*
X129145379Y-65014285D01*
X129158377Y-65011285D01*
X129160313Y-65009057D01*
X129161000Y-65005682D01*
X129161000Y-64999972D01*
X129461000Y-64999972D01*
X129465122Y-65012657D01*
X129467511Y-65014393D01*
X129470932Y-65014783D01*
X129524588Y-65010088D01*
X129533056Y-65008595D01*
X129735985Y-64954221D01*
X129744078Y-64951275D01*
X129934463Y-64862497D01*
X129941933Y-64858185D01*
X130114013Y-64737692D01*
X130120608Y-64732159D01*
X130269159Y-64583608D01*
X130274692Y-64577013D01*
X130395185Y-64404932D01*
X130399497Y-64397462D01*
X130488275Y-64207078D01*
X130491221Y-64198985D01*
X130545595Y-63996056D01*
X130547088Y-63987588D01*
X130551285Y-63939621D01*
X130549972Y-63933932D01*
X130864217Y-63933932D01*
X130868912Y-63987588D01*
X130870405Y-63996056D01*
X130924779Y-64198985D01*
X130927725Y-64207078D01*
X131016503Y-64397462D01*
X131020815Y-64404932D01*
X131141308Y-64577013D01*
X131146841Y-64583608D01*
X131295392Y-64732159D01*
X131301987Y-64737692D01*
X131474067Y-64858185D01*
X131481537Y-64862497D01*
X131671922Y-64951275D01*
X131680015Y-64954221D01*
X131882944Y-65008595D01*
X131891412Y-65010088D01*
X131939379Y-65014285D01*
X131952377Y-65011285D01*
X131954313Y-65009057D01*
X131955000Y-65005682D01*
X131955000Y-64999972D01*
X132255000Y-64999972D01*
X132259122Y-65012657D01*
X132261511Y-65014393D01*
X132264932Y-65014783D01*
X132318588Y-65010088D01*
X132327056Y-65008595D01*
X132529985Y-64954221D01*
X132538078Y-64951275D01*
X132728463Y-64862497D01*
X132735933Y-64858185D01*
X132908013Y-64737692D01*
X132914608Y-64732159D01*
X133063159Y-64583608D01*
X133068692Y-64577013D01*
X133189185Y-64404932D01*
X133193497Y-64397462D01*
X133282275Y-64207078D01*
X133285221Y-64198985D01*
X133339595Y-63996056D01*
X133341088Y-63987588D01*
X133345285Y-63939621D01*
X133343972Y-63933932D01*
X133658217Y-63933932D01*
X133662912Y-63987588D01*
X133664405Y-63996056D01*
X133718779Y-64198985D01*
X133721725Y-64207078D01*
X133810503Y-64397462D01*
X133814815Y-64404932D01*
X133935308Y-64577013D01*
X133940841Y-64583608D01*
X134089392Y-64732159D01*
X134095987Y-64737692D01*
X134268067Y-64858185D01*
X134275537Y-64862497D01*
X134465922Y-64951275D01*
X134474015Y-64954221D01*
X134676944Y-65008595D01*
X134685412Y-65010088D01*
X134733379Y-65014285D01*
X134746377Y-65011285D01*
X134748313Y-65009057D01*
X134749000Y-65005682D01*
X134749000Y-64999972D01*
X135049000Y-64999972D01*
X135053122Y-65012657D01*
X135055511Y-65014393D01*
X135058932Y-65014783D01*
X135112588Y-65010088D01*
X135121056Y-65008595D01*
X135323985Y-64954221D01*
X135332078Y-64951275D01*
X135522463Y-64862497D01*
X135529933Y-64858185D01*
X135702013Y-64737692D01*
X135708608Y-64732159D01*
X135857159Y-64583608D01*
X135862692Y-64577013D01*
X135983185Y-64404932D01*
X135987497Y-64397462D01*
X136076275Y-64207078D01*
X136079221Y-64198985D01*
X136133595Y-63996056D01*
X136135088Y-63987588D01*
X136139285Y-63939621D01*
X136136285Y-63926623D01*
X136134057Y-63924687D01*
X136130682Y-63924000D01*
X135064680Y-63924000D01*
X135051995Y-63928122D01*
X135049000Y-63932243D01*
X135049000Y-64999972D01*
X134749000Y-64999972D01*
X134749000Y-63939680D01*
X134744878Y-63926995D01*
X134740757Y-63924000D01*
X133673028Y-63924000D01*
X133660343Y-63928122D01*
X133658607Y-63930511D01*
X133658217Y-63933932D01*
X133343972Y-63933932D01*
X133342285Y-63926623D01*
X133340057Y-63924687D01*
X133336682Y-63924000D01*
X132270680Y-63924000D01*
X132257995Y-63928122D01*
X132255000Y-63932243D01*
X132255000Y-64999972D01*
X131955000Y-64999972D01*
X131955000Y-63939680D01*
X131950878Y-63926995D01*
X131946757Y-63924000D01*
X130879028Y-63924000D01*
X130866343Y-63928122D01*
X130864607Y-63930511D01*
X130864217Y-63933932D01*
X130549972Y-63933932D01*
X130548285Y-63926623D01*
X130546057Y-63924687D01*
X130542682Y-63924000D01*
X129476680Y-63924000D01*
X129463995Y-63928122D01*
X129461000Y-63932243D01*
X129461000Y-64999972D01*
X129161000Y-64999972D01*
X129161000Y-63939680D01*
X129156878Y-63926995D01*
X129152757Y-63924000D01*
X128085028Y-63924000D01*
X128072343Y-63928122D01*
X128070607Y-63930511D01*
X128070217Y-63933932D01*
X127731033Y-63933932D01*
X127732285Y-63919621D01*
X127729285Y-63906623D01*
X127727057Y-63904687D01*
X127723682Y-63904000D01*
X126657680Y-63904000D01*
X126644995Y-63908122D01*
X126642000Y-63912243D01*
X126642000Y-64979972D01*
X126342000Y-64979972D01*
X126342000Y-63919680D01*
X126337878Y-63906995D01*
X126333757Y-63904000D01*
X125266028Y-63904000D01*
X125253343Y-63908122D01*
X125251607Y-63910511D01*
X125251217Y-63913932D01*
X119983972Y-63913932D01*
X119982285Y-63906623D01*
X119980057Y-63904687D01*
X119976682Y-63904000D01*
X118910680Y-63904000D01*
X118897995Y-63908122D01*
X118895000Y-63912243D01*
X118895000Y-64979972D01*
X118595000Y-64979972D01*
X118595000Y-63703000D01*
X118613907Y-63644809D01*
X118663407Y-63608845D01*
X118694000Y-63604000D01*
X119970972Y-63604000D01*
X119983657Y-63599878D01*
X119985393Y-63597489D01*
X119985783Y-63594068D01*
X119981088Y-63540412D01*
X119979595Y-63531944D01*
X119924426Y-63326046D01*
X119927629Y-63264944D01*
X119966134Y-63217394D01*
X120025235Y-63201559D01*
X120054558Y-63207631D01*
X120123889Y-63233415D01*
X120129381Y-63234148D01*
X120129382Y-63234148D01*
X120201400Y-63243757D01*
X120290783Y-63255683D01*
X120296289Y-63255182D01*
X120296291Y-63255182D01*
X120452953Y-63240925D01*
X120452957Y-63240924D01*
X120458464Y-63240423D01*
X120463725Y-63238714D01*
X120463733Y-63238712D01*
X120511869Y-63223071D01*
X120573054Y-63223070D01*
X120622554Y-63259034D01*
X120641462Y-63317224D01*
X120627676Y-63367620D01*
X120592887Y-63426445D01*
X120587980Y-63437784D01*
X120545311Y-63584651D01*
X120543503Y-63594551D01*
X120541153Y-63624416D01*
X120541000Y-63628308D01*
X120541000Y-63776320D01*
X120545122Y-63789005D01*
X120549243Y-63792000D01*
X124807320Y-63792000D01*
X124820005Y-63787878D01*
X124823000Y-63783757D01*
X124823000Y-63628308D01*
X124822847Y-63624416D01*
X124820497Y-63594551D01*
X124818689Y-63584651D01*
X124776020Y-63437784D01*
X124771110Y-63426439D01*
X124693856Y-63295809D01*
X124686279Y-63286040D01*
X124578960Y-63178721D01*
X124569191Y-63171144D01*
X124438561Y-63093890D01*
X124427216Y-63088980D01*
X124339898Y-63063612D01*
X124289293Y-63029221D01*
X124268567Y-62971653D01*
X124285637Y-62912897D01*
X124330272Y-62878275D01*
X124329762Y-62877044D01*
X124393118Y-62850801D01*
X124475841Y-62816536D01*
X124601282Y-62720282D01*
X124602508Y-62721880D01*
X124648836Y-62698285D01*
X124709266Y-62707868D01*
X124734309Y-62726065D01*
X124745341Y-62737097D01*
X124753749Y-62747621D01*
X124758071Y-62752699D01*
X124761837Y-62758668D01*
X124767127Y-62763340D01*
X124802969Y-62794995D01*
X124807438Y-62799194D01*
X124819544Y-62811300D01*
X124822359Y-62813410D01*
X124822372Y-62813421D01*
X124828825Y-62818257D01*
X124834986Y-62823272D01*
X124871441Y-62855468D01*
X124877823Y-62858464D01*
X124877827Y-62858467D01*
X124881096Y-62860002D01*
X124898389Y-62870393D01*
X124901278Y-62872558D01*
X124901285Y-62872562D01*
X124906924Y-62876788D01*
X124952466Y-62893861D01*
X124959786Y-62896946D01*
X124997427Y-62914618D01*
X124997429Y-62914619D01*
X125003809Y-62917614D01*
X125014351Y-62919256D01*
X125033860Y-62924374D01*
X125037247Y-62925644D01*
X125037249Y-62925644D01*
X125043850Y-62928119D01*
X125092357Y-62931723D01*
X125100226Y-62932626D01*
X125114826Y-62934900D01*
X125131432Y-62934900D01*
X125138769Y-62935172D01*
X125189679Y-62938955D01*
X125196574Y-62937483D01*
X125196576Y-62937483D01*
X125198458Y-62937081D01*
X125219125Y-62934900D01*
X125349395Y-62934900D01*
X125407586Y-62953807D01*
X125443550Y-63003307D01*
X125443550Y-63064493D01*
X125430491Y-63090684D01*
X125407815Y-63123068D01*
X125403503Y-63130538D01*
X125314725Y-63320922D01*
X125311779Y-63329015D01*
X125257405Y-63531944D01*
X125255912Y-63540412D01*
X125251715Y-63588379D01*
X125254715Y-63601377D01*
X125256943Y-63603313D01*
X125260318Y-63604000D01*
X127717972Y-63604000D01*
X127730657Y-63599878D01*
X127732393Y-63597489D01*
X127732783Y-63594068D01*
X127728088Y-63540412D01*
X127726595Y-63531944D01*
X127672221Y-63329015D01*
X127669275Y-63320922D01*
X127580497Y-63130538D01*
X127576184Y-63123068D01*
X127547735Y-63082437D01*
X127529846Y-63023925D01*
X127549766Y-62966073D01*
X127599887Y-62930979D01*
X127604557Y-62929784D01*
X127610187Y-62929435D01*
X127616819Y-62927041D01*
X127616822Y-62927040D01*
X127620211Y-62925816D01*
X127639801Y-62920931D01*
X127640611Y-62920815D01*
X127650354Y-62919420D01*
X127656772Y-62916502D01*
X127656775Y-62916501D01*
X127694635Y-62899287D01*
X127701994Y-62896291D01*
X127712498Y-62892499D01*
X127747730Y-62879780D01*
X127753426Y-62875619D01*
X127753431Y-62875616D01*
X127756338Y-62873492D01*
X127773763Y-62863309D01*
X127777051Y-62861814D01*
X127777052Y-62861814D01*
X127783471Y-62858895D01*
X127791304Y-62852146D01*
X127820316Y-62827147D01*
X127826540Y-62822206D01*
X127835366Y-62815758D01*
X127835367Y-62815757D01*
X127838454Y-62813502D01*
X127850203Y-62801753D01*
X127855584Y-62796758D01*
X127888906Y-62768046D01*
X127888907Y-62768045D01*
X127894250Y-62763441D01*
X127898085Y-62757524D01*
X127898087Y-62757522D01*
X127899130Y-62755912D01*
X127912202Y-62739754D01*
X128220800Y-62431156D01*
X128275317Y-62403379D01*
X128334280Y-62412217D01*
X128359482Y-62424536D01*
X128367084Y-62425645D01*
X128367087Y-62425646D01*
X128424237Y-62433983D01*
X128424239Y-62433983D01*
X128427782Y-62434500D01*
X128779256Y-62434500D01*
X128837447Y-62453407D01*
X128873411Y-62502907D01*
X128873411Y-62564093D01*
X128837447Y-62613593D01*
X128821095Y-62623224D01*
X128687538Y-62685503D01*
X128680068Y-62689815D01*
X128507987Y-62810308D01*
X128501392Y-62815841D01*
X128352841Y-62964392D01*
X128347308Y-62970987D01*
X128226815Y-63143068D01*
X128222503Y-63150538D01*
X128133725Y-63340922D01*
X128130779Y-63349015D01*
X128076405Y-63551944D01*
X128074912Y-63560412D01*
X128070715Y-63608379D01*
X128073715Y-63621377D01*
X128075943Y-63623313D01*
X128079318Y-63624000D01*
X130536972Y-63624000D01*
X130549657Y-63619878D01*
X130551393Y-63617489D01*
X130551783Y-63614068D01*
X130547088Y-63560412D01*
X130545595Y-63551944D01*
X130491221Y-63349015D01*
X130488275Y-63340922D01*
X130399497Y-63150538D01*
X130395185Y-63143068D01*
X130274692Y-62970987D01*
X130269159Y-62964392D01*
X130120608Y-62815841D01*
X130114013Y-62810308D01*
X129941933Y-62689815D01*
X129934463Y-62685503D01*
X129800906Y-62623224D01*
X129756158Y-62581496D01*
X129744483Y-62521435D01*
X129770341Y-62465982D01*
X129823855Y-62436319D01*
X129842745Y-62434500D01*
X130194218Y-62434500D01*
X130197801Y-62433972D01*
X130197808Y-62433972D01*
X130255499Y-62425479D01*
X130255501Y-62425478D01*
X130263112Y-62424358D01*
X130283191Y-62414500D01*
X130310359Y-62401161D01*
X130367855Y-62372932D01*
X130450293Y-62290350D01*
X130501536Y-62185518D01*
X130502645Y-62177916D01*
X130502646Y-62177913D01*
X130510983Y-62120763D01*
X130510983Y-62120761D01*
X130511500Y-62117218D01*
X130511500Y-61130964D01*
X130530407Y-61072773D01*
X130579907Y-61036809D01*
X130641093Y-61036809D01*
X130680504Y-61060960D01*
X130875504Y-61255960D01*
X130903281Y-61310477D01*
X130904500Y-61325964D01*
X130904500Y-62117218D01*
X130905028Y-62120801D01*
X130905028Y-62120808D01*
X130913435Y-62177913D01*
X130914642Y-62186112D01*
X130966068Y-62290855D01*
X131048650Y-62373293D01*
X131153482Y-62424536D01*
X131161084Y-62425645D01*
X131161087Y-62425646D01*
X131218237Y-62433983D01*
X131218239Y-62433983D01*
X131221782Y-62434500D01*
X131573256Y-62434500D01*
X131631447Y-62453407D01*
X131667411Y-62502907D01*
X131667411Y-62564093D01*
X131631447Y-62613593D01*
X131615095Y-62623224D01*
X131481538Y-62685503D01*
X131474068Y-62689815D01*
X131301987Y-62810308D01*
X131295392Y-62815841D01*
X131146841Y-62964392D01*
X131141308Y-62970987D01*
X131020815Y-63143068D01*
X131016503Y-63150538D01*
X130927725Y-63340922D01*
X130924779Y-63349015D01*
X130870405Y-63551944D01*
X130868912Y-63560412D01*
X130864715Y-63608379D01*
X130867715Y-63621377D01*
X130869943Y-63623313D01*
X130873318Y-63624000D01*
X133330972Y-63624000D01*
X133343657Y-63619878D01*
X133345393Y-63617489D01*
X133345783Y-63614068D01*
X133341088Y-63560412D01*
X133339595Y-63551944D01*
X133285221Y-63349015D01*
X133282275Y-63340922D01*
X133193497Y-63150538D01*
X133189185Y-63143068D01*
X133068692Y-62970987D01*
X133063159Y-62964392D01*
X132914608Y-62815841D01*
X132908013Y-62810308D01*
X132735933Y-62689815D01*
X132728463Y-62685503D01*
X132594906Y-62623224D01*
X132550158Y-62581496D01*
X132538483Y-62521435D01*
X132564341Y-62465982D01*
X132617855Y-62436319D01*
X132636745Y-62434500D01*
X132988218Y-62434500D01*
X132991801Y-62433972D01*
X132991808Y-62433972D01*
X133049499Y-62425479D01*
X133049501Y-62425478D01*
X133057112Y-62424358D01*
X133077191Y-62414500D01*
X133104359Y-62401161D01*
X133161855Y-62372932D01*
X133244293Y-62290350D01*
X133295536Y-62185518D01*
X133296645Y-62177916D01*
X133296646Y-62177913D01*
X133304983Y-62120763D01*
X133304983Y-62120761D01*
X133305500Y-62117218D01*
X133305500Y-61114764D01*
X133324407Y-61056573D01*
X133373907Y-61020609D01*
X133435093Y-61020609D01*
X133474504Y-61044760D01*
X133669504Y-61239760D01*
X133697281Y-61294277D01*
X133698500Y-61309764D01*
X133698500Y-62117218D01*
X133699028Y-62120801D01*
X133699028Y-62120808D01*
X133707435Y-62177913D01*
X133708642Y-62186112D01*
X133760068Y-62290855D01*
X133842650Y-62373293D01*
X133947482Y-62424536D01*
X133955084Y-62425645D01*
X133955087Y-62425646D01*
X134012237Y-62433983D01*
X134012239Y-62433983D01*
X134015782Y-62434500D01*
X134367256Y-62434500D01*
X134425447Y-62453407D01*
X134461411Y-62502907D01*
X134461411Y-62564093D01*
X134425447Y-62613593D01*
X134409095Y-62623224D01*
X134275538Y-62685503D01*
X134268068Y-62689815D01*
X134095987Y-62810308D01*
X134089392Y-62815841D01*
X133940841Y-62964392D01*
X133935308Y-62970987D01*
X133814815Y-63143068D01*
X133810503Y-63150538D01*
X133721725Y-63340922D01*
X133718779Y-63349015D01*
X133664405Y-63551944D01*
X133662912Y-63560412D01*
X133658715Y-63608379D01*
X133661715Y-63621377D01*
X133663943Y-63623313D01*
X133667318Y-63624000D01*
X136124972Y-63624000D01*
X136137657Y-63619878D01*
X136139393Y-63617489D01*
X136139783Y-63614068D01*
X136135088Y-63560412D01*
X136133595Y-63551944D01*
X136079221Y-63349015D01*
X136076275Y-63340922D01*
X135987497Y-63150538D01*
X135983185Y-63143068D01*
X135862692Y-62970987D01*
X135857159Y-62964392D01*
X135708608Y-62815841D01*
X135702013Y-62810308D01*
X135529933Y-62689815D01*
X135522463Y-62685503D01*
X135388906Y-62623224D01*
X135344158Y-62581496D01*
X135332483Y-62521435D01*
X135358341Y-62465982D01*
X135411855Y-62436319D01*
X135430745Y-62434500D01*
X135782218Y-62434500D01*
X135785801Y-62433972D01*
X135785808Y-62433972D01*
X135843499Y-62425479D01*
X135843501Y-62425478D01*
X135851112Y-62424358D01*
X135871191Y-62414500D01*
X135898359Y-62401161D01*
X135955855Y-62372932D01*
X136038293Y-62290350D01*
X136089536Y-62185518D01*
X136090645Y-62177916D01*
X136090646Y-62177913D01*
X136098983Y-62120763D01*
X136098983Y-62120761D01*
X136099500Y-62117218D01*
X136099500Y-60350782D01*
X136089358Y-60281888D01*
X136037932Y-60177145D01*
X135955350Y-60094707D01*
X135850518Y-60043464D01*
X135842916Y-60042355D01*
X135842913Y-60042354D01*
X135785763Y-60034017D01*
X135785761Y-60034017D01*
X135782218Y-60033500D01*
X134015782Y-60033500D01*
X133991053Y-60037140D01*
X133970329Y-60040191D01*
X133910005Y-60029961D01*
X133885907Y-60012251D01*
X133050359Y-59176703D01*
X133041951Y-59166179D01*
X133037629Y-59161101D01*
X133033863Y-59155132D01*
X132992732Y-59118805D01*
X132988262Y-59114606D01*
X132976155Y-59102499D01*
X132966876Y-59095545D01*
X132960712Y-59090526D01*
X132929548Y-59063003D01*
X132929547Y-59063002D01*
X132924259Y-59058332D01*
X132917880Y-59055337D01*
X132917878Y-59055336D01*
X132916279Y-59054586D01*
X132914605Y-59053800D01*
X132897307Y-59043405D01*
X132888775Y-59037011D01*
X132882169Y-59034535D01*
X132882168Y-59034534D01*
X132843240Y-59019941D01*
X132835917Y-59016856D01*
X132798276Y-58999183D01*
X132798272Y-58999182D01*
X132791891Y-58996186D01*
X132781349Y-58994544D01*
X132761840Y-58989426D01*
X132758453Y-58988156D01*
X132758451Y-58988156D01*
X132751850Y-58985681D01*
X132703343Y-58982077D01*
X132695474Y-58981174D01*
X132680874Y-58978900D01*
X132664268Y-58978900D01*
X132656932Y-58978628D01*
X132653227Y-58978353D01*
X132606021Y-58974845D01*
X132599126Y-58976317D01*
X132599124Y-58976317D01*
X132597242Y-58976719D01*
X132576575Y-58978900D01*
X132151502Y-58978900D01*
X132093311Y-58959993D01*
X132081263Y-58949667D01*
X132032742Y-58900806D01*
X131966880Y-58859009D01*
X131895249Y-58813550D01*
X131895245Y-58813548D01*
X131890579Y-58810587D01*
X131762713Y-58765056D01*
X131737172Y-58755961D01*
X131737170Y-58755961D01*
X131731962Y-58754106D01*
X131726473Y-58753451D01*
X131726471Y-58753451D01*
X131570269Y-58734824D01*
X131570266Y-58734824D01*
X131564773Y-58734169D01*
X131397321Y-58751769D01*
X131392082Y-58753553D01*
X131392080Y-58753553D01*
X131330176Y-58774627D01*
X131237931Y-58806030D01*
X131233221Y-58808928D01*
X131233216Y-58808930D01*
X131127610Y-58873900D01*
X131094522Y-58894256D01*
X131090573Y-58898123D01*
X131090572Y-58898124D01*
X131043079Y-58944633D01*
X130988275Y-58971838D01*
X130973812Y-58972900D01*
X124581500Y-58972900D01*
X124523309Y-58953993D01*
X124487345Y-58904493D01*
X124482500Y-58873900D01*
X124482500Y-58511554D01*
X124501407Y-58453363D01*
X124550907Y-58417399D01*
X124572527Y-58412961D01*
X124733353Y-58398325D01*
X124733357Y-58398324D01*
X124738864Y-58397823D01*
X124744125Y-58396114D01*
X124744128Y-58396113D01*
X124818931Y-58371808D01*
X124898997Y-58345793D01*
X125043623Y-58259578D01*
X125047632Y-58255760D01*
X125047635Y-58255758D01*
X125122999Y-58183989D01*
X125165554Y-58143465D01*
X125185080Y-58114077D01*
X125255668Y-58007833D01*
X125258731Y-58003223D01*
X125318521Y-57845823D01*
X125320548Y-57831405D01*
X125336623Y-57717024D01*
X125341955Y-57679088D01*
X125342249Y-57658000D01*
X125341021Y-57647046D01*
X125324098Y-57496181D01*
X125323481Y-57490676D01*
X125314908Y-57466058D01*
X125313626Y-57404886D01*
X125348545Y-57354644D01*
X125408401Y-57334500D01*
X126639218Y-57334500D01*
X126642801Y-57333972D01*
X126642808Y-57333972D01*
X126700499Y-57325479D01*
X126700501Y-57325478D01*
X126708112Y-57324358D01*
X126742314Y-57307566D01*
X126772967Y-57292516D01*
X126812855Y-57272932D01*
X126895293Y-57190350D01*
X126915017Y-57150000D01*
X128030723Y-57150000D01*
X128049793Y-57367977D01*
X128050912Y-57372152D01*
X128050912Y-57372154D01*
X128052215Y-57377015D01*
X128106425Y-57579330D01*
X128198898Y-57777638D01*
X128201379Y-57781181D01*
X128201380Y-57781183D01*
X128213742Y-57798838D01*
X128324402Y-57956877D01*
X128479123Y-58111598D01*
X128558892Y-58167453D01*
X128649734Y-58231061D01*
X128658361Y-58237102D01*
X128856670Y-58329575D01*
X128865000Y-58331807D01*
X129063846Y-58385088D01*
X129063848Y-58385088D01*
X129068023Y-58386207D01*
X129286000Y-58405277D01*
X129503977Y-58386207D01*
X129508152Y-58385088D01*
X129508154Y-58385088D01*
X129707000Y-58331807D01*
X129715330Y-58329575D01*
X129913639Y-58237102D01*
X129922267Y-58231061D01*
X130013108Y-58167453D01*
X130092877Y-58111598D01*
X130247598Y-57956877D01*
X130345906Y-57816478D01*
X130394769Y-57779657D01*
X130455945Y-57778589D01*
X130506066Y-57813683D01*
X130526001Y-57873263D01*
X130526001Y-58077585D01*
X130526611Y-58085329D01*
X130539616Y-58167449D01*
X130544373Y-58182091D01*
X130594823Y-58281106D01*
X130603865Y-58293551D01*
X130682449Y-58372135D01*
X130694894Y-58381177D01*
X130793912Y-58431629D01*
X130808547Y-58436384D01*
X130890673Y-58449391D01*
X130898412Y-58450000D01*
X131660320Y-58450000D01*
X131673005Y-58445878D01*
X131676000Y-58441757D01*
X131676000Y-58434319D01*
X131976000Y-58434319D01*
X131980122Y-58447004D01*
X131984243Y-58449999D01*
X132753585Y-58449999D01*
X132761329Y-58449389D01*
X132843449Y-58436384D01*
X132858091Y-58431627D01*
X132957106Y-58381177D01*
X132969551Y-58372135D01*
X133048135Y-58293551D01*
X133057177Y-58281106D01*
X133107629Y-58182088D01*
X133112384Y-58167453D01*
X133125391Y-58085327D01*
X133126000Y-58077588D01*
X133126000Y-57315680D01*
X133121878Y-57302995D01*
X133117757Y-57300000D01*
X131991680Y-57300000D01*
X131978995Y-57304122D01*
X131976000Y-57308243D01*
X131976000Y-58434319D01*
X131676000Y-58434319D01*
X131676000Y-56984320D01*
X131976000Y-56984320D01*
X131980122Y-56997005D01*
X131984243Y-57000000D01*
X133110319Y-57000000D01*
X133123004Y-56995878D01*
X133125999Y-56991757D01*
X133125999Y-56293932D01*
X133633217Y-56293932D01*
X133637912Y-56347588D01*
X133639405Y-56356056D01*
X133693779Y-56558985D01*
X133696725Y-56567078D01*
X133785503Y-56757462D01*
X133789815Y-56764932D01*
X133910308Y-56937013D01*
X133915841Y-56943608D01*
X134064392Y-57092159D01*
X134070987Y-57097692D01*
X134243067Y-57218185D01*
X134250537Y-57222497D01*
X134440922Y-57311275D01*
X134449015Y-57314221D01*
X134651944Y-57368595D01*
X134660412Y-57370088D01*
X134708379Y-57374285D01*
X134721377Y-57371285D01*
X134723313Y-57369057D01*
X134724000Y-57365682D01*
X134724000Y-57359972D01*
X135024000Y-57359972D01*
X135028122Y-57372657D01*
X135030511Y-57374393D01*
X135033932Y-57374783D01*
X135087588Y-57370088D01*
X135096056Y-57368595D01*
X135298985Y-57314221D01*
X135307078Y-57311275D01*
X135497463Y-57222497D01*
X135504933Y-57218185D01*
X135677013Y-57097692D01*
X135683608Y-57092159D01*
X135832159Y-56943608D01*
X135837692Y-56937013D01*
X135958185Y-56764932D01*
X135962497Y-56757462D01*
X136051275Y-56567078D01*
X136054221Y-56558985D01*
X136108595Y-56356056D01*
X136110088Y-56347588D01*
X136114285Y-56299621D01*
X136111285Y-56286623D01*
X136109057Y-56284687D01*
X136105682Y-56284000D01*
X135039680Y-56284000D01*
X135026995Y-56288122D01*
X135024000Y-56292243D01*
X135024000Y-57359972D01*
X134724000Y-57359972D01*
X134724000Y-56299680D01*
X134719878Y-56286995D01*
X134715757Y-56284000D01*
X133648028Y-56284000D01*
X133635343Y-56288122D01*
X133633607Y-56290511D01*
X133633217Y-56293932D01*
X133125999Y-56293932D01*
X133125999Y-56222415D01*
X133125389Y-56214671D01*
X133112384Y-56132551D01*
X133107627Y-56117909D01*
X133057177Y-56018894D01*
X133048135Y-56006449D01*
X133010065Y-55968379D01*
X133633715Y-55968379D01*
X133636715Y-55981377D01*
X133638943Y-55983313D01*
X133642318Y-55984000D01*
X136099972Y-55984000D01*
X136112657Y-55979878D01*
X136114393Y-55977489D01*
X136114783Y-55974068D01*
X136110088Y-55920412D01*
X136108595Y-55911944D01*
X136054221Y-55709015D01*
X136051275Y-55700922D01*
X135962497Y-55510538D01*
X135958185Y-55503068D01*
X135837692Y-55330987D01*
X135832159Y-55324392D01*
X135683608Y-55175841D01*
X135677013Y-55170308D01*
X135504933Y-55049815D01*
X135497463Y-55045503D01*
X135363906Y-54983224D01*
X135319158Y-54941496D01*
X135307483Y-54881435D01*
X135333341Y-54825982D01*
X135386855Y-54796319D01*
X135405745Y-54794500D01*
X135757218Y-54794500D01*
X135760801Y-54793972D01*
X135760808Y-54793972D01*
X135818499Y-54785479D01*
X135818501Y-54785478D01*
X135826112Y-54784358D01*
X135930855Y-54732932D01*
X136013293Y-54650350D01*
X136064536Y-54545518D01*
X136065645Y-54537916D01*
X136065646Y-54537913D01*
X136073983Y-54480763D01*
X136073983Y-54480761D01*
X136074500Y-54477218D01*
X136074500Y-52710782D01*
X136070417Y-52683042D01*
X136065479Y-52649501D01*
X136065478Y-52649499D01*
X136064358Y-52641888D01*
X136012932Y-52537145D01*
X135930350Y-52454707D01*
X135825518Y-52403464D01*
X135817916Y-52402355D01*
X135817913Y-52402354D01*
X135760763Y-52394017D01*
X135760761Y-52394017D01*
X135757218Y-52393500D01*
X133990782Y-52393500D01*
X133987199Y-52394028D01*
X133987192Y-52394028D01*
X133929501Y-52402521D01*
X133929499Y-52402522D01*
X133921888Y-52403642D01*
X133914982Y-52407033D01*
X133914981Y-52407033D01*
X133875726Y-52426306D01*
X133817145Y-52455068D01*
X133734707Y-52537650D01*
X133683464Y-52642482D01*
X133682355Y-52650084D01*
X133682354Y-52650087D01*
X133680777Y-52660900D01*
X133673500Y-52710782D01*
X133673500Y-54477218D01*
X133683642Y-54546112D01*
X133735068Y-54650855D01*
X133817650Y-54733293D01*
X133922482Y-54784536D01*
X133930084Y-54785645D01*
X133930087Y-54785646D01*
X133987237Y-54793983D01*
X133987239Y-54793983D01*
X133990782Y-54794500D01*
X134342256Y-54794500D01*
X134400447Y-54813407D01*
X134436411Y-54862907D01*
X134436411Y-54924093D01*
X134400447Y-54973593D01*
X134384095Y-54983224D01*
X134250538Y-55045503D01*
X134243068Y-55049815D01*
X134070987Y-55170308D01*
X134064392Y-55175841D01*
X133915841Y-55324392D01*
X133910308Y-55330987D01*
X133789815Y-55503068D01*
X133785503Y-55510538D01*
X133696725Y-55700922D01*
X133693779Y-55709015D01*
X133639405Y-55911944D01*
X133637912Y-55920412D01*
X133633715Y-55968379D01*
X133010065Y-55968379D01*
X132969551Y-55927865D01*
X132957106Y-55918823D01*
X132858088Y-55868371D01*
X132843453Y-55863616D01*
X132761327Y-55850609D01*
X132753588Y-55850000D01*
X131991680Y-55850000D01*
X131978995Y-55854122D01*
X131976000Y-55858243D01*
X131976000Y-56984320D01*
X131676000Y-56984320D01*
X131676000Y-55865681D01*
X131671878Y-55852996D01*
X131667757Y-55850001D01*
X130898415Y-55850001D01*
X130890671Y-55850611D01*
X130808551Y-55863616D01*
X130793909Y-55868373D01*
X130694894Y-55918823D01*
X130682449Y-55927865D01*
X130603865Y-56006449D01*
X130594823Y-56018894D01*
X130544371Y-56117912D01*
X130539616Y-56132547D01*
X130526609Y-56214673D01*
X130526000Y-56222412D01*
X130526000Y-56426735D01*
X130507093Y-56484926D01*
X130457593Y-56520890D01*
X130396407Y-56520890D01*
X130345904Y-56483519D01*
X130335230Y-56468274D01*
X130247598Y-56343123D01*
X130092877Y-56188402D01*
X129913639Y-56062898D01*
X129715330Y-55970425D01*
X129628780Y-55947234D01*
X129508154Y-55914912D01*
X129508152Y-55914912D01*
X129503977Y-55913793D01*
X129286000Y-55894723D01*
X129068023Y-55913793D01*
X129063848Y-55914912D01*
X129063846Y-55914912D01*
X128943220Y-55947234D01*
X128856670Y-55970425D01*
X128658362Y-56062898D01*
X128479123Y-56188402D01*
X128324402Y-56343123D01*
X128198898Y-56522362D01*
X128106425Y-56720670D01*
X128049793Y-56932023D01*
X128030723Y-57150000D01*
X126915017Y-57150000D01*
X126946536Y-57085518D01*
X126947645Y-57077916D01*
X126947646Y-57077913D01*
X126955983Y-57020763D01*
X126955983Y-57020761D01*
X126956500Y-57017218D01*
X126956500Y-55250782D01*
X126950618Y-55210821D01*
X126947479Y-55189501D01*
X126947478Y-55189499D01*
X126946358Y-55181888D01*
X126941743Y-55172487D01*
X126915403Y-55118839D01*
X126894932Y-55077145D01*
X126889141Y-55071364D01*
X126884377Y-55064710D01*
X126886217Y-55063393D01*
X126863654Y-55019206D01*
X126873173Y-54958766D01*
X126885042Y-54942402D01*
X126884761Y-54942202D01*
X126889512Y-54935541D01*
X126895293Y-54929750D01*
X126908835Y-54902046D01*
X126951376Y-54858070D01*
X127011641Y-54847497D01*
X127067720Y-54875457D01*
X127121650Y-54929293D01*
X127226482Y-54980536D01*
X127234084Y-54981645D01*
X127234087Y-54981646D01*
X127291237Y-54989983D01*
X127291239Y-54989983D01*
X127294782Y-54990500D01*
X127861218Y-54990500D01*
X127864801Y-54989972D01*
X127864808Y-54989972D01*
X127922499Y-54981479D01*
X127922501Y-54981478D01*
X127930112Y-54980358D01*
X127959420Y-54965969D01*
X128019986Y-54957295D01*
X128046522Y-54965891D01*
X128076482Y-54980536D01*
X128084084Y-54981645D01*
X128084087Y-54981646D01*
X128141237Y-54989983D01*
X128141239Y-54989983D01*
X128144782Y-54990500D01*
X128611218Y-54990500D01*
X128614801Y-54989972D01*
X128614808Y-54989972D01*
X128672499Y-54981479D01*
X128672501Y-54981478D01*
X128680112Y-54980358D01*
X128732942Y-54954420D01*
X128793508Y-54945746D01*
X128851570Y-54978663D01*
X128855500Y-54983224D01*
X128862204Y-54991004D01*
X128868121Y-54994839D01*
X128868123Y-54994841D01*
X128868618Y-54995162D01*
X128884775Y-55008233D01*
X129132564Y-55256022D01*
X129140046Y-55265387D01*
X129140131Y-55265315D01*
X129144701Y-55270685D01*
X129148465Y-55276650D01*
X129172781Y-55298125D01*
X129186623Y-55310350D01*
X129191092Y-55314550D01*
X129202215Y-55325673D01*
X129205031Y-55327783D01*
X129205035Y-55327787D01*
X129210642Y-55331989D01*
X129216800Y-55337003D01*
X129245269Y-55362146D01*
X129245275Y-55362150D01*
X129250555Y-55366813D01*
X129256933Y-55369807D01*
X129256937Y-55369810D01*
X129258914Y-55370738D01*
X129276215Y-55381134D01*
X129277957Y-55382440D01*
X129277963Y-55382443D01*
X129283605Y-55386672D01*
X129290207Y-55389147D01*
X129290209Y-55389148D01*
X129325776Y-55402481D01*
X129333084Y-55405560D01*
X129373848Y-55424699D01*
X129382973Y-55426120D01*
X129402490Y-55431240D01*
X129411143Y-55434484D01*
X129456056Y-55437821D01*
X129463933Y-55438725D01*
X129477256Y-55440800D01*
X129492468Y-55440800D01*
X129499803Y-55441072D01*
X129546974Y-55444577D01*
X129553868Y-55443105D01*
X129553873Y-55443105D01*
X129554452Y-55442981D01*
X129575118Y-55440800D01*
X131278543Y-55440800D01*
X131290455Y-55442131D01*
X131290464Y-55442020D01*
X131297494Y-55442586D01*
X131304373Y-55444142D01*
X131355179Y-55440990D01*
X131361308Y-55440800D01*
X131377045Y-55440800D01*
X131387487Y-55439305D01*
X131395377Y-55438496D01*
X131412446Y-55437437D01*
X131433276Y-55436145D01*
X131433277Y-55436145D01*
X131440317Y-55435708D01*
X131446955Y-55433312D01*
X131446959Y-55433311D01*
X131449008Y-55432572D01*
X131468582Y-55427691D01*
X131470749Y-55427381D01*
X131470751Y-55427380D01*
X131477729Y-55426381D01*
X131518733Y-55407738D01*
X131526072Y-55404751D01*
X131568430Y-55389459D01*
X131575887Y-55384011D01*
X131593310Y-55373830D01*
X131595301Y-55372925D01*
X131595304Y-55372923D01*
X131601720Y-55370006D01*
X131635845Y-55340602D01*
X131642039Y-55335684D01*
X131652935Y-55327723D01*
X131663691Y-55316967D01*
X131669071Y-55311972D01*
X131699564Y-55285698D01*
X131699567Y-55285695D01*
X131704904Y-55281096D01*
X131708741Y-55275177D01*
X131709062Y-55274682D01*
X131722133Y-55258525D01*
X133102425Y-53878234D01*
X133111787Y-53870754D01*
X133111715Y-53870669D01*
X133117085Y-53866098D01*
X133123050Y-53862335D01*
X133156744Y-53824184D01*
X133160943Y-53819716D01*
X133172074Y-53808585D01*
X133174184Y-53805770D01*
X133174188Y-53805765D01*
X133178397Y-53800149D01*
X133183411Y-53793991D01*
X133208543Y-53765534D01*
X133208546Y-53765529D01*
X133213213Y-53760245D01*
X133217138Y-53751885D01*
X133227529Y-53734591D01*
X133233072Y-53727195D01*
X133248882Y-53685022D01*
X133251960Y-53677716D01*
X133271099Y-53636952D01*
X133272520Y-53627827D01*
X133277640Y-53608310D01*
X133280884Y-53599657D01*
X133284221Y-53554744D01*
X133285125Y-53546867D01*
X133287200Y-53533544D01*
X133287200Y-53518332D01*
X133287472Y-53510996D01*
X133288438Y-53498000D01*
X133290977Y-53463826D01*
X133289505Y-53456932D01*
X133289505Y-53456927D01*
X133289381Y-53456348D01*
X133287200Y-53435682D01*
X133287200Y-50556978D01*
X134140983Y-50556978D01*
X134140990Y-50557023D01*
X134146513Y-50563239D01*
X134295178Y-50662575D01*
X134303133Y-50666893D01*
X134497412Y-50750362D01*
X134506024Y-50753160D01*
X134712272Y-50799829D01*
X134721232Y-50801009D01*
X134932544Y-50809311D01*
X134941556Y-50808839D01*
X135150848Y-50778494D01*
X135159630Y-50776385D01*
X135359878Y-50708410D01*
X135368134Y-50704734D01*
X135552638Y-50601406D01*
X135560092Y-50596283D01*
X135598293Y-50564511D01*
X135605413Y-50553227D01*
X135605227Y-50550397D01*
X135603225Y-50547357D01*
X134885086Y-49829218D01*
X134873203Y-49823164D01*
X134868172Y-49823960D01*
X134147037Y-50545095D01*
X134140983Y-50556978D01*
X133287200Y-50556978D01*
X133287200Y-49954356D01*
X133288531Y-49942444D01*
X133288420Y-49942435D01*
X133288986Y-49935405D01*
X133290542Y-49928526D01*
X133287390Y-49877720D01*
X133287200Y-49871591D01*
X133287200Y-49855855D01*
X133285705Y-49845413D01*
X133284896Y-49837520D01*
X133282545Y-49799622D01*
X133282545Y-49799620D01*
X133282108Y-49792583D01*
X133278973Y-49783899D01*
X133274091Y-49764318D01*
X133273781Y-49762155D01*
X133272781Y-49755171D01*
X133269860Y-49748746D01*
X133254140Y-49714170D01*
X133251144Y-49706812D01*
X133238252Y-49671101D01*
X133238252Y-49671100D01*
X133235858Y-49664470D01*
X133230409Y-49657011D01*
X133220233Y-49639596D01*
X133216406Y-49631180D01*
X133187010Y-49597065D01*
X133182081Y-49590858D01*
X133174123Y-49579964D01*
X133173140Y-49578981D01*
X133669569Y-49578981D01*
X133683399Y-49790000D01*
X133684812Y-49798921D01*
X133736866Y-50003882D01*
X133739886Y-50012410D01*
X133828416Y-50204446D01*
X133832937Y-50212277D01*
X133916085Y-50329928D01*
X133926772Y-50337908D01*
X133927521Y-50337918D01*
X133933652Y-50334216D01*
X134650782Y-49617086D01*
X134656024Y-49606797D01*
X135091164Y-49606797D01*
X135091960Y-49611828D01*
X135811397Y-50331265D01*
X135823280Y-50337319D01*
X135826083Y-50336875D01*
X135828927Y-50334603D01*
X135864283Y-50292092D01*
X135869406Y-50284638D01*
X135972734Y-50100134D01*
X135976410Y-50091878D01*
X136044385Y-49891630D01*
X136046494Y-49882848D01*
X136077072Y-49671949D01*
X136077565Y-49666161D01*
X136079065Y-49608913D01*
X136078875Y-49603101D01*
X136059376Y-49390898D01*
X136057729Y-49382012D01*
X136000328Y-49178486D01*
X135997087Y-49170042D01*
X135903560Y-48980388D01*
X135898835Y-48972678D01*
X135831532Y-48882548D01*
X135820638Y-48874849D01*
X135819189Y-48874868D01*
X135814098Y-48878034D01*
X135097218Y-49594914D01*
X135091164Y-49606797D01*
X134656024Y-49606797D01*
X134656836Y-49605203D01*
X134656040Y-49600172D01*
X133937062Y-48881194D01*
X133925179Y-48875140D01*
X133923062Y-48875475D01*
X133919332Y-48878536D01*
X133866094Y-48946068D01*
X133861170Y-48953651D01*
X133762705Y-49140802D01*
X133759251Y-49149142D01*
X133696541Y-49351098D01*
X133694660Y-49359948D01*
X133669805Y-49569948D01*
X133669569Y-49578981D01*
X133173140Y-49578981D01*
X133163361Y-49569202D01*
X133158366Y-49563822D01*
X133132099Y-49533338D01*
X133127496Y-49527996D01*
X133121083Y-49523839D01*
X133104929Y-49510770D01*
X132251759Y-48657601D01*
X134141578Y-48657601D01*
X134141902Y-48661118D01*
X134143271Y-48663139D01*
X134862914Y-49382782D01*
X134874797Y-49388836D01*
X134879828Y-49388040D01*
X135601924Y-48665944D01*
X135607978Y-48654061D01*
X135607368Y-48650209D01*
X135603807Y-48647477D01*
X135424960Y-48534633D01*
X135416907Y-48530530D01*
X135220491Y-48452168D01*
X135211833Y-48449603D01*
X135004426Y-48408347D01*
X134995433Y-48407402D01*
X134783985Y-48404633D01*
X134774970Y-48405343D01*
X134566556Y-48441155D01*
X134557832Y-48443493D01*
X134359436Y-48516684D01*
X134351268Y-48520580D01*
X134169538Y-48628698D01*
X134162224Y-48634012D01*
X134148397Y-48646139D01*
X134141578Y-48657601D01*
X132251759Y-48657601D01*
X131568895Y-47974737D01*
X131563901Y-47969357D01*
X131534612Y-47935366D01*
X131529669Y-47929141D01*
X131523977Y-47921349D01*
X131521724Y-47918265D01*
X131510955Y-47907496D01*
X131505961Y-47902116D01*
X131479701Y-47871640D01*
X131479700Y-47871639D01*
X131475096Y-47866296D01*
X131469181Y-47862462D01*
X131469176Y-47862458D01*
X131468683Y-47862139D01*
X131452525Y-47849067D01*
X131420337Y-47816879D01*
X131412855Y-47807514D01*
X131412770Y-47807586D01*
X131408198Y-47802214D01*
X131404435Y-47796250D01*
X131366268Y-47762541D01*
X131361804Y-47758345D01*
X131353177Y-47749719D01*
X131350685Y-47747227D01*
X131347866Y-47745114D01*
X131342258Y-47740911D01*
X131336100Y-47735897D01*
X131307631Y-47710754D01*
X131307625Y-47710750D01*
X131302345Y-47706087D01*
X131295967Y-47703093D01*
X131295963Y-47703090D01*
X131293986Y-47702162D01*
X131276685Y-47691766D01*
X131274943Y-47690460D01*
X131274937Y-47690457D01*
X131269295Y-47686228D01*
X131262693Y-47683753D01*
X131262691Y-47683752D01*
X131227124Y-47670419D01*
X131219816Y-47667340D01*
X131179052Y-47648201D01*
X131169927Y-47646780D01*
X131150410Y-47641660D01*
X131141757Y-47638416D01*
X131096844Y-47635079D01*
X131088967Y-47634175D01*
X131075644Y-47632100D01*
X131060432Y-47632100D01*
X131053096Y-47631828D01*
X131005926Y-47628323D01*
X130999032Y-47629795D01*
X130999027Y-47629795D01*
X130998448Y-47629919D01*
X130977782Y-47632100D01*
X128175757Y-47632100D01*
X128163845Y-47630769D01*
X128163836Y-47630880D01*
X128156806Y-47630314D01*
X128149927Y-47628758D01*
X128099122Y-47631910D01*
X128092992Y-47632100D01*
X128077255Y-47632100D01*
X128066813Y-47633595D01*
X128058923Y-47634404D01*
X128048023Y-47635080D01*
X128021024Y-47636755D01*
X128021023Y-47636755D01*
X128013983Y-47637192D01*
X128007345Y-47639588D01*
X128007341Y-47639589D01*
X128005292Y-47640328D01*
X127985718Y-47645209D01*
X127983551Y-47645519D01*
X127983549Y-47645520D01*
X127976571Y-47646519D01*
X127935567Y-47665162D01*
X127928228Y-47668149D01*
X127885870Y-47683441D01*
X127878413Y-47688889D01*
X127860990Y-47699070D01*
X127858999Y-47699975D01*
X127858996Y-47699977D01*
X127852580Y-47702894D01*
X127818455Y-47732298D01*
X127812261Y-47737216D01*
X127801365Y-47745177D01*
X127790609Y-47755933D01*
X127785229Y-47760928D01*
X127754736Y-47787202D01*
X127754733Y-47787205D01*
X127749396Y-47791804D01*
X127745561Y-47797721D01*
X127745559Y-47797723D01*
X127745238Y-47798218D01*
X127732167Y-47814375D01*
X127721192Y-47825350D01*
X127666675Y-47853127D01*
X127606243Y-47843556D01*
X127562978Y-47800291D01*
X127557033Y-47785938D01*
X127550878Y-47766994D01*
X127546757Y-47764000D01*
X126870680Y-47764000D01*
X126857995Y-47768122D01*
X126855000Y-47772243D01*
X126855000Y-48398319D01*
X126859122Y-48411004D01*
X126863243Y-48413999D01*
X126893535Y-48413999D01*
X126951726Y-48432906D01*
X126987690Y-48482406D01*
X126987690Y-48543592D01*
X126963539Y-48583003D01*
X126812038Y-48734504D01*
X126757521Y-48762281D01*
X126742034Y-48763500D01*
X126221782Y-48763500D01*
X126218199Y-48764028D01*
X126218192Y-48764028D01*
X126160501Y-48772521D01*
X126160499Y-48772522D01*
X126152888Y-48773642D01*
X126048145Y-48825068D01*
X125965707Y-48907650D01*
X125914464Y-49012482D01*
X125913355Y-49020084D01*
X125913354Y-49020087D01*
X125905017Y-49077237D01*
X125904500Y-49080782D01*
X125904500Y-49679100D01*
X125885593Y-49737291D01*
X125836093Y-49773255D01*
X125805500Y-49778100D01*
X125360757Y-49778100D01*
X125348844Y-49776769D01*
X125348835Y-49776880D01*
X125341806Y-49776315D01*
X125334927Y-49774758D01*
X125284115Y-49777910D01*
X125277986Y-49778100D01*
X125262255Y-49778100D01*
X125258766Y-49778600D01*
X125258761Y-49778600D01*
X125251829Y-49779593D01*
X125243925Y-49780403D01*
X125206020Y-49782754D01*
X125206017Y-49782755D01*
X125198983Y-49783191D01*
X125192353Y-49785585D01*
X125192346Y-49785586D01*
X125190291Y-49786328D01*
X125170714Y-49791210D01*
X125161571Y-49792519D01*
X125120589Y-49811152D01*
X125113231Y-49814148D01*
X125077503Y-49827046D01*
X125077501Y-49827047D01*
X125070870Y-49829441D01*
X125063413Y-49834889D01*
X125045990Y-49845070D01*
X125043999Y-49845975D01*
X125043996Y-49845977D01*
X125037580Y-49848894D01*
X125003455Y-49878298D01*
X124997261Y-49883216D01*
X124986365Y-49891177D01*
X124975609Y-49901933D01*
X124970229Y-49906928D01*
X124939736Y-49933202D01*
X124939733Y-49933205D01*
X124934396Y-49937804D01*
X124930561Y-49943721D01*
X124930559Y-49943723D01*
X124930238Y-49944218D01*
X124917167Y-49960375D01*
X124552319Y-50325223D01*
X124497802Y-50353000D01*
X124437370Y-50343429D01*
X124398358Y-50307681D01*
X124388617Y-50292092D01*
X124331184Y-50200179D01*
X124327289Y-50196256D01*
X124327286Y-50196253D01*
X124216444Y-50084635D01*
X124216442Y-50084634D01*
X124212542Y-50080706D01*
X124138609Y-50033787D01*
X124075049Y-49993450D01*
X124075045Y-49993448D01*
X124070379Y-49990487D01*
X123940441Y-49944218D01*
X123916972Y-49935861D01*
X123916970Y-49935861D01*
X123911762Y-49934006D01*
X123906273Y-49933351D01*
X123906271Y-49933351D01*
X123750069Y-49914724D01*
X123750066Y-49914724D01*
X123744573Y-49914069D01*
X123731795Y-49915412D01*
X123671947Y-49902690D01*
X123631006Y-49857221D01*
X123624610Y-49796371D01*
X123639372Y-49761595D01*
X123672598Y-49712335D01*
X123672603Y-49712326D01*
X123674572Y-49709407D01*
X123737019Y-49580515D01*
X123767650Y-49484535D01*
X123777336Y-49426966D01*
X123787051Y-49369218D01*
X123791412Y-49343297D01*
X123796310Y-49288689D01*
X123796461Y-49276347D01*
X123794297Y-49243107D01*
X123809384Y-49183812D01*
X123856443Y-49144709D01*
X123917499Y-49140734D01*
X123965729Y-49171194D01*
X123966068Y-49170855D01*
X124048650Y-49253293D01*
X124153482Y-49304536D01*
X124161084Y-49305645D01*
X124161087Y-49305646D01*
X124218237Y-49313983D01*
X124218239Y-49313983D01*
X124221782Y-49314500D01*
X125188218Y-49314500D01*
X125191801Y-49313972D01*
X125191808Y-49313972D01*
X125249499Y-49305479D01*
X125249501Y-49305478D01*
X125257112Y-49304358D01*
X125361855Y-49252932D01*
X125444293Y-49170350D01*
X125495536Y-49065518D01*
X125496645Y-49057916D01*
X125496646Y-49057913D01*
X125504983Y-49000763D01*
X125504983Y-49000761D01*
X125505500Y-48997218D01*
X125505500Y-48130782D01*
X125495358Y-48061888D01*
X125486687Y-48044226D01*
X125485390Y-48041585D01*
X125855001Y-48041585D01*
X125855611Y-48049329D01*
X125868616Y-48131449D01*
X125873373Y-48146091D01*
X125923823Y-48245106D01*
X125932865Y-48257551D01*
X126011449Y-48336135D01*
X126023894Y-48345177D01*
X126122912Y-48395629D01*
X126137547Y-48400384D01*
X126219673Y-48413391D01*
X126227412Y-48414000D01*
X126539320Y-48414000D01*
X126552005Y-48409878D01*
X126555000Y-48405757D01*
X126555000Y-47779680D01*
X126550878Y-47766995D01*
X126546757Y-47764000D01*
X125870681Y-47764000D01*
X125857996Y-47768122D01*
X125855001Y-47772243D01*
X125855001Y-48041585D01*
X125485390Y-48041585D01*
X125452569Y-47974737D01*
X125443932Y-47957145D01*
X125438140Y-47951363D01*
X125428773Y-47942012D01*
X125400948Y-47887519D01*
X125410468Y-47827079D01*
X125428712Y-47801944D01*
X125747512Y-47483144D01*
X125802029Y-47455367D01*
X125839740Y-47461340D01*
X125839893Y-47460374D01*
X125862789Y-47464000D01*
X127539319Y-47464000D01*
X127552004Y-47459878D01*
X127554999Y-47455757D01*
X127554999Y-47195400D01*
X127573906Y-47137209D01*
X127623406Y-47101245D01*
X127653999Y-47096400D01*
X132231884Y-47096400D01*
X132290075Y-47115307D01*
X132303098Y-47126628D01*
X132338615Y-47163406D01*
X132342886Y-47167829D01*
X132483775Y-47260025D01*
X132488962Y-47261954D01*
X132636396Y-47316784D01*
X132636398Y-47316784D01*
X132641589Y-47318715D01*
X132647081Y-47319448D01*
X132647082Y-47319448D01*
X132765830Y-47335292D01*
X132808483Y-47340983D01*
X132813989Y-47340482D01*
X132813991Y-47340482D01*
X132970653Y-47326225D01*
X132970657Y-47326224D01*
X132976164Y-47325723D01*
X132981425Y-47324014D01*
X132981428Y-47324013D01*
X133056741Y-47299542D01*
X133136297Y-47273693D01*
X133280923Y-47187478D01*
X133284932Y-47183660D01*
X133284935Y-47183658D01*
X133371477Y-47101245D01*
X133402854Y-47071365D01*
X133414546Y-47053768D01*
X133492968Y-46935733D01*
X133496031Y-46931123D01*
X133531952Y-46836559D01*
X133570291Y-46788875D01*
X133629336Y-46772832D01*
X133686533Y-46794559D01*
X133720037Y-46845757D01*
X133723500Y-46871714D01*
X133723500Y-47239218D01*
X133724028Y-47242801D01*
X133724028Y-47242808D01*
X133729349Y-47278953D01*
X133733642Y-47308112D01*
X133737033Y-47315018D01*
X133737033Y-47315019D01*
X133742535Y-47326225D01*
X133785068Y-47412855D01*
X133790859Y-47418636D01*
X133826679Y-47454393D01*
X133867650Y-47495293D01*
X133972482Y-47546536D01*
X133980084Y-47547645D01*
X133980087Y-47547646D01*
X134037237Y-47555983D01*
X134037239Y-47555983D01*
X134040782Y-47556500D01*
X135707218Y-47556500D01*
X135710801Y-47555972D01*
X135710808Y-47555972D01*
X135768499Y-47547479D01*
X135768501Y-47547478D01*
X135776112Y-47546358D01*
X135880855Y-47494932D01*
X135892623Y-47483144D01*
X135957513Y-47418140D01*
X135963293Y-47412350D01*
X136014536Y-47307518D01*
X136015645Y-47299916D01*
X136015646Y-47299913D01*
X136023983Y-47242763D01*
X136023983Y-47242761D01*
X136024500Y-47239218D01*
X136024500Y-45572782D01*
X136021329Y-45551238D01*
X136015479Y-45511501D01*
X136015478Y-45511499D01*
X136014358Y-45503888D01*
X136006556Y-45487997D01*
X135988456Y-45451131D01*
X135979782Y-45390563D01*
X136008366Y-45336465D01*
X136063289Y-45309500D01*
X136077323Y-45308500D01*
X136456500Y-45308500D01*
X136514691Y-45327407D01*
G37*
%TD.AperFunction*%
%TD*%
M02*
