%TF.GenerationSoftware,KiCad,Pcbnew,6.0.6-1.fc35*%
%TF.CreationDate,2022-08-01T00:07:55+02:00*%
%TF.ProjectId,lm324_4ch_therm,6c6d3332-345f-4346-9368-5f746865726d,rev?*%
%TF.SameCoordinates,Original*%
%TF.FileFunction,Soldermask,Bot*%
%TF.FilePolarity,Negative*%
%FSLAX46Y46*%
G04 Gerber Fmt 4.6, Leading zero omitted, Abs format (unit mm)*
G04 Created by KiCad (PCBNEW 6.0.6-1.fc35) date 2022-08-01 00:07:55*
%MOMM*%
%LPD*%
G01*
G04 APERTURE LIST*
G04 Aperture macros list*
%AMRoundRect*
0 Rectangle with rounded corners*
0 $1 Rounding radius*
0 $2 $3 $4 $5 $6 $7 $8 $9 X,Y pos of 4 corners*
0 Add a 4 corners polygon primitive as box body*
4,1,4,$2,$3,$4,$5,$6,$7,$8,$9,$2,$3,0*
0 Add four circle primitives for the rounded corners*
1,1,$1+$1,$2,$3*
1,1,$1+$1,$4,$5*
1,1,$1+$1,$6,$7*
1,1,$1+$1,$8,$9*
0 Add four rect primitives between the rounded corners*
20,1,$1+$1,$2,$3,$4,$5,0*
20,1,$1+$1,$4,$5,$6,$7,0*
20,1,$1+$1,$6,$7,$8,$9,0*
20,1,$1+$1,$8,$9,$2,$3,0*%
G04 Aperture macros list end*
%ADD10R,1.700000X1.700000*%
%ADD11O,1.700000X1.700000*%
%ADD12R,1.800000X1.800000*%
%ADD13C,1.800000*%
%ADD14R,1.600000X1.600000*%
%ADD15C,1.600000*%
%ADD16C,5.600000*%
%ADD17RoundRect,0.250000X0.475000X-0.250000X0.475000X0.250000X-0.475000X0.250000X-0.475000X-0.250000X0*%
%ADD18RoundRect,0.250000X0.250000X0.475000X-0.250000X0.475000X-0.250000X-0.475000X0.250000X-0.475000X0*%
%ADD19RoundRect,0.250000X-0.625000X0.312500X-0.625000X-0.312500X0.625000X-0.312500X0.625000X0.312500X0*%
%ADD20RoundRect,0.150000X-0.825000X-0.150000X0.825000X-0.150000X0.825000X0.150000X-0.825000X0.150000X0*%
%ADD21RoundRect,0.250000X0.625000X-0.312500X0.625000X0.312500X-0.625000X0.312500X-0.625000X-0.312500X0*%
G04 APERTURE END LIST*
D10*
%TO.C,J1*%
X134899000Y-61234000D03*
D11*
X134899000Y-63774000D03*
%TD*%
D12*
%TO.C,D4*%
X131826000Y-57150000D03*
D13*
X129286000Y-57150000D03*
%TD*%
D10*
%TO.C,J2*%
X118745000Y-61214000D03*
D11*
X118745000Y-63754000D03*
%TD*%
D14*
%TO.C,BZ1*%
X134874000Y-46406000D03*
D15*
X134874000Y-49606000D03*
%TD*%
D16*
%TO.C,REF2*%
X115697000Y-48133000D03*
%TD*%
D10*
%TO.C,J5*%
X129311000Y-61234000D03*
D11*
X129311000Y-63774000D03*
%TD*%
D10*
%TO.C,J4*%
X126492000Y-61214000D03*
D11*
X126492000Y-63754000D03*
%TD*%
D10*
%TO.C,J3*%
X132105000Y-61234000D03*
D11*
X132105000Y-63774000D03*
%TD*%
D10*
%TO.C,J6*%
X134874000Y-53594000D03*
D11*
X134874000Y-56134000D03*
%TD*%
D17*
%TO.C,C1*%
X118872000Y-55880000D03*
X118872000Y-53980000D03*
%TD*%
D18*
%TO.C,C2*%
X130302000Y-53848000D03*
X128402000Y-53848000D03*
%TD*%
D19*
%TO.C,R8*%
X120904000Y-46482000D03*
X120904000Y-49407000D03*
%TD*%
D20*
%TO.C,U1*%
X121223000Y-59436000D03*
X121223000Y-58166000D03*
X121223000Y-56896000D03*
X121223000Y-55626000D03*
X121223000Y-54356000D03*
X121223000Y-53086000D03*
X121223000Y-51816000D03*
X126173000Y-51816000D03*
X126173000Y-53086000D03*
X126173000Y-54356000D03*
X126173000Y-55626000D03*
X126173000Y-56896000D03*
X126173000Y-58166000D03*
X126173000Y-59436000D03*
%TD*%
D18*
%TO.C,C3*%
X135758000Y-58801000D03*
X133858000Y-58801000D03*
%TD*%
D21*
%TO.C,R1*%
X125730000Y-49403000D03*
X125730000Y-46478000D03*
%TD*%
%TO.C,R2*%
X128143000Y-49407000D03*
X128143000Y-46482000D03*
%TD*%
D19*
%TO.C,R3*%
X123317000Y-46482000D03*
X123317000Y-49407000D03*
%TD*%
M02*
