M48
; DRILL file {KiCad 6.0.6-1.fc35} date Mon 18 Jul 2022 21:24:04 CEST
; FORMAT={-:-/ absolute / metric / decimal}
; #@! TF.CreationDate,2022-07-18T21:24:04+02:00
; #@! TF.GenerationSoftware,Kicad,Pcbnew,6.0.6-1.fc35
; #@! TF.FileFunction,MixedPlating,1,2
FMAT,2
METRIC
; #@! TA.AperFunction,Plated,PTH,ViaDrill
T1C0.400
; #@! TA.AperFunction,Plated,PTH,ComponentDrill
T2C0.900
; #@! TA.AperFunction,Plated,PTH,ComponentDrill
T3C1.000
; #@! TA.AperFunction,Plated,PTH,ComponentDrill
T4C3.200
%
G90
G05
T1
X116.997Y-64.737
X118.945Y-45.61
X119.569Y-57.363
X119.635Y-58.515
X119.738Y-47.723
X120.307Y-62.501
X123.713Y-47.752
X123.729Y-56.134
X123.739Y-50.669
X124.426Y-51.421
X124.587Y-57.658
X124.829Y-60.294
X129.398Y-47.381
X131.081Y-49.259
X131.14Y-52.426
X131.559Y-59.489
X132.824Y-46.586
T2
X129.286Y-57.15
X131.826Y-57.15
T3
X118.745Y-61.214
X118.745Y-63.754
X126.492Y-61.214
X126.492Y-63.754
X129.311Y-61.234
X129.311Y-63.774
X132.105Y-61.234
X132.105Y-63.774
X134.874Y-46.406
X134.874Y-49.606
X134.874Y-53.594
X134.874Y-56.134
X134.899Y-61.234
X134.899Y-63.774
T4
X115.697Y-48.133
T0
M30
