%TF.GenerationSoftware,KiCad,Pcbnew,6.0.6-1.fc35*%
%TF.CreationDate,2022-08-01T00:07:55+02:00*%
%TF.ProjectId,lm324_4ch_therm,6c6d3332-345f-4346-9368-5f746865726d,rev?*%
%TF.SameCoordinates,Original*%
%TF.FileFunction,Legend,Bot*%
%TF.FilePolarity,Positive*%
%FSLAX46Y46*%
G04 Gerber Fmt 4.6, Leading zero omitted, Abs format (unit mm)*
G04 Created by KiCad (PCBNEW 6.0.6-1.fc35) date 2022-08-01 00:07:55*
%MOMM*%
%LPD*%
G01*
G04 APERTURE LIST*
G04 Aperture macros list*
%AMRoundRect*
0 Rectangle with rounded corners*
0 $1 Rounding radius*
0 $2 $3 $4 $5 $6 $7 $8 $9 X,Y pos of 4 corners*
0 Add a 4 corners polygon primitive as box body*
4,1,4,$2,$3,$4,$5,$6,$7,$8,$9,$2,$3,0*
0 Add four circle primitives for the rounded corners*
1,1,$1+$1,$2,$3*
1,1,$1+$1,$4,$5*
1,1,$1+$1,$6,$7*
1,1,$1+$1,$8,$9*
0 Add four rect primitives between the rounded corners*
20,1,$1+$1,$2,$3,$4,$5,0*
20,1,$1+$1,$4,$5,$6,$7,0*
20,1,$1+$1,$6,$7,$8,$9,0*
20,1,$1+$1,$8,$9,$2,$3,0*%
G04 Aperture macros list end*
%ADD10C,0.120000*%
%ADD11C,0.130000*%
%ADD12C,0.150000*%
%ADD13R,1.700000X1.700000*%
%ADD14O,1.700000X1.700000*%
%ADD15R,1.800000X1.800000*%
%ADD16C,1.800000*%
%ADD17R,1.600000X1.600000*%
%ADD18C,1.600000*%
%ADD19C,5.600000*%
%ADD20RoundRect,0.250000X0.475000X-0.250000X0.475000X0.250000X-0.475000X0.250000X-0.475000X-0.250000X0*%
%ADD21RoundRect,0.250000X0.250000X0.475000X-0.250000X0.475000X-0.250000X-0.475000X0.250000X-0.475000X0*%
%ADD22RoundRect,0.250000X-0.625000X0.312500X-0.625000X-0.312500X0.625000X-0.312500X0.625000X0.312500X0*%
%ADD23RoundRect,0.150000X-0.825000X-0.150000X0.825000X-0.150000X0.825000X0.150000X-0.825000X0.150000X0*%
%ADD24RoundRect,0.250000X0.625000X-0.312500X0.625000X0.312500X-0.625000X0.312500X-0.625000X-0.312500X0*%
G04 APERTURE END LIST*
D10*
X129286000Y-62103000D02*
X129286000Y-62865000D01*
X132080000Y-62103000D02*
X132080000Y-62865000D01*
X126492000Y-62103000D02*
X126492000Y-62865000D01*
X134874000Y-62103000D02*
X134874000Y-62865000D01*
D11*
X133197523Y-54972000D02*
X133273714Y-54933904D01*
X133388000Y-54933904D01*
X133502285Y-54972000D01*
X133578476Y-55048190D01*
X133616571Y-55124380D01*
X133654666Y-55276761D01*
X133654666Y-55391047D01*
X133616571Y-55543428D01*
X133578476Y-55619619D01*
X133502285Y-55695809D01*
X133388000Y-55733904D01*
X133311809Y-55733904D01*
X133197523Y-55695809D01*
X133159428Y-55657714D01*
X133159428Y-55391047D01*
X133311809Y-55391047D01*
X132816571Y-55733904D02*
X132816571Y-54933904D01*
X132359428Y-55733904D01*
X132359428Y-54933904D01*
X131978476Y-55733904D02*
X131978476Y-54933904D01*
X131788000Y-54933904D01*
X131673714Y-54972000D01*
X131597523Y-55048190D01*
X131559428Y-55124380D01*
X131521333Y-55276761D01*
X131521333Y-55391047D01*
X131559428Y-55543428D01*
X131597523Y-55619619D01*
X131673714Y-55695809D01*
X131788000Y-55733904D01*
X131978476Y-55733904D01*
X133064190Y-53155904D02*
X132911809Y-53155904D01*
X132835619Y-53194000D01*
X132759428Y-53270190D01*
X132721333Y-53422571D01*
X132721333Y-53689238D01*
X132759428Y-53841619D01*
X132835619Y-53917809D01*
X132911809Y-53955904D01*
X133064190Y-53955904D01*
X133140380Y-53917809D01*
X133216571Y-53841619D01*
X133254666Y-53689238D01*
X133254666Y-53422571D01*
X133216571Y-53270190D01*
X133140380Y-53194000D01*
X133064190Y-53155904D01*
X131921333Y-53879714D02*
X131959428Y-53917809D01*
X132073714Y-53955904D01*
X132149904Y-53955904D01*
X132264190Y-53917809D01*
X132340380Y-53841619D01*
X132378476Y-53765428D01*
X132416571Y-53613047D01*
X132416571Y-53498761D01*
X132378476Y-53346380D01*
X132340380Y-53270190D01*
X132264190Y-53194000D01*
X132149904Y-53155904D01*
X132073714Y-53155904D01*
X131959428Y-53194000D01*
X131921333Y-53232095D01*
X117544800Y-63753923D02*
X117582895Y-63830114D01*
X117582895Y-63944400D01*
X117544800Y-64058685D01*
X117468609Y-64134876D01*
X117392419Y-64172971D01*
X117240038Y-64211066D01*
X117125752Y-64211066D01*
X116973371Y-64172971D01*
X116897180Y-64134876D01*
X116820990Y-64058685D01*
X116782895Y-63944400D01*
X116782895Y-63868209D01*
X116820990Y-63753923D01*
X116859085Y-63715828D01*
X117125752Y-63715828D01*
X117125752Y-63868209D01*
X116782895Y-63372971D02*
X117582895Y-63372971D01*
X116782895Y-62915828D01*
X117582895Y-62915828D01*
X116782895Y-62534876D02*
X117582895Y-62534876D01*
X117582895Y-62344400D01*
X117544800Y-62230114D01*
X117468609Y-62153923D01*
X117392419Y-62115828D01*
X117240038Y-62077733D01*
X117125752Y-62077733D01*
X116973371Y-62115828D01*
X116897180Y-62153923D01*
X116820990Y-62230114D01*
X116782895Y-62344400D01*
X116782895Y-62534876D01*
X117532095Y-60731380D02*
X117532095Y-61112333D01*
X117151142Y-61150428D01*
X117189238Y-61112333D01*
X117227333Y-61036142D01*
X117227333Y-60845666D01*
X117189238Y-60769476D01*
X117151142Y-60731380D01*
X117074952Y-60693285D01*
X116884476Y-60693285D01*
X116808285Y-60731380D01*
X116770190Y-60769476D01*
X116732095Y-60845666D01*
X116732095Y-61036142D01*
X116770190Y-61112333D01*
X116808285Y-61150428D01*
X117532095Y-60464714D02*
X116732095Y-60198047D01*
X117532095Y-59931380D01*
X132124380Y-45911571D02*
X132124380Y-46444904D01*
X132314857Y-45606809D02*
X132505333Y-46178238D01*
X132010095Y-46178238D01*
X131362476Y-46406809D02*
X131438666Y-46444904D01*
X131591047Y-46444904D01*
X131667238Y-46406809D01*
X131705333Y-46368714D01*
X131743428Y-46292523D01*
X131743428Y-46063952D01*
X131705333Y-45987761D01*
X131667238Y-45949666D01*
X131591047Y-45911571D01*
X131438666Y-45911571D01*
X131362476Y-45949666D01*
X131019619Y-46444904D02*
X131019619Y-45644904D01*
X130676761Y-46444904D02*
X130676761Y-46025857D01*
X130714857Y-45949666D01*
X130791047Y-45911571D01*
X130905333Y-45911571D01*
X130981523Y-45949666D01*
X131019619Y-45987761D01*
X133476761Y-46932904D02*
X133019619Y-46932904D01*
X133248190Y-47732904D02*
X133248190Y-46932904D01*
X132752952Y-47732904D02*
X132752952Y-46932904D01*
X132410095Y-47732904D02*
X132410095Y-47313857D01*
X132448190Y-47237666D01*
X132524380Y-47199571D01*
X132638666Y-47199571D01*
X132714857Y-47237666D01*
X132752952Y-47275761D01*
X131724380Y-47694809D02*
X131800571Y-47732904D01*
X131952952Y-47732904D01*
X132029142Y-47694809D01*
X132067238Y-47618619D01*
X132067238Y-47313857D01*
X132029142Y-47237666D01*
X131952952Y-47199571D01*
X131800571Y-47199571D01*
X131724380Y-47237666D01*
X131686285Y-47313857D01*
X131686285Y-47390047D01*
X132067238Y-47466238D01*
X131343428Y-47732904D02*
X131343428Y-47199571D01*
X131343428Y-47351952D02*
X131305333Y-47275761D01*
X131267238Y-47237666D01*
X131191047Y-47199571D01*
X131114857Y-47199571D01*
X130848190Y-47732904D02*
X130848190Y-47199571D01*
X130848190Y-47275761D02*
X130810095Y-47237666D01*
X130733904Y-47199571D01*
X130619619Y-47199571D01*
X130543428Y-47237666D01*
X130505333Y-47313857D01*
X130505333Y-47732904D01*
X130505333Y-47313857D02*
X130467238Y-47237666D01*
X130391047Y-47199571D01*
X130276761Y-47199571D01*
X130200571Y-47237666D01*
X130162476Y-47313857D01*
X130162476Y-47732904D01*
X129781523Y-47656714D02*
X129743428Y-47694809D01*
X129781523Y-47732904D01*
X129819619Y-47694809D01*
X129781523Y-47656714D01*
X129781523Y-47732904D01*
X132562476Y-49020904D02*
X132562476Y-48220904D01*
X132105333Y-49020904D02*
X132448190Y-48563761D01*
X132105333Y-48220904D02*
X132562476Y-48678047D01*
X131495809Y-48601857D02*
X131381523Y-48639952D01*
X131343428Y-48678047D01*
X131305333Y-48754238D01*
X131305333Y-48868523D01*
X131343428Y-48944714D01*
X131381523Y-48982809D01*
X131457714Y-49020904D01*
X131762476Y-49020904D01*
X131762476Y-48220904D01*
X131495809Y-48220904D01*
X131419619Y-48259000D01*
X131381523Y-48297095D01*
X131343428Y-48373285D01*
X131343428Y-48449476D01*
X131381523Y-48525666D01*
X131419619Y-48563761D01*
X131495809Y-48601857D01*
X131762476Y-48601857D01*
X131000571Y-48982809D02*
X130886285Y-49020904D01*
X130695809Y-49020904D01*
X130619619Y-48982809D01*
X130581523Y-48944714D01*
X130543428Y-48868523D01*
X130543428Y-48792333D01*
X130581523Y-48716142D01*
X130619619Y-48678047D01*
X130695809Y-48639952D01*
X130848190Y-48601857D01*
X130924380Y-48563761D01*
X130962476Y-48525666D01*
X131000571Y-48449476D01*
X131000571Y-48373285D01*
X130962476Y-48297095D01*
X130924380Y-48259000D01*
X130848190Y-48220904D01*
X130657714Y-48220904D01*
X130543428Y-48259000D01*
X129476476Y-58934333D02*
X129095523Y-58934333D01*
X129552666Y-59162904D02*
X129286000Y-58362904D01*
X129019333Y-59162904D01*
D12*
%TO.C,C1*%
X117705142Y-54697333D02*
X117752761Y-54649714D01*
X117800380Y-54506857D01*
X117800380Y-54411619D01*
X117752761Y-54268761D01*
X117657523Y-54173523D01*
X117562285Y-54125904D01*
X117371809Y-54078285D01*
X117228952Y-54078285D01*
X117038476Y-54125904D01*
X116943238Y-54173523D01*
X116848000Y-54268761D01*
X116800380Y-54411619D01*
X116800380Y-54506857D01*
X116848000Y-54649714D01*
X116895619Y-54697333D01*
X117800380Y-55649714D02*
X117800380Y-55078285D01*
X117800380Y-55364000D02*
X116800380Y-55364000D01*
X116943238Y-55268761D01*
X117038476Y-55173523D01*
X117086095Y-55078285D01*
%TO.C,C2*%
X129518666Y-52525142D02*
X129566285Y-52572761D01*
X129709142Y-52620380D01*
X129804380Y-52620380D01*
X129947238Y-52572761D01*
X130042476Y-52477523D01*
X130090095Y-52382285D01*
X130137714Y-52191809D01*
X130137714Y-52048952D01*
X130090095Y-51858476D01*
X130042476Y-51763238D01*
X129947238Y-51668000D01*
X129804380Y-51620380D01*
X129709142Y-51620380D01*
X129566285Y-51668000D01*
X129518666Y-51715619D01*
X129137714Y-51715619D02*
X129090095Y-51668000D01*
X128994857Y-51620380D01*
X128756761Y-51620380D01*
X128661523Y-51668000D01*
X128613904Y-51715619D01*
X128566285Y-51810857D01*
X128566285Y-51906095D01*
X128613904Y-52048952D01*
X129185333Y-52620380D01*
X128566285Y-52620380D01*
%TO.C,R8*%
X121356380Y-47712333D02*
X120880190Y-47379000D01*
X121356380Y-47140904D02*
X120356380Y-47140904D01*
X120356380Y-47521857D01*
X120404000Y-47617095D01*
X120451619Y-47664714D01*
X120546857Y-47712333D01*
X120689714Y-47712333D01*
X120784952Y-47664714D01*
X120832571Y-47617095D01*
X120880190Y-47521857D01*
X120880190Y-47140904D01*
X120784952Y-48283761D02*
X120737333Y-48188523D01*
X120689714Y-48140904D01*
X120594476Y-48093285D01*
X120546857Y-48093285D01*
X120451619Y-48140904D01*
X120404000Y-48188523D01*
X120356380Y-48283761D01*
X120356380Y-48474238D01*
X120404000Y-48569476D01*
X120451619Y-48617095D01*
X120546857Y-48664714D01*
X120594476Y-48664714D01*
X120689714Y-48617095D01*
X120737333Y-48569476D01*
X120784952Y-48474238D01*
X120784952Y-48283761D01*
X120832571Y-48188523D01*
X120880190Y-48140904D01*
X120975428Y-48093285D01*
X121165904Y-48093285D01*
X121261142Y-48140904D01*
X121308761Y-48188523D01*
X121356380Y-48283761D01*
X121356380Y-48474238D01*
X121308761Y-48569476D01*
X121261142Y-48617095D01*
X121165904Y-48664714D01*
X120975428Y-48664714D01*
X120880190Y-48617095D01*
X120832571Y-48569476D01*
X120784952Y-48474238D01*
%TO.C,U1*%
X123443904Y-60412380D02*
X123443904Y-61221904D01*
X123396285Y-61317142D01*
X123348666Y-61364761D01*
X123253428Y-61412380D01*
X123062952Y-61412380D01*
X122967714Y-61364761D01*
X122920095Y-61317142D01*
X122872476Y-61221904D01*
X122872476Y-60412380D01*
X121872476Y-61412380D02*
X122443904Y-61412380D01*
X122158190Y-61412380D02*
X122158190Y-60412380D01*
X122253428Y-60555238D01*
X122348666Y-60650476D01*
X122443904Y-60698095D01*
%TO.C,C3*%
X132246666Y-59666142D02*
X132294285Y-59713761D01*
X132437142Y-59761380D01*
X132532380Y-59761380D01*
X132675238Y-59713761D01*
X132770476Y-59618523D01*
X132818095Y-59523285D01*
X132865714Y-59332809D01*
X132865714Y-59189952D01*
X132818095Y-58999476D01*
X132770476Y-58904238D01*
X132675238Y-58809000D01*
X132532380Y-58761380D01*
X132437142Y-58761380D01*
X132294285Y-58809000D01*
X132246666Y-58856619D01*
X131913333Y-58761380D02*
X131294285Y-58761380D01*
X131627619Y-59142333D01*
X131484761Y-59142333D01*
X131389523Y-59189952D01*
X131341904Y-59237571D01*
X131294285Y-59332809D01*
X131294285Y-59570904D01*
X131341904Y-59666142D01*
X131389523Y-59713761D01*
X131484761Y-59761380D01*
X131770476Y-59761380D01*
X131865714Y-59713761D01*
X131913333Y-59666142D01*
%TO.C,R1*%
X126182380Y-47712333D02*
X125706190Y-47379000D01*
X126182380Y-47140904D02*
X125182380Y-47140904D01*
X125182380Y-47521857D01*
X125230000Y-47617095D01*
X125277619Y-47664714D01*
X125372857Y-47712333D01*
X125515714Y-47712333D01*
X125610952Y-47664714D01*
X125658571Y-47617095D01*
X125706190Y-47521857D01*
X125706190Y-47140904D01*
X126182380Y-48664714D02*
X126182380Y-48093285D01*
X126182380Y-48379000D02*
X125182380Y-48379000D01*
X125325238Y-48283761D01*
X125420476Y-48188523D01*
X125468095Y-48093285D01*
%TO.C,R2*%
X128722380Y-47712333D02*
X128246190Y-47379000D01*
X128722380Y-47140904D02*
X127722380Y-47140904D01*
X127722380Y-47521857D01*
X127770000Y-47617095D01*
X127817619Y-47664714D01*
X127912857Y-47712333D01*
X128055714Y-47712333D01*
X128150952Y-47664714D01*
X128198571Y-47617095D01*
X128246190Y-47521857D01*
X128246190Y-47140904D01*
X127817619Y-48093285D02*
X127770000Y-48140904D01*
X127722380Y-48236142D01*
X127722380Y-48474238D01*
X127770000Y-48569476D01*
X127817619Y-48617095D01*
X127912857Y-48664714D01*
X128008095Y-48664714D01*
X128150952Y-48617095D01*
X128722380Y-48045666D01*
X128722380Y-48664714D01*
%TO.C,R3*%
X123769380Y-47712333D02*
X123293190Y-47379000D01*
X123769380Y-47140904D02*
X122769380Y-47140904D01*
X122769380Y-47521857D01*
X122817000Y-47617095D01*
X122864619Y-47664714D01*
X122959857Y-47712333D01*
X123102714Y-47712333D01*
X123197952Y-47664714D01*
X123245571Y-47617095D01*
X123293190Y-47521857D01*
X123293190Y-47140904D01*
X122769380Y-48045666D02*
X122769380Y-48664714D01*
X123150333Y-48331380D01*
X123150333Y-48474238D01*
X123197952Y-48569476D01*
X123245571Y-48617095D01*
X123340809Y-48664714D01*
X123578904Y-48664714D01*
X123674142Y-48617095D01*
X123721761Y-48569476D01*
X123769380Y-48474238D01*
X123769380Y-48188523D01*
X123721761Y-48093285D01*
X123674142Y-48045666D01*
D10*
%TO.C,C1*%
X118137000Y-55191252D02*
X118137000Y-54668748D01*
X119607000Y-55191252D02*
X119607000Y-54668748D01*
%TO.C,C2*%
X129613252Y-54583000D02*
X129090748Y-54583000D01*
X129613252Y-53113000D02*
X129090748Y-53113000D01*
%TO.C,R8*%
X121814000Y-47217436D02*
X121814000Y-48671564D01*
X119994000Y-47217436D02*
X119994000Y-48671564D01*
%TO.C,U1*%
X123698000Y-60061000D02*
X125648000Y-60061000D01*
X123698000Y-60061000D02*
X120248000Y-60061000D01*
X123698000Y-51191000D02*
X125648000Y-51191000D01*
X123698000Y-51191000D02*
X121748000Y-51191000D01*
%TO.C,C3*%
X135069252Y-59536000D02*
X134546748Y-59536000D01*
X135069252Y-58066000D02*
X134546748Y-58066000D01*
%TO.C,R1*%
X126640000Y-48667564D02*
X126640000Y-47213436D01*
X124820000Y-48667564D02*
X124820000Y-47213436D01*
%TO.C,R2*%
X129053000Y-48671564D02*
X129053000Y-47217436D01*
X127233000Y-48671564D02*
X127233000Y-47217436D01*
%TO.C,R3*%
X124227000Y-47217436D02*
X124227000Y-48671564D01*
X122407000Y-47217436D02*
X122407000Y-48671564D01*
%TD*%
%LPC*%
D13*
%TO.C,J1*%
X134899000Y-61234000D03*
D14*
X134899000Y-63774000D03*
%TD*%
D15*
%TO.C,D4*%
X131826000Y-57150000D03*
D16*
X129286000Y-57150000D03*
%TD*%
D13*
%TO.C,J2*%
X118745000Y-61214000D03*
D14*
X118745000Y-63754000D03*
%TD*%
D17*
%TO.C,BZ1*%
X134874000Y-46406000D03*
D18*
X134874000Y-49606000D03*
%TD*%
D19*
%TO.C,REF2*%
X115697000Y-48133000D03*
%TD*%
D13*
%TO.C,J5*%
X129311000Y-61234000D03*
D14*
X129311000Y-63774000D03*
%TD*%
D13*
%TO.C,J4*%
X126492000Y-61214000D03*
D14*
X126492000Y-63754000D03*
%TD*%
D13*
%TO.C,J3*%
X132105000Y-61234000D03*
D14*
X132105000Y-63774000D03*
%TD*%
D13*
%TO.C,J6*%
X134874000Y-53594000D03*
D14*
X134874000Y-56134000D03*
%TD*%
D20*
%TO.C,C1*%
X118872000Y-55880000D03*
X118872000Y-53980000D03*
%TD*%
D21*
%TO.C,C2*%
X130302000Y-53848000D03*
X128402000Y-53848000D03*
%TD*%
D22*
%TO.C,R8*%
X120904000Y-46482000D03*
X120904000Y-49407000D03*
%TD*%
D23*
%TO.C,U1*%
X121223000Y-59436000D03*
X121223000Y-58166000D03*
X121223000Y-56896000D03*
X121223000Y-55626000D03*
X121223000Y-54356000D03*
X121223000Y-53086000D03*
X121223000Y-51816000D03*
X126173000Y-51816000D03*
X126173000Y-53086000D03*
X126173000Y-54356000D03*
X126173000Y-55626000D03*
X126173000Y-56896000D03*
X126173000Y-58166000D03*
X126173000Y-59436000D03*
%TD*%
D21*
%TO.C,C3*%
X135758000Y-58801000D03*
X133858000Y-58801000D03*
%TD*%
D24*
%TO.C,R1*%
X125730000Y-49403000D03*
X125730000Y-46478000D03*
%TD*%
%TO.C,R2*%
X128143000Y-49407000D03*
X128143000Y-46482000D03*
%TD*%
D22*
%TO.C,R3*%
X123317000Y-46482000D03*
X123317000Y-49407000D03*
%TD*%
M02*
