%TF.GenerationSoftware,KiCad,Pcbnew,6.0.6-1.fc35*%
%TF.CreationDate,2022-07-18T21:23:54+02:00*%
%TF.ProjectId,lm324_4ch_therm,6c6d3332-345f-4346-9368-5f746865726d,rev?*%
%TF.SameCoordinates,Original*%
%TF.FileFunction,Legend,Top*%
%TF.FilePolarity,Positive*%
%FSLAX46Y46*%
G04 Gerber Fmt 4.6, Leading zero omitted, Abs format (unit mm)*
G04 Created by KiCad (PCBNEW 6.0.6-1.fc35) date 2022-07-18 21:23:54*
%MOMM*%
%LPD*%
G01*
G04 APERTURE LIST*
G04 Aperture macros list*
%AMRoundRect*
0 Rectangle with rounded corners*
0 $1 Rounding radius*
0 $2 $3 $4 $5 $6 $7 $8 $9 X,Y pos of 4 corners*
0 Add a 4 corners polygon primitive as box body*
4,1,4,$2,$3,$4,$5,$6,$7,$8,$9,$2,$3,0*
0 Add four circle primitives for the rounded corners*
1,1,$1+$1,$2,$3*
1,1,$1+$1,$4,$5*
1,1,$1+$1,$6,$7*
1,1,$1+$1,$8,$9*
0 Add four rect primitives between the rounded corners*
20,1,$1+$1,$2,$3,$4,$5,0*
20,1,$1+$1,$4,$5,$6,$7,0*
20,1,$1+$1,$6,$7,$8,$9,0*
20,1,$1+$1,$8,$9,$2,$3,0*%
%AMFreePoly0*
4,1,22,0.550000,-0.750000,0.000000,-0.750000,0.000000,-0.745033,-0.079941,-0.743568,-0.215256,-0.701293,-0.333266,-0.622738,-0.424486,-0.514219,-0.481581,-0.384460,-0.499164,-0.250000,-0.500000,-0.250000,-0.500000,0.250000,-0.499164,0.250000,-0.499963,0.256109,-0.478152,0.396186,-0.417904,0.524511,-0.324060,0.630769,-0.204165,0.706417,-0.067858,0.745374,0.000000,0.744959,0.000000,0.750000,
0.550000,0.750000,0.550000,-0.750000,0.550000,-0.750000,$1*%
%AMFreePoly1*
4,1,20,0.000000,0.744959,0.073905,0.744508,0.209726,0.703889,0.328688,0.626782,0.421226,0.519385,0.479903,0.390333,0.500000,0.250000,0.500000,-0.250000,0.499851,-0.262216,0.476331,-0.402017,0.414519,-0.529596,0.319384,-0.634700,0.198574,-0.708877,0.061801,-0.746166,0.000000,-0.745033,0.000000,-0.750000,-0.550000,-0.750000,-0.550000,0.750000,0.000000,0.750000,0.000000,0.744959,
0.000000,0.744959,$1*%
G04 Aperture macros list end*
%ADD10C,0.130000*%
%ADD11C,0.150000*%
%ADD12C,0.120000*%
%ADD13R,1.700000X1.700000*%
%ADD14O,1.700000X1.700000*%
%ADD15R,1.800000X1.800000*%
%ADD16C,1.800000*%
%ADD17R,1.600000X1.600000*%
%ADD18C,1.600000*%
%ADD19R,1.700000X1.300000*%
%ADD20R,0.500000X0.800000*%
%ADD21R,0.400000X0.800000*%
%ADD22FreePoly0,0.000000*%
%ADD23R,1.000000X1.500000*%
%ADD24FreePoly1,0.000000*%
%ADD25C,5.600000*%
%ADD26R,0.900000X0.800000*%
%ADD27R,1.300000X1.700000*%
%ADD28RoundRect,0.250000X0.475000X-0.250000X0.475000X0.250000X-0.475000X0.250000X-0.475000X-0.250000X0*%
%ADD29R,0.800000X0.900000*%
G04 APERTURE END LIST*
D10*
X117532095Y-60934619D02*
X117532095Y-60553666D01*
X117151142Y-60515571D01*
X117189238Y-60553666D01*
X117227333Y-60629857D01*
X117227333Y-60820333D01*
X117189238Y-60896523D01*
X117151142Y-60934619D01*
X117074952Y-60972714D01*
X116884476Y-60972714D01*
X116808285Y-60934619D01*
X116770190Y-60896523D01*
X116732095Y-60820333D01*
X116732095Y-60629857D01*
X116770190Y-60553666D01*
X116808285Y-60515571D01*
X117532095Y-61201285D02*
X116732095Y-61467952D01*
X117532095Y-61734619D01*
D11*
%TO.C,J1*%
X134921666Y-58380380D02*
X134921666Y-59094666D01*
X134874047Y-59237523D01*
X134778809Y-59332761D01*
X134635952Y-59380380D01*
X134540714Y-59380380D01*
X135921666Y-59380380D02*
X135350238Y-59380380D01*
X135635952Y-59380380D02*
X135635952Y-58380380D01*
X135540714Y-58523238D01*
X135445476Y-58618476D01*
X135350238Y-58666095D01*
%TO.C,D4*%
X127150904Y-56205380D02*
X127150904Y-55205380D01*
X127389000Y-55205380D01*
X127531857Y-55253000D01*
X127627095Y-55348238D01*
X127674714Y-55443476D01*
X127722333Y-55633952D01*
X127722333Y-55776809D01*
X127674714Y-55967285D01*
X127627095Y-56062523D01*
X127531857Y-56157761D01*
X127389000Y-56205380D01*
X127150904Y-56205380D01*
X128579476Y-55538714D02*
X128579476Y-56205380D01*
X128341380Y-55157761D02*
X128103285Y-55872047D01*
X128722333Y-55872047D01*
%TO.C,J2*%
X117395666Y-58634380D02*
X117395666Y-59348666D01*
X117348047Y-59491523D01*
X117252809Y-59586761D01*
X117109952Y-59634380D01*
X117014714Y-59634380D01*
X117824238Y-58729619D02*
X117871857Y-58682000D01*
X117967095Y-58634380D01*
X118205190Y-58634380D01*
X118300428Y-58682000D01*
X118348047Y-58729619D01*
X118395666Y-58824857D01*
X118395666Y-58920095D01*
X118348047Y-59062952D01*
X117776619Y-59634380D01*
X118395666Y-59634380D01*
%TO.C,BZ1*%
X132770571Y-49267952D02*
X132818190Y-49125095D01*
X132865809Y-49077476D01*
X132961047Y-49029857D01*
X133103904Y-49029857D01*
X133199142Y-49077476D01*
X133246761Y-49125095D01*
X133294380Y-49220333D01*
X133294380Y-49601285D01*
X132294380Y-49601285D01*
X132294380Y-49267952D01*
X132342000Y-49172714D01*
X132389619Y-49125095D01*
X132484857Y-49077476D01*
X132580095Y-49077476D01*
X132675333Y-49125095D01*
X132722952Y-49172714D01*
X132770571Y-49267952D01*
X132770571Y-49601285D01*
X132294380Y-48696523D02*
X132294380Y-48029857D01*
X133294380Y-48696523D01*
X133294380Y-48029857D01*
X133294380Y-47125095D02*
X133294380Y-47696523D01*
X133294380Y-47410809D02*
X132294380Y-47410809D01*
X132437238Y-47506047D01*
X132532476Y-47601285D01*
X132580095Y-47696523D01*
X133167428Y-46608952D02*
X133167428Y-45847047D01*
X133548380Y-46228000D02*
X132786476Y-46228000D01*
%TO.C,D1*%
X120594380Y-55094095D02*
X119594380Y-55094095D01*
X119594380Y-54856000D01*
X119642000Y-54713142D01*
X119737238Y-54617904D01*
X119832476Y-54570285D01*
X120022952Y-54522666D01*
X120165809Y-54522666D01*
X120356285Y-54570285D01*
X120451523Y-54617904D01*
X120546761Y-54713142D01*
X120594380Y-54856000D01*
X120594380Y-55094095D01*
X120594380Y-53570285D02*
X120594380Y-54141714D01*
X120594380Y-53856000D02*
X119594380Y-53856000D01*
X119737238Y-53951238D01*
X119832476Y-54046476D01*
X119880095Y-54141714D01*
%TO.C,RN2*%
X131770380Y-54030476D02*
X131294190Y-54363809D01*
X131770380Y-54601904D02*
X130770380Y-54601904D01*
X130770380Y-54220952D01*
X130818000Y-54125714D01*
X130865619Y-54078095D01*
X130960857Y-54030476D01*
X131103714Y-54030476D01*
X131198952Y-54078095D01*
X131246571Y-54125714D01*
X131294190Y-54220952D01*
X131294190Y-54601904D01*
X131770380Y-53601904D02*
X130770380Y-53601904D01*
X131770380Y-53030476D01*
X130770380Y-53030476D01*
X130865619Y-52601904D02*
X130818000Y-52554285D01*
X130770380Y-52459047D01*
X130770380Y-52220952D01*
X130818000Y-52125714D01*
X130865619Y-52078095D01*
X130960857Y-52030476D01*
X131056095Y-52030476D01*
X131198952Y-52078095D01*
X131770380Y-52649523D01*
X131770380Y-52030476D01*
%TO.C,RN1*%
X118816523Y-58364380D02*
X118483190Y-57888190D01*
X118245095Y-58364380D02*
X118245095Y-57364380D01*
X118626047Y-57364380D01*
X118721285Y-57412000D01*
X118768904Y-57459619D01*
X118816523Y-57554857D01*
X118816523Y-57697714D01*
X118768904Y-57792952D01*
X118721285Y-57840571D01*
X118626047Y-57888190D01*
X118245095Y-57888190D01*
X119245095Y-58364380D02*
X119245095Y-57364380D01*
X119816523Y-58364380D01*
X119816523Y-57364380D01*
X120816523Y-58364380D02*
X120245095Y-58364380D01*
X120530809Y-58364380D02*
X120530809Y-57364380D01*
X120435571Y-57507238D01*
X120340333Y-57602476D01*
X120245095Y-57650095D01*
%TO.C,JP2*%
X125150666Y-45426380D02*
X125150666Y-46140666D01*
X125103047Y-46283523D01*
X125007809Y-46378761D01*
X124864952Y-46426380D01*
X124769714Y-46426380D01*
X125626857Y-46426380D02*
X125626857Y-45426380D01*
X126007809Y-45426380D01*
X126103047Y-45474000D01*
X126150666Y-45521619D01*
X126198285Y-45616857D01*
X126198285Y-45759714D01*
X126150666Y-45854952D01*
X126103047Y-45902571D01*
X126007809Y-45950190D01*
X125626857Y-45950190D01*
X126579238Y-45521619D02*
X126626857Y-45474000D01*
X126722095Y-45426380D01*
X126960190Y-45426380D01*
X127055428Y-45474000D01*
X127103047Y-45521619D01*
X127150666Y-45616857D01*
X127150666Y-45712095D01*
X127103047Y-45854952D01*
X126531619Y-46426380D01*
X127150666Y-46426380D01*
X119321714Y-46934380D02*
X118750285Y-46934380D01*
X119036000Y-46934380D02*
X119036000Y-45934380D01*
X118940761Y-46077238D01*
X118845523Y-46172476D01*
X118750285Y-46220095D01*
X123902666Y-45934380D02*
X124521714Y-45934380D01*
X124188380Y-46315333D01*
X124331238Y-46315333D01*
X124426476Y-46362952D01*
X124474095Y-46410571D01*
X124521714Y-46505809D01*
X124521714Y-46743904D01*
X124474095Y-46839142D01*
X124426476Y-46886761D01*
X124331238Y-46934380D01*
X124045523Y-46934380D01*
X123950285Y-46886761D01*
X123902666Y-46839142D01*
%TO.C,J5*%
X127682666Y-58253380D02*
X127682666Y-58967666D01*
X127635047Y-59110523D01*
X127539809Y-59205761D01*
X127396952Y-59253380D01*
X127301714Y-59253380D01*
X128635047Y-58253380D02*
X128158857Y-58253380D01*
X128111238Y-58729571D01*
X128158857Y-58681952D01*
X128254095Y-58634333D01*
X128492190Y-58634333D01*
X128587428Y-58681952D01*
X128635047Y-58729571D01*
X128682666Y-58824809D01*
X128682666Y-59062904D01*
X128635047Y-59158142D01*
X128587428Y-59205761D01*
X128492190Y-59253380D01*
X128254095Y-59253380D01*
X128158857Y-59205761D01*
X128111238Y-59158142D01*
%TO.C,J4*%
X125269666Y-58253380D02*
X125269666Y-58967666D01*
X125222047Y-59110523D01*
X125126809Y-59205761D01*
X124983952Y-59253380D01*
X124888714Y-59253380D01*
X126174428Y-58586714D02*
X126174428Y-59253380D01*
X125936333Y-58205761D02*
X125698238Y-58920047D01*
X126317285Y-58920047D01*
%TO.C,Q1*%
X128174761Y-48172619D02*
X128079523Y-48125000D01*
X127984285Y-48029761D01*
X127841428Y-47886904D01*
X127746190Y-47839285D01*
X127650952Y-47839285D01*
X127698571Y-48077380D02*
X127603333Y-48029761D01*
X127508095Y-47934523D01*
X127460476Y-47744047D01*
X127460476Y-47410714D01*
X127508095Y-47220238D01*
X127603333Y-47125000D01*
X127698571Y-47077380D01*
X127889047Y-47077380D01*
X127984285Y-47125000D01*
X128079523Y-47220238D01*
X128127142Y-47410714D01*
X128127142Y-47744047D01*
X128079523Y-47934523D01*
X127984285Y-48029761D01*
X127889047Y-48077380D01*
X127698571Y-48077380D01*
X129079523Y-48077380D02*
X128508095Y-48077380D01*
X128793809Y-48077380D02*
X128793809Y-47077380D01*
X128698571Y-47220238D01*
X128603333Y-47315476D01*
X128508095Y-47363095D01*
%TO.C,D3*%
X123467904Y-56713380D02*
X123467904Y-55713380D01*
X123706000Y-55713380D01*
X123848857Y-55761000D01*
X123944095Y-55856238D01*
X123991714Y-55951476D01*
X124039333Y-56141952D01*
X124039333Y-56284809D01*
X123991714Y-56475285D01*
X123944095Y-56570523D01*
X123848857Y-56665761D01*
X123706000Y-56713380D01*
X123467904Y-56713380D01*
X124372666Y-55713380D02*
X124991714Y-55713380D01*
X124658380Y-56094333D01*
X124801238Y-56094333D01*
X124896476Y-56141952D01*
X124944095Y-56189571D01*
X124991714Y-56284809D01*
X124991714Y-56522904D01*
X124944095Y-56618142D01*
X124896476Y-56665761D01*
X124801238Y-56713380D01*
X124515523Y-56713380D01*
X124420285Y-56665761D01*
X124372666Y-56618142D01*
%TO.C,C4*%
X122150142Y-63666666D02*
X122197761Y-63714285D01*
X122245380Y-63857142D01*
X122245380Y-63952380D01*
X122197761Y-64095238D01*
X122102523Y-64190476D01*
X122007285Y-64238095D01*
X121816809Y-64285714D01*
X121673952Y-64285714D01*
X121483476Y-64238095D01*
X121388238Y-64190476D01*
X121293000Y-64095238D01*
X121245380Y-63952380D01*
X121245380Y-63857142D01*
X121293000Y-63714285D01*
X121340619Y-63666666D01*
X121578714Y-62809523D02*
X122245380Y-62809523D01*
X121197761Y-63047619D02*
X121912047Y-63285714D01*
X121912047Y-62666666D01*
%TO.C,J3*%
X132635666Y-58380380D02*
X132635666Y-59094666D01*
X132588047Y-59237523D01*
X132492809Y-59332761D01*
X132349952Y-59380380D01*
X132254714Y-59380380D01*
X133016619Y-58380380D02*
X133635666Y-58380380D01*
X133302333Y-58761333D01*
X133445190Y-58761333D01*
X133540428Y-58808952D01*
X133588047Y-58856571D01*
X133635666Y-58951809D01*
X133635666Y-59189904D01*
X133588047Y-59285142D01*
X133540428Y-59332761D01*
X133445190Y-59380380D01*
X133159476Y-59380380D01*
X133064238Y-59332761D01*
X133016619Y-59285142D01*
%TO.C,D5*%
X123467904Y-54427380D02*
X123467904Y-53427380D01*
X123706000Y-53427380D01*
X123848857Y-53475000D01*
X123944095Y-53570238D01*
X123991714Y-53665476D01*
X124039333Y-53855952D01*
X124039333Y-53998809D01*
X123991714Y-54189285D01*
X123944095Y-54284523D01*
X123848857Y-54379761D01*
X123706000Y-54427380D01*
X123467904Y-54427380D01*
X124944095Y-53427380D02*
X124467904Y-53427380D01*
X124420285Y-53903571D01*
X124467904Y-53855952D01*
X124563142Y-53808333D01*
X124801238Y-53808333D01*
X124896476Y-53855952D01*
X124944095Y-53903571D01*
X124991714Y-53998809D01*
X124991714Y-54236904D01*
X124944095Y-54332142D01*
X124896476Y-54379761D01*
X124801238Y-54427380D01*
X124563142Y-54427380D01*
X124467904Y-54379761D01*
X124420285Y-54332142D01*
%TO.C,Q2*%
X130079761Y-48172619D02*
X129984523Y-48125000D01*
X129889285Y-48029761D01*
X129746428Y-47886904D01*
X129651190Y-47839285D01*
X129555952Y-47839285D01*
X129603571Y-48077380D02*
X129508333Y-48029761D01*
X129413095Y-47934523D01*
X129365476Y-47744047D01*
X129365476Y-47410714D01*
X129413095Y-47220238D01*
X129508333Y-47125000D01*
X129603571Y-47077380D01*
X129794047Y-47077380D01*
X129889285Y-47125000D01*
X129984523Y-47220238D01*
X130032142Y-47410714D01*
X130032142Y-47744047D01*
X129984523Y-47934523D01*
X129889285Y-48029761D01*
X129794047Y-48077380D01*
X129603571Y-48077380D01*
X130413095Y-47172619D02*
X130460714Y-47125000D01*
X130555952Y-47077380D01*
X130794047Y-47077380D01*
X130889285Y-47125000D01*
X130936904Y-47172619D01*
X130984523Y-47267857D01*
X130984523Y-47363095D01*
X130936904Y-47505952D01*
X130365476Y-48077380D01*
X130984523Y-48077380D01*
%TO.C,JP1*%
X118292666Y-50379380D02*
X118292666Y-51093666D01*
X118245047Y-51236523D01*
X118149809Y-51331761D01*
X118006952Y-51379380D01*
X117911714Y-51379380D01*
X118768857Y-51379380D02*
X118768857Y-50379380D01*
X119149809Y-50379380D01*
X119245047Y-50427000D01*
X119292666Y-50474619D01*
X119340285Y-50569857D01*
X119340285Y-50712714D01*
X119292666Y-50807952D01*
X119245047Y-50855571D01*
X119149809Y-50903190D01*
X118768857Y-50903190D01*
X120292666Y-51379380D02*
X119721238Y-51379380D01*
X120006952Y-51379380D02*
X120006952Y-50379380D01*
X119911714Y-50522238D01*
X119816476Y-50617476D01*
X119721238Y-50665095D01*
X123745666Y-49236380D02*
X124364714Y-49236380D01*
X124031380Y-49617333D01*
X124174238Y-49617333D01*
X124269476Y-49664952D01*
X124317095Y-49712571D01*
X124364714Y-49807809D01*
X124364714Y-50045904D01*
X124317095Y-50141142D01*
X124269476Y-50188761D01*
X124174238Y-50236380D01*
X123888523Y-50236380D01*
X123793285Y-50188761D01*
X123745666Y-50141142D01*
X119321714Y-49474380D02*
X118750285Y-49474380D01*
X119036000Y-49474380D02*
X119036000Y-48474380D01*
X118940761Y-48617238D01*
X118845523Y-48712476D01*
X118750285Y-48760095D01*
%TO.C,D2*%
X123467904Y-52014380D02*
X123467904Y-51014380D01*
X123706000Y-51014380D01*
X123848857Y-51062000D01*
X123944095Y-51157238D01*
X123991714Y-51252476D01*
X124039333Y-51442952D01*
X124039333Y-51585809D01*
X123991714Y-51776285D01*
X123944095Y-51871523D01*
X123848857Y-51966761D01*
X123706000Y-52014380D01*
X123467904Y-52014380D01*
X124420285Y-51109619D02*
X124467904Y-51062000D01*
X124563142Y-51014380D01*
X124801238Y-51014380D01*
X124896476Y-51062000D01*
X124944095Y-51109619D01*
X124991714Y-51204857D01*
X124991714Y-51300095D01*
X124944095Y-51442952D01*
X124372666Y-52014380D01*
X124991714Y-52014380D01*
%TO.C,C5*%
X124182142Y-63666666D02*
X124229761Y-63714285D01*
X124277380Y-63857142D01*
X124277380Y-63952380D01*
X124229761Y-64095238D01*
X124134523Y-64190476D01*
X124039285Y-64238095D01*
X123848809Y-64285714D01*
X123705952Y-64285714D01*
X123515476Y-64238095D01*
X123420238Y-64190476D01*
X123325000Y-64095238D01*
X123277380Y-63952380D01*
X123277380Y-63857142D01*
X123325000Y-63714285D01*
X123372619Y-63666666D01*
X123277380Y-62761904D02*
X123277380Y-63238095D01*
X123753571Y-63285714D01*
X123705952Y-63238095D01*
X123658333Y-63142857D01*
X123658333Y-62904761D01*
X123705952Y-62809523D01*
X123753571Y-62761904D01*
X123848809Y-62714285D01*
X124086904Y-62714285D01*
X124182142Y-62761904D01*
X124229761Y-62809523D01*
X124277380Y-62904761D01*
X124277380Y-63142857D01*
X124229761Y-63238095D01*
X124182142Y-63285714D01*
%TO.C,J6*%
X132040380Y-52276333D02*
X132754666Y-52276333D01*
X132897523Y-52323952D01*
X132992761Y-52419190D01*
X133040380Y-52562047D01*
X133040380Y-52657285D01*
X132040380Y-51371571D02*
X132040380Y-51562047D01*
X132088000Y-51657285D01*
X132135619Y-51704904D01*
X132278476Y-51800142D01*
X132468952Y-51847761D01*
X132849904Y-51847761D01*
X132945142Y-51800142D01*
X132992761Y-51752523D01*
X133040380Y-51657285D01*
X133040380Y-51466809D01*
X132992761Y-51371571D01*
X132945142Y-51323952D01*
X132849904Y-51276333D01*
X132611809Y-51276333D01*
X132516571Y-51323952D01*
X132468952Y-51371571D01*
X132421333Y-51466809D01*
X132421333Y-51657285D01*
X132468952Y-51752523D01*
X132516571Y-51800142D01*
X132611809Y-51847761D01*
D12*
%TO.C,J1*%
X133569000Y-62504000D02*
X136229000Y-62504000D01*
X133569000Y-65104000D02*
X136229000Y-65104000D01*
X134899000Y-59904000D02*
X136229000Y-59904000D01*
X136229000Y-62504000D02*
X136229000Y-65104000D01*
X136229000Y-59904000D02*
X136229000Y-61234000D01*
X133569000Y-62504000D02*
X133569000Y-65104000D01*
%TO.C,D4*%
X132116000Y-58386000D02*
X132116000Y-58230000D01*
X132116000Y-56070000D02*
X132116000Y-55914000D01*
X129514870Y-58229837D02*
G75*
G03*
X131596961Y-58230000I1041130J1079837D01*
G01*
X131596961Y-56070000D02*
G75*
G03*
X129514870Y-56070163I-1040961J-1080000D01*
G01*
X132116000Y-55914484D02*
G75*
G03*
X128883665Y-56071392I-1560000J-1235516D01*
G01*
X128883665Y-58228608D02*
G75*
G03*
X132116000Y-58385516I1672335J1078608D01*
G01*
%TO.C,J2*%
X120075000Y-62484000D02*
X120075000Y-65084000D01*
X117415000Y-62484000D02*
X120075000Y-62484000D01*
X117415000Y-62484000D02*
X117415000Y-65084000D01*
X117415000Y-65084000D02*
X120075000Y-65084000D01*
X120075000Y-59884000D02*
X120075000Y-61214000D01*
X118745000Y-59884000D02*
X120075000Y-59884000D01*
%TO.C,BZ1*%
X138274000Y-48006000D02*
G75*
G03*
X138274000Y-48006000I-3400000J0D01*
G01*
%TO.C,D1*%
X119142000Y-52606000D02*
X119142000Y-56906000D01*
X119142000Y-56906000D02*
X121142000Y-56906000D01*
X121142000Y-56906000D02*
X121142000Y-52606000D01*
%TO.C,RN2*%
X130458000Y-53840000D02*
X130458000Y-52840000D01*
X127098000Y-53840000D02*
X127098000Y-52840000D01*
%TO.C,RN1*%
X124362000Y-58936000D02*
X124362000Y-59936000D01*
X121002000Y-58936000D02*
X121002000Y-59936000D01*
%TO.C,JP2*%
X120236000Y-45482000D02*
X123036000Y-45482000D01*
X119586000Y-46782000D02*
X119586000Y-46182000D01*
X123036000Y-47482000D02*
X120236000Y-47482000D01*
X123686000Y-46182000D02*
X123686000Y-46782000D01*
X122986000Y-47482000D02*
G75*
G03*
X123686000Y-46782000I0J700000D01*
G01*
X123686000Y-46182000D02*
G75*
G03*
X122986000Y-45482000I-700000J0D01*
G01*
X120286000Y-45482000D02*
G75*
G03*
X119586000Y-46182000I-1J-699999D01*
G01*
X119586000Y-46782000D02*
G75*
G03*
X120286000Y-47482000I699999J-1D01*
G01*
%TO.C,J5*%
X127981000Y-65104000D02*
X130641000Y-65104000D01*
X130641000Y-59904000D02*
X130641000Y-61234000D01*
X127981000Y-62504000D02*
X127981000Y-65104000D01*
X127981000Y-62504000D02*
X130641000Y-62504000D01*
X129311000Y-59904000D02*
X130641000Y-59904000D01*
X130641000Y-62504000D02*
X130641000Y-65104000D01*
%TO.C,J4*%
X127822000Y-62484000D02*
X127822000Y-65084000D01*
X127822000Y-59884000D02*
X127822000Y-61214000D01*
X125162000Y-65084000D02*
X127822000Y-65084000D01*
X125162000Y-62484000D02*
X127822000Y-62484000D01*
X126492000Y-59884000D02*
X127822000Y-59884000D01*
X125162000Y-62484000D02*
X125162000Y-65084000D01*
%TO.C,Q1*%
X124945000Y-50144000D02*
X127105000Y-50144000D01*
X124945000Y-50144000D02*
X124945000Y-49214000D01*
X124945000Y-46984000D02*
X126405000Y-46984000D01*
X124945000Y-46984000D02*
X124945000Y-47914000D01*
%TO.C,D3*%
X121656000Y-55134000D02*
X121656000Y-57134000D01*
X121656000Y-57134000D02*
X125956000Y-57134000D01*
X125956000Y-55134000D02*
X121656000Y-55134000D01*
%TO.C,C4*%
X122401000Y-63253252D02*
X122401000Y-62730748D01*
X120931000Y-63253252D02*
X120931000Y-62730748D01*
%TO.C,J3*%
X133435000Y-59904000D02*
X133435000Y-61234000D01*
X130775000Y-62504000D02*
X133435000Y-62504000D01*
X130775000Y-65104000D02*
X133435000Y-65104000D01*
X132105000Y-59904000D02*
X133435000Y-59904000D01*
X130775000Y-62504000D02*
X130775000Y-65104000D01*
X133435000Y-62504000D02*
X133435000Y-65104000D01*
%TO.C,D5*%
X121656000Y-54873400D02*
X125956000Y-54873400D01*
X121656000Y-52873400D02*
X121656000Y-54873400D01*
X125956000Y-52873400D02*
X121656000Y-52873400D01*
%TO.C,Q2*%
X127656000Y-49126000D02*
X128586000Y-49126000D01*
X130816000Y-49126000D02*
X130816000Y-50586000D01*
X127656000Y-49126000D02*
X127656000Y-51286000D01*
X130816000Y-49126000D02*
X129886000Y-49126000D01*
%TO.C,JP1*%
X123686000Y-48722000D02*
X123686000Y-49322000D01*
X123036000Y-50022000D02*
X120236000Y-50022000D01*
X119586000Y-49322000D02*
X119586000Y-48722000D01*
X120236000Y-48022000D02*
X123036000Y-48022000D01*
X123686000Y-48722000D02*
G75*
G03*
X122986000Y-48022000I-700000J0D01*
G01*
X122986000Y-50022000D02*
G75*
G03*
X123686000Y-49322000I0J700000D01*
G01*
X119586000Y-49322000D02*
G75*
G03*
X120286000Y-50022000I699999J-1D01*
G01*
X120286000Y-48022000D02*
G75*
G03*
X119586000Y-48722000I-1J-699999D01*
G01*
%TO.C,D2*%
X125981400Y-50460400D02*
X121681400Y-50460400D01*
X121681400Y-50460400D02*
X121681400Y-52460400D01*
X121681400Y-52460400D02*
X125981400Y-52460400D01*
%TO.C,C5*%
X124433000Y-63253252D02*
X124433000Y-62730748D01*
X122963000Y-63253252D02*
X122963000Y-62730748D01*
%TO.C,J6*%
X133544000Y-54864000D02*
X133544000Y-57464000D01*
X133544000Y-57464000D02*
X136204000Y-57464000D01*
X133544000Y-54864000D02*
X136204000Y-54864000D01*
X136204000Y-54864000D02*
X136204000Y-57464000D01*
X134874000Y-52264000D02*
X136204000Y-52264000D01*
X136204000Y-52264000D02*
X136204000Y-53594000D01*
%TD*%
%LPC*%
D13*
%TO.C,J1*%
X134899000Y-61234000D03*
D14*
X134899000Y-63774000D03*
%TD*%
D15*
%TO.C,D4*%
X131826000Y-57150000D03*
D16*
X129286000Y-57150000D03*
%TD*%
D13*
%TO.C,J2*%
X118745000Y-61214000D03*
D14*
X118745000Y-63754000D03*
%TD*%
D17*
%TO.C,BZ1*%
X134874000Y-46406000D03*
D18*
X134874000Y-49606000D03*
%TD*%
D19*
%TO.C,D1*%
X120142000Y-56106000D03*
X120142000Y-52606000D03*
%TD*%
D20*
%TO.C,RN2*%
X129978000Y-52440000D03*
D21*
X129178000Y-52440000D03*
X128378000Y-52440000D03*
D20*
X127578000Y-52440000D03*
X127578000Y-54240000D03*
D21*
X128378000Y-54240000D03*
X129178000Y-54240000D03*
D20*
X129978000Y-54240000D03*
%TD*%
%TO.C,RN1*%
X121482000Y-60336000D03*
D21*
X122282000Y-60336000D03*
X123082000Y-60336000D03*
D20*
X123882000Y-60336000D03*
X123882000Y-58536000D03*
D21*
X123082000Y-58536000D03*
X122282000Y-58536000D03*
D20*
X121482000Y-58536000D03*
%TD*%
D22*
%TO.C,JP2*%
X120336000Y-46482000D03*
D23*
X121636000Y-46482000D03*
D24*
X122936000Y-46482000D03*
%TD*%
D25*
%TO.C,REF2*%
X115697000Y-48133000D03*
%TD*%
D13*
%TO.C,J5*%
X129311000Y-61234000D03*
D14*
X129311000Y-63774000D03*
%TD*%
D13*
%TO.C,J4*%
X126492000Y-61214000D03*
D14*
X126492000Y-63754000D03*
%TD*%
D26*
%TO.C,Q1*%
X126705000Y-49514000D03*
X126705000Y-47614000D03*
X124705000Y-48564000D03*
%TD*%
D27*
%TO.C,D3*%
X122456000Y-56134000D03*
X125956000Y-56134000D03*
%TD*%
D28*
%TO.C,C4*%
X121666000Y-63942000D03*
X121666000Y-62042000D03*
%TD*%
D13*
%TO.C,J3*%
X132105000Y-61234000D03*
D14*
X132105000Y-63774000D03*
%TD*%
D27*
%TO.C,D5*%
X122456000Y-53873400D03*
X125956000Y-53873400D03*
%TD*%
D29*
%TO.C,Q2*%
X128286000Y-50886000D03*
X130186000Y-50886000D03*
X129236000Y-48886000D03*
%TD*%
D22*
%TO.C,JP1*%
X120336000Y-49022000D03*
D23*
X121636000Y-49022000D03*
D24*
X122936000Y-49022000D03*
%TD*%
D27*
%TO.C,D2*%
X122481400Y-51460400D03*
X125981400Y-51460400D03*
%TD*%
D28*
%TO.C,C5*%
X123698000Y-63942000D03*
X123698000Y-62042000D03*
%TD*%
D13*
%TO.C,J6*%
X134874000Y-53594000D03*
D14*
X134874000Y-56134000D03*
%TD*%
M02*
