%FSLAX45Y45*%
G04 Gerber Fmt 4.5, Leading zero omitted, Abs format (unit mm)*
G04 Created by KiCad (PCBNEW 6.0.6-1.fc35) date 2022-08-01 00:07:57*
%MOMM*%
%LPD*%
G01*
G04 APERTURE LIST*
%TA.AperFunction,Profile*%
%ADD10C,0.050000*%
%TD*%
%ADD11C,0.200000*%
%ADD12C,0.040000*%
%ADD13C,0.090000*%
%ADD14C,0.100000*%
%ADD15C,0.320000*%
G04 APERTURE END LIST*
D10*
X11569700Y-4495800D02*
G75*
G03*
X11569700Y-5130800I0J-317500D01*
G01*
X13690600Y-4495800D02*
X13690600Y-6565900D01*
X13690600Y-6565900D02*
X11633200Y-6565900D01*
X11569700Y-4495800D02*
X13690600Y-4495800D01*
X11633200Y-5232400D02*
X11633200Y-6565900D01*
X11633196Y-5232400D02*
G75*
G03*
X11569700Y-5130800I-97336J9810D01*
G01*
D11*
D12*
X11679670Y-6453690D02*
X11719670Y-6493690D01*
X11719670Y-6453690D02*
X11679670Y-6493690D01*
X11874460Y-4541050D02*
X11914460Y-4581050D01*
X11914460Y-4541050D02*
X11874460Y-4581050D01*
X11936910Y-5716290D02*
X11976910Y-5756290D01*
X11976910Y-5716290D02*
X11936910Y-5756290D01*
X11943460Y-5831460D02*
X11983460Y-5871460D01*
X11983460Y-5831460D02*
X11943460Y-5871460D01*
X11953760Y-4752270D02*
X11993760Y-4792270D01*
X11993760Y-4752270D02*
X11953760Y-4792270D01*
X12010660Y-6230060D02*
X12050660Y-6270060D01*
X12050660Y-6230060D02*
X12010660Y-6270060D01*
X12351340Y-4755200D02*
X12391340Y-4795200D01*
X12391340Y-4755200D02*
X12351340Y-4795200D01*
X12352900Y-5593400D02*
X12392900Y-5633400D01*
X12392900Y-5593400D02*
X12352900Y-5633400D01*
X12353930Y-5046930D02*
X12393930Y-5086930D01*
X12393930Y-5046930D02*
X12353930Y-5086930D01*
X12422590Y-5122130D02*
X12462590Y-5162130D01*
X12462590Y-5122130D02*
X12422590Y-5162130D01*
X12438700Y-5745800D02*
X12478700Y-5785800D01*
X12478700Y-5745800D02*
X12438700Y-5785800D01*
X12462920Y-6009380D02*
X12502920Y-6049380D01*
X12502920Y-6009380D02*
X12462920Y-6049380D01*
X12919750Y-4718140D02*
X12959750Y-4758140D01*
X12959750Y-4718140D02*
X12919750Y-4758140D01*
X13088100Y-4905900D02*
X13128100Y-4945900D01*
X13128100Y-4905900D02*
X13088100Y-4945900D01*
X13094020Y-5222560D02*
X13134020Y-5262560D01*
X13134020Y-5222560D02*
X13094020Y-5262560D01*
X13135950Y-5928940D02*
X13175950Y-5968940D01*
X13175950Y-5928940D02*
X13135950Y-5968940D01*
X13262430Y-4638590D02*
X13302430Y-4678590D01*
X13302430Y-4638590D02*
X13262430Y-4678590D01*
D13*
X12973600Y-5715000D02*
G75*
G03*
X12973600Y-5715000I-45000J0D01*
G01*
X13227600Y-5715000D02*
G75*
G03*
X13227600Y-5715000I-45000J0D01*
G01*
D14*
X11874500Y-6071400D02*
X11874500Y-6171400D01*
X11824500Y-6121400D02*
X11924500Y-6121400D01*
X11874500Y-6325400D02*
X11874500Y-6425400D01*
X11824500Y-6375400D02*
X11924500Y-6375400D01*
X12649200Y-6071400D02*
X12649200Y-6171400D01*
X12599200Y-6121400D02*
X12699200Y-6121400D01*
X12649200Y-6325400D02*
X12649200Y-6425400D01*
X12599200Y-6375400D02*
X12699200Y-6375400D01*
X12931100Y-6073400D02*
X12931100Y-6173400D01*
X12881100Y-6123400D02*
X12981100Y-6123400D01*
X12931100Y-6327400D02*
X12931100Y-6427400D01*
X12881100Y-6377400D02*
X12981100Y-6377400D01*
X13210500Y-6073400D02*
X13210500Y-6173400D01*
X13160500Y-6123400D02*
X13260500Y-6123400D01*
X13210500Y-6327400D02*
X13210500Y-6427400D01*
X13160500Y-6377400D02*
X13260500Y-6377400D01*
X13487400Y-4590600D02*
X13487400Y-4690600D01*
X13437400Y-4640600D02*
X13537400Y-4640600D01*
X13487400Y-4910600D02*
X13487400Y-5010600D01*
X13437400Y-4960600D02*
X13537400Y-4960600D01*
X13487400Y-5309400D02*
X13487400Y-5409400D01*
X13437400Y-5359400D02*
X13537400Y-5359400D01*
X13487400Y-5563400D02*
X13487400Y-5663400D01*
X13437400Y-5613400D02*
X13537400Y-5613400D01*
X13489900Y-6073400D02*
X13489900Y-6173400D01*
X13439900Y-6123400D02*
X13539900Y-6123400D01*
X13489900Y-6327400D02*
X13489900Y-6427400D01*
X13439900Y-6377400D02*
X13539900Y-6377400D01*
D15*
X11682838Y-4926438D02*
X11682838Y-4700162D01*
X11456562Y-4700162D01*
X11456562Y-4926438D01*
X11682838Y-4926438D01*
D11*
X11507319Y-6878876D02*
X11507319Y-6678876D01*
X11554938Y-6678876D01*
X11583509Y-6688400D01*
X11602557Y-6707448D01*
X11612081Y-6726495D01*
X11621605Y-6764590D01*
X11621605Y-6793162D01*
X11612081Y-6831257D01*
X11602557Y-6850305D01*
X11583509Y-6869352D01*
X11554938Y-6878876D01*
X11507319Y-6878876D01*
X11707319Y-6878876D02*
X11707319Y-6745543D01*
X11707319Y-6783638D02*
X11716843Y-6764590D01*
X11726367Y-6755067D01*
X11745414Y-6745543D01*
X11764462Y-6745543D01*
X11831128Y-6878876D02*
X11831128Y-6745543D01*
X11831128Y-6678876D02*
X11821605Y-6688400D01*
X11831128Y-6697924D01*
X11840652Y-6688400D01*
X11831128Y-6678876D01*
X11831128Y-6697924D01*
X11954938Y-6878876D02*
X11935890Y-6869352D01*
X11926367Y-6850305D01*
X11926367Y-6678876D01*
X12059700Y-6878876D02*
X12040652Y-6869352D01*
X12031128Y-6850305D01*
X12031128Y-6678876D01*
X12288271Y-6878876D02*
X12288271Y-6678876D01*
X12354938Y-6821733D01*
X12421605Y-6678876D01*
X12421605Y-6878876D01*
X12602557Y-6878876D02*
X12602557Y-6774114D01*
X12593033Y-6755067D01*
X12573986Y-6745543D01*
X12535890Y-6745543D01*
X12516843Y-6755067D01*
X12602557Y-6869352D02*
X12583509Y-6878876D01*
X12535890Y-6878876D01*
X12516843Y-6869352D01*
X12507319Y-6850305D01*
X12507319Y-6831257D01*
X12516843Y-6812209D01*
X12535890Y-6802686D01*
X12583509Y-6802686D01*
X12602557Y-6793162D01*
X12697795Y-6745543D02*
X12697795Y-6945543D01*
X12697795Y-6755067D02*
X12716843Y-6745543D01*
X12754938Y-6745543D01*
X12773986Y-6755067D01*
X12783509Y-6764590D01*
X12793033Y-6783638D01*
X12793033Y-6840781D01*
X12783509Y-6859828D01*
X12773986Y-6869352D01*
X12754938Y-6878876D01*
X12716843Y-6878876D01*
X12697795Y-6869352D01*
X12878748Y-6859828D02*
X12888271Y-6869352D01*
X12878748Y-6878876D01*
X12869224Y-6869352D01*
X12878748Y-6859828D01*
X12878748Y-6878876D01*
X12878748Y-6755067D02*
X12888271Y-6764590D01*
X12878748Y-6774114D01*
X12869224Y-6764590D01*
X12878748Y-6755067D01*
X12878748Y-6774114D01*
D12*
X11209700Y-7188400D02*
X11249700Y-7228400D01*
X11249700Y-7188400D02*
X11209700Y-7228400D01*
D11*
X11545414Y-7098876D02*
X11564462Y-7098876D01*
X11583509Y-7108400D01*
X11593033Y-7117924D01*
X11602557Y-7136971D01*
X11612081Y-7175067D01*
X11612081Y-7222686D01*
X11602557Y-7260781D01*
X11593033Y-7279828D01*
X11583509Y-7289352D01*
X11564462Y-7298876D01*
X11545414Y-7298876D01*
X11526367Y-7289352D01*
X11516843Y-7279828D01*
X11507319Y-7260781D01*
X11497795Y-7222686D01*
X11497795Y-7175067D01*
X11507319Y-7136971D01*
X11516843Y-7117924D01*
X11526367Y-7108400D01*
X11545414Y-7098876D01*
X11697795Y-7279828D02*
X11707319Y-7289352D01*
X11697795Y-7298876D01*
X11688271Y-7289352D01*
X11697795Y-7279828D01*
X11697795Y-7298876D01*
X11878748Y-7165543D02*
X11878748Y-7298876D01*
X11831128Y-7089352D02*
X11783509Y-7232209D01*
X11907319Y-7232209D01*
X12021605Y-7098876D02*
X12040652Y-7098876D01*
X12059700Y-7108400D01*
X12069224Y-7117924D01*
X12078748Y-7136971D01*
X12088271Y-7175067D01*
X12088271Y-7222686D01*
X12078748Y-7260781D01*
X12069224Y-7279828D01*
X12059700Y-7289352D01*
X12040652Y-7298876D01*
X12021605Y-7298876D01*
X12002557Y-7289352D01*
X11993033Y-7279828D01*
X11983509Y-7260781D01*
X11973986Y-7222686D01*
X11973986Y-7175067D01*
X11983509Y-7136971D01*
X11993033Y-7117924D01*
X12002557Y-7108400D01*
X12021605Y-7098876D01*
X12212081Y-7098876D02*
X12231128Y-7098876D01*
X12250176Y-7108400D01*
X12259700Y-7117924D01*
X12269224Y-7136971D01*
X12278748Y-7175067D01*
X12278748Y-7222686D01*
X12269224Y-7260781D01*
X12259700Y-7279828D01*
X12250176Y-7289352D01*
X12231128Y-7298876D01*
X12212081Y-7298876D01*
X12193033Y-7289352D01*
X12183509Y-7279828D01*
X12173986Y-7260781D01*
X12164462Y-7222686D01*
X12164462Y-7175067D01*
X12173986Y-7136971D01*
X12183509Y-7117924D01*
X12193033Y-7108400D01*
X12212081Y-7098876D01*
X12364462Y-7298876D02*
X12364462Y-7165543D01*
X12364462Y-7184590D02*
X12373986Y-7175067D01*
X12393033Y-7165543D01*
X12421605Y-7165543D01*
X12440652Y-7175067D01*
X12450176Y-7194114D01*
X12450176Y-7298876D01*
X12450176Y-7194114D02*
X12459700Y-7175067D01*
X12478748Y-7165543D01*
X12507319Y-7165543D01*
X12526367Y-7175067D01*
X12535890Y-7194114D01*
X12535890Y-7298876D01*
X12631128Y-7298876D02*
X12631128Y-7165543D01*
X12631128Y-7184590D02*
X12640652Y-7175067D01*
X12659700Y-7165543D01*
X12688271Y-7165543D01*
X12707319Y-7175067D01*
X12716843Y-7194114D01*
X12716843Y-7298876D01*
X12716843Y-7194114D02*
X12726367Y-7175067D01*
X12745414Y-7165543D01*
X12773986Y-7165543D01*
X12793033Y-7175067D01*
X12802557Y-7194114D01*
X12802557Y-7298876D01*
X13193033Y-7089352D02*
X13021605Y-7346495D01*
X13450176Y-7098876D02*
X13469224Y-7098876D01*
X13488271Y-7108400D01*
X13497795Y-7117924D01*
X13507319Y-7136971D01*
X13516843Y-7175067D01*
X13516843Y-7222686D01*
X13507319Y-7260781D01*
X13497795Y-7279828D01*
X13488271Y-7289352D01*
X13469224Y-7298876D01*
X13450176Y-7298876D01*
X13431128Y-7289352D01*
X13421605Y-7279828D01*
X13412081Y-7260781D01*
X13402557Y-7222686D01*
X13402557Y-7175067D01*
X13412081Y-7136971D01*
X13421605Y-7117924D01*
X13431128Y-7108400D01*
X13450176Y-7098876D01*
X13602557Y-7279828D02*
X13612081Y-7289352D01*
X13602557Y-7298876D01*
X13593033Y-7289352D01*
X13602557Y-7279828D01*
X13602557Y-7298876D01*
X13735890Y-7098876D02*
X13754938Y-7098876D01*
X13773986Y-7108400D01*
X13783509Y-7117924D01*
X13793033Y-7136971D01*
X13802557Y-7175067D01*
X13802557Y-7222686D01*
X13793033Y-7260781D01*
X13783509Y-7279828D01*
X13773986Y-7289352D01*
X13754938Y-7298876D01*
X13735890Y-7298876D01*
X13716843Y-7289352D01*
X13707319Y-7279828D01*
X13697795Y-7260781D01*
X13688271Y-7222686D01*
X13688271Y-7175067D01*
X13697795Y-7136971D01*
X13707319Y-7117924D01*
X13716843Y-7108400D01*
X13735890Y-7098876D01*
X13993033Y-7298876D02*
X13878748Y-7298876D01*
X13935890Y-7298876D02*
X13935890Y-7098876D01*
X13916843Y-7127448D01*
X13897795Y-7146495D01*
X13878748Y-7156019D01*
X14173986Y-7098876D02*
X14078748Y-7098876D01*
X14069224Y-7194114D01*
X14078748Y-7184590D01*
X14097795Y-7175067D01*
X14145414Y-7175067D01*
X14164462Y-7184590D01*
X14173986Y-7194114D01*
X14183509Y-7213162D01*
X14183509Y-7260781D01*
X14173986Y-7279828D01*
X14164462Y-7289352D01*
X14145414Y-7298876D01*
X14097795Y-7298876D01*
X14078748Y-7289352D01*
X14069224Y-7279828D01*
X14250176Y-7098876D02*
X14383509Y-7098876D01*
X14297795Y-7298876D01*
X14450176Y-7098876D02*
X14450176Y-7136971D01*
X14526367Y-7098876D02*
X14526367Y-7136971D01*
X14821605Y-7375067D02*
X14812081Y-7365543D01*
X14793033Y-7336971D01*
X14783509Y-7317924D01*
X14773986Y-7289352D01*
X14764462Y-7241733D01*
X14764462Y-7203638D01*
X14773986Y-7156019D01*
X14783509Y-7127448D01*
X14793033Y-7108400D01*
X14812081Y-7079828D01*
X14821605Y-7070305D01*
X15002557Y-7298876D02*
X14888271Y-7298876D01*
X14945414Y-7298876D02*
X14945414Y-7098876D01*
X14926367Y-7127448D01*
X14907319Y-7146495D01*
X14888271Y-7156019D01*
X15069224Y-7098876D02*
X15202557Y-7098876D01*
X15116843Y-7298876D01*
X15431128Y-7298876D02*
X15431128Y-7098876D01*
X15516843Y-7298876D02*
X15516843Y-7194114D01*
X15507319Y-7175067D01*
X15488271Y-7165543D01*
X15459700Y-7165543D01*
X15440652Y-7175067D01*
X15431128Y-7184590D01*
X15640652Y-7298876D02*
X15621605Y-7289352D01*
X15612081Y-7279828D01*
X15602557Y-7260781D01*
X15602557Y-7203638D01*
X15612081Y-7184590D01*
X15621605Y-7175067D01*
X15640652Y-7165543D01*
X15669224Y-7165543D01*
X15688271Y-7175067D01*
X15697795Y-7184590D01*
X15707319Y-7203638D01*
X15707319Y-7260781D01*
X15697795Y-7279828D01*
X15688271Y-7289352D01*
X15669224Y-7298876D01*
X15640652Y-7298876D01*
X15821605Y-7298876D02*
X15802557Y-7289352D01*
X15793033Y-7270305D01*
X15793033Y-7098876D01*
X15973986Y-7289352D02*
X15954938Y-7298876D01*
X15916843Y-7298876D01*
X15897795Y-7289352D01*
X15888271Y-7270305D01*
X15888271Y-7194114D01*
X15897795Y-7175067D01*
X15916843Y-7165543D01*
X15954938Y-7165543D01*
X15973986Y-7175067D01*
X15983509Y-7194114D01*
X15983509Y-7213162D01*
X15888271Y-7232209D01*
X16059700Y-7289352D02*
X16078748Y-7298876D01*
X16116843Y-7298876D01*
X16135890Y-7289352D01*
X16145414Y-7270305D01*
X16145414Y-7260781D01*
X16135890Y-7241733D01*
X16116843Y-7232209D01*
X16088271Y-7232209D01*
X16069224Y-7222686D01*
X16059700Y-7203638D01*
X16059700Y-7194114D01*
X16069224Y-7175067D01*
X16088271Y-7165543D01*
X16116843Y-7165543D01*
X16135890Y-7175067D01*
X16212081Y-7375067D02*
X16221605Y-7365543D01*
X16240652Y-7336971D01*
X16250176Y-7317924D01*
X16259700Y-7289352D01*
X16269224Y-7241733D01*
X16269224Y-7203638D01*
X16259700Y-7156019D01*
X16250176Y-7127448D01*
X16240652Y-7108400D01*
X16221605Y-7079828D01*
X16212081Y-7070305D01*
D13*
X11249700Y-7472400D02*
G75*
G03*
X11249700Y-7472400I-45000J0D01*
G01*
D11*
X11545414Y-7362876D02*
X11564462Y-7362876D01*
X11583509Y-7372400D01*
X11593033Y-7381924D01*
X11602557Y-7400971D01*
X11612081Y-7439067D01*
X11612081Y-7486686D01*
X11602557Y-7524781D01*
X11593033Y-7543828D01*
X11583509Y-7553352D01*
X11564462Y-7562876D01*
X11545414Y-7562876D01*
X11526367Y-7553352D01*
X11516843Y-7543828D01*
X11507319Y-7524781D01*
X11497795Y-7486686D01*
X11497795Y-7439067D01*
X11507319Y-7400971D01*
X11516843Y-7381924D01*
X11526367Y-7372400D01*
X11545414Y-7362876D01*
X11697795Y-7543828D02*
X11707319Y-7553352D01*
X11697795Y-7562876D01*
X11688271Y-7553352D01*
X11697795Y-7543828D01*
X11697795Y-7562876D01*
X11802557Y-7562876D02*
X11840652Y-7562876D01*
X11859700Y-7553352D01*
X11869224Y-7543828D01*
X11888271Y-7515257D01*
X11897795Y-7477162D01*
X11897795Y-7400971D01*
X11888271Y-7381924D01*
X11878748Y-7372400D01*
X11859700Y-7362876D01*
X11821605Y-7362876D01*
X11802557Y-7372400D01*
X11793033Y-7381924D01*
X11783509Y-7400971D01*
X11783509Y-7448590D01*
X11793033Y-7467638D01*
X11802557Y-7477162D01*
X11821605Y-7486686D01*
X11859700Y-7486686D01*
X11878748Y-7477162D01*
X11888271Y-7467638D01*
X11897795Y-7448590D01*
X12021605Y-7362876D02*
X12040652Y-7362876D01*
X12059700Y-7372400D01*
X12069224Y-7381924D01*
X12078748Y-7400971D01*
X12088271Y-7439067D01*
X12088271Y-7486686D01*
X12078748Y-7524781D01*
X12069224Y-7543828D01*
X12059700Y-7553352D01*
X12040652Y-7562876D01*
X12021605Y-7562876D01*
X12002557Y-7553352D01*
X11993033Y-7543828D01*
X11983509Y-7524781D01*
X11973986Y-7486686D01*
X11973986Y-7439067D01*
X11983509Y-7400971D01*
X11993033Y-7381924D01*
X12002557Y-7372400D01*
X12021605Y-7362876D01*
X12212081Y-7362876D02*
X12231128Y-7362876D01*
X12250176Y-7372400D01*
X12259700Y-7381924D01*
X12269224Y-7400971D01*
X12278748Y-7439067D01*
X12278748Y-7486686D01*
X12269224Y-7524781D01*
X12259700Y-7543828D01*
X12250176Y-7553352D01*
X12231128Y-7562876D01*
X12212081Y-7562876D01*
X12193033Y-7553352D01*
X12183509Y-7543828D01*
X12173986Y-7524781D01*
X12164462Y-7486686D01*
X12164462Y-7439067D01*
X12173986Y-7400971D01*
X12183509Y-7381924D01*
X12193033Y-7372400D01*
X12212081Y-7362876D01*
X12364462Y-7562876D02*
X12364462Y-7429543D01*
X12364462Y-7448590D02*
X12373986Y-7439067D01*
X12393033Y-7429543D01*
X12421605Y-7429543D01*
X12440652Y-7439067D01*
X12450176Y-7458114D01*
X12450176Y-7562876D01*
X12450176Y-7458114D02*
X12459700Y-7439067D01*
X12478748Y-7429543D01*
X12507319Y-7429543D01*
X12526367Y-7439067D01*
X12535890Y-7458114D01*
X12535890Y-7562876D01*
X12631128Y-7562876D02*
X12631128Y-7429543D01*
X12631128Y-7448590D02*
X12640652Y-7439067D01*
X12659700Y-7429543D01*
X12688271Y-7429543D01*
X12707319Y-7439067D01*
X12716843Y-7458114D01*
X12716843Y-7562876D01*
X12716843Y-7458114D02*
X12726367Y-7439067D01*
X12745414Y-7429543D01*
X12773986Y-7429543D01*
X12793033Y-7439067D01*
X12802557Y-7458114D01*
X12802557Y-7562876D01*
X13193033Y-7353352D02*
X13021605Y-7610495D01*
X13450176Y-7362876D02*
X13469224Y-7362876D01*
X13488271Y-7372400D01*
X13497795Y-7381924D01*
X13507319Y-7400971D01*
X13516843Y-7439067D01*
X13516843Y-7486686D01*
X13507319Y-7524781D01*
X13497795Y-7543828D01*
X13488271Y-7553352D01*
X13469224Y-7562876D01*
X13450176Y-7562876D01*
X13431128Y-7553352D01*
X13421605Y-7543828D01*
X13412081Y-7524781D01*
X13402557Y-7486686D01*
X13402557Y-7439067D01*
X13412081Y-7400971D01*
X13421605Y-7381924D01*
X13431128Y-7372400D01*
X13450176Y-7362876D01*
X13602557Y-7543828D02*
X13612081Y-7553352D01*
X13602557Y-7562876D01*
X13593033Y-7553352D01*
X13602557Y-7543828D01*
X13602557Y-7562876D01*
X13735890Y-7362876D02*
X13754938Y-7362876D01*
X13773986Y-7372400D01*
X13783509Y-7381924D01*
X13793033Y-7400971D01*
X13802557Y-7439067D01*
X13802557Y-7486686D01*
X13793033Y-7524781D01*
X13783509Y-7543828D01*
X13773986Y-7553352D01*
X13754938Y-7562876D01*
X13735890Y-7562876D01*
X13716843Y-7553352D01*
X13707319Y-7543828D01*
X13697795Y-7524781D01*
X13688271Y-7486686D01*
X13688271Y-7439067D01*
X13697795Y-7400971D01*
X13707319Y-7381924D01*
X13716843Y-7372400D01*
X13735890Y-7362876D01*
X13869224Y-7362876D02*
X13993033Y-7362876D01*
X13926367Y-7439067D01*
X13954938Y-7439067D01*
X13973986Y-7448590D01*
X13983509Y-7458114D01*
X13993033Y-7477162D01*
X13993033Y-7524781D01*
X13983509Y-7543828D01*
X13973986Y-7553352D01*
X13954938Y-7562876D01*
X13897795Y-7562876D01*
X13878748Y-7553352D01*
X13869224Y-7543828D01*
X14173986Y-7362876D02*
X14078748Y-7362876D01*
X14069224Y-7458114D01*
X14078748Y-7448590D01*
X14097795Y-7439067D01*
X14145414Y-7439067D01*
X14164462Y-7448590D01*
X14173986Y-7458114D01*
X14183509Y-7477162D01*
X14183509Y-7524781D01*
X14173986Y-7543828D01*
X14164462Y-7553352D01*
X14145414Y-7562876D01*
X14097795Y-7562876D01*
X14078748Y-7553352D01*
X14069224Y-7543828D01*
X14354938Y-7429543D02*
X14354938Y-7562876D01*
X14307319Y-7353352D02*
X14259700Y-7496209D01*
X14383509Y-7496209D01*
X14450176Y-7362876D02*
X14450176Y-7400971D01*
X14526367Y-7362876D02*
X14526367Y-7400971D01*
X14821605Y-7639067D02*
X14812081Y-7629543D01*
X14793033Y-7600971D01*
X14783509Y-7581924D01*
X14773986Y-7553352D01*
X14764462Y-7505733D01*
X14764462Y-7467638D01*
X14773986Y-7420019D01*
X14783509Y-7391448D01*
X14793033Y-7372400D01*
X14812081Y-7343828D01*
X14821605Y-7334305D01*
X14888271Y-7381924D02*
X14897795Y-7372400D01*
X14916843Y-7362876D01*
X14964462Y-7362876D01*
X14983509Y-7372400D01*
X14993033Y-7381924D01*
X15002557Y-7400971D01*
X15002557Y-7420019D01*
X14993033Y-7448590D01*
X14878748Y-7562876D01*
X15002557Y-7562876D01*
X15240652Y-7562876D02*
X15240652Y-7362876D01*
X15326367Y-7562876D02*
X15326367Y-7458114D01*
X15316843Y-7439067D01*
X15297795Y-7429543D01*
X15269224Y-7429543D01*
X15250176Y-7439067D01*
X15240652Y-7448590D01*
X15450176Y-7562876D02*
X15431128Y-7553352D01*
X15421605Y-7543828D01*
X15412081Y-7524781D01*
X15412081Y-7467638D01*
X15421605Y-7448590D01*
X15431128Y-7439067D01*
X15450176Y-7429543D01*
X15478748Y-7429543D01*
X15497795Y-7439067D01*
X15507319Y-7448590D01*
X15516843Y-7467638D01*
X15516843Y-7524781D01*
X15507319Y-7543828D01*
X15497795Y-7553352D01*
X15478748Y-7562876D01*
X15450176Y-7562876D01*
X15631128Y-7562876D02*
X15612081Y-7553352D01*
X15602557Y-7534305D01*
X15602557Y-7362876D01*
X15783509Y-7553352D02*
X15764462Y-7562876D01*
X15726367Y-7562876D01*
X15707319Y-7553352D01*
X15697795Y-7534305D01*
X15697795Y-7458114D01*
X15707319Y-7439067D01*
X15726367Y-7429543D01*
X15764462Y-7429543D01*
X15783509Y-7439067D01*
X15793033Y-7458114D01*
X15793033Y-7477162D01*
X15697795Y-7496209D01*
X15869224Y-7553352D02*
X15888271Y-7562876D01*
X15926367Y-7562876D01*
X15945414Y-7553352D01*
X15954938Y-7534305D01*
X15954938Y-7524781D01*
X15945414Y-7505733D01*
X15926367Y-7496209D01*
X15897795Y-7496209D01*
X15878748Y-7486686D01*
X15869224Y-7467638D01*
X15869224Y-7458114D01*
X15878748Y-7439067D01*
X15897795Y-7429543D01*
X15926367Y-7429543D01*
X15945414Y-7439067D01*
X16021605Y-7639067D02*
X16031128Y-7629543D01*
X16050176Y-7600971D01*
X16059700Y-7581924D01*
X16069224Y-7553352D01*
X16078748Y-7505733D01*
X16078748Y-7467638D01*
X16069224Y-7420019D01*
X16059700Y-7391448D01*
X16050176Y-7372400D01*
X16031128Y-7343828D01*
X16021605Y-7334305D01*
D14*
X11199700Y-7686400D02*
X11199700Y-7786400D01*
X11149700Y-7736400D02*
X11249700Y-7736400D01*
D11*
X11612081Y-7826876D02*
X11497795Y-7826876D01*
X11554938Y-7826876D02*
X11554938Y-7626876D01*
X11535890Y-7655448D01*
X11516843Y-7674495D01*
X11497795Y-7684019D01*
X11697795Y-7807828D02*
X11707319Y-7817352D01*
X11697795Y-7826876D01*
X11688271Y-7817352D01*
X11697795Y-7807828D01*
X11697795Y-7826876D01*
X11831128Y-7626876D02*
X11850176Y-7626876D01*
X11869224Y-7636400D01*
X11878748Y-7645924D01*
X11888271Y-7664971D01*
X11897795Y-7703067D01*
X11897795Y-7750686D01*
X11888271Y-7788781D01*
X11878748Y-7807828D01*
X11869224Y-7817352D01*
X11850176Y-7826876D01*
X11831128Y-7826876D01*
X11812081Y-7817352D01*
X11802557Y-7807828D01*
X11793033Y-7788781D01*
X11783509Y-7750686D01*
X11783509Y-7703067D01*
X11793033Y-7664971D01*
X11802557Y-7645924D01*
X11812081Y-7636400D01*
X11831128Y-7626876D01*
X12021605Y-7626876D02*
X12040652Y-7626876D01*
X12059700Y-7636400D01*
X12069224Y-7645924D01*
X12078748Y-7664971D01*
X12088271Y-7703067D01*
X12088271Y-7750686D01*
X12078748Y-7788781D01*
X12069224Y-7807828D01*
X12059700Y-7817352D01*
X12040652Y-7826876D01*
X12021605Y-7826876D01*
X12002557Y-7817352D01*
X11993033Y-7807828D01*
X11983509Y-7788781D01*
X11973986Y-7750686D01*
X11973986Y-7703067D01*
X11983509Y-7664971D01*
X11993033Y-7645924D01*
X12002557Y-7636400D01*
X12021605Y-7626876D01*
X12212081Y-7626876D02*
X12231128Y-7626876D01*
X12250176Y-7636400D01*
X12259700Y-7645924D01*
X12269224Y-7664971D01*
X12278748Y-7703067D01*
X12278748Y-7750686D01*
X12269224Y-7788781D01*
X12259700Y-7807828D01*
X12250176Y-7817352D01*
X12231128Y-7826876D01*
X12212081Y-7826876D01*
X12193033Y-7817352D01*
X12183509Y-7807828D01*
X12173986Y-7788781D01*
X12164462Y-7750686D01*
X12164462Y-7703067D01*
X12173986Y-7664971D01*
X12183509Y-7645924D01*
X12193033Y-7636400D01*
X12212081Y-7626876D01*
X12364462Y-7826876D02*
X12364462Y-7693543D01*
X12364462Y-7712590D02*
X12373986Y-7703067D01*
X12393033Y-7693543D01*
X12421605Y-7693543D01*
X12440652Y-7703067D01*
X12450176Y-7722114D01*
X12450176Y-7826876D01*
X12450176Y-7722114D02*
X12459700Y-7703067D01*
X12478748Y-7693543D01*
X12507319Y-7693543D01*
X12526367Y-7703067D01*
X12535890Y-7722114D01*
X12535890Y-7826876D01*
X12631128Y-7826876D02*
X12631128Y-7693543D01*
X12631128Y-7712590D02*
X12640652Y-7703067D01*
X12659700Y-7693543D01*
X12688271Y-7693543D01*
X12707319Y-7703067D01*
X12716843Y-7722114D01*
X12716843Y-7826876D01*
X12716843Y-7722114D02*
X12726367Y-7703067D01*
X12745414Y-7693543D01*
X12773986Y-7693543D01*
X12793033Y-7703067D01*
X12802557Y-7722114D01*
X12802557Y-7826876D01*
X13193033Y-7617352D02*
X13021605Y-7874495D01*
X13450176Y-7626876D02*
X13469224Y-7626876D01*
X13488271Y-7636400D01*
X13497795Y-7645924D01*
X13507319Y-7664971D01*
X13516843Y-7703067D01*
X13516843Y-7750686D01*
X13507319Y-7788781D01*
X13497795Y-7807828D01*
X13488271Y-7817352D01*
X13469224Y-7826876D01*
X13450176Y-7826876D01*
X13431128Y-7817352D01*
X13421605Y-7807828D01*
X13412081Y-7788781D01*
X13402557Y-7750686D01*
X13402557Y-7703067D01*
X13412081Y-7664971D01*
X13421605Y-7645924D01*
X13431128Y-7636400D01*
X13450176Y-7626876D01*
X13602557Y-7807828D02*
X13612081Y-7817352D01*
X13602557Y-7826876D01*
X13593033Y-7817352D01*
X13602557Y-7807828D01*
X13602557Y-7826876D01*
X13735890Y-7626876D02*
X13754938Y-7626876D01*
X13773986Y-7636400D01*
X13783509Y-7645924D01*
X13793033Y-7664971D01*
X13802557Y-7703067D01*
X13802557Y-7750686D01*
X13793033Y-7788781D01*
X13783509Y-7807828D01*
X13773986Y-7817352D01*
X13754938Y-7826876D01*
X13735890Y-7826876D01*
X13716843Y-7817352D01*
X13707319Y-7807828D01*
X13697795Y-7788781D01*
X13688271Y-7750686D01*
X13688271Y-7703067D01*
X13697795Y-7664971D01*
X13707319Y-7645924D01*
X13716843Y-7636400D01*
X13735890Y-7626876D01*
X13869224Y-7626876D02*
X13993033Y-7626876D01*
X13926367Y-7703067D01*
X13954938Y-7703067D01*
X13973986Y-7712590D01*
X13983509Y-7722114D01*
X13993033Y-7741162D01*
X13993033Y-7788781D01*
X13983509Y-7807828D01*
X13973986Y-7817352D01*
X13954938Y-7826876D01*
X13897795Y-7826876D01*
X13878748Y-7817352D01*
X13869224Y-7807828D01*
X14088271Y-7826876D02*
X14126367Y-7826876D01*
X14145414Y-7817352D01*
X14154938Y-7807828D01*
X14173986Y-7779257D01*
X14183509Y-7741162D01*
X14183509Y-7664971D01*
X14173986Y-7645924D01*
X14164462Y-7636400D01*
X14145414Y-7626876D01*
X14107319Y-7626876D01*
X14088271Y-7636400D01*
X14078748Y-7645924D01*
X14069224Y-7664971D01*
X14069224Y-7712590D01*
X14078748Y-7731638D01*
X14088271Y-7741162D01*
X14107319Y-7750686D01*
X14145414Y-7750686D01*
X14164462Y-7741162D01*
X14173986Y-7731638D01*
X14183509Y-7712590D01*
X14354938Y-7693543D02*
X14354938Y-7826876D01*
X14307319Y-7617352D02*
X14259700Y-7760209D01*
X14383509Y-7760209D01*
X14450176Y-7626876D02*
X14450176Y-7664971D01*
X14526367Y-7626876D02*
X14526367Y-7664971D01*
X14821605Y-7903067D02*
X14812081Y-7893543D01*
X14793033Y-7864971D01*
X14783509Y-7845924D01*
X14773986Y-7817352D01*
X14764462Y-7769733D01*
X14764462Y-7731638D01*
X14773986Y-7684019D01*
X14783509Y-7655448D01*
X14793033Y-7636400D01*
X14812081Y-7607828D01*
X14821605Y-7598305D01*
X15002557Y-7826876D02*
X14888271Y-7826876D01*
X14945414Y-7826876D02*
X14945414Y-7626876D01*
X14926367Y-7655448D01*
X14907319Y-7674495D01*
X14888271Y-7684019D01*
X15173986Y-7693543D02*
X15173986Y-7826876D01*
X15126367Y-7617352D02*
X15078748Y-7760209D01*
X15202557Y-7760209D01*
X15431128Y-7826876D02*
X15431128Y-7626876D01*
X15516843Y-7826876D02*
X15516843Y-7722114D01*
X15507319Y-7703067D01*
X15488271Y-7693543D01*
X15459700Y-7693543D01*
X15440652Y-7703067D01*
X15431128Y-7712590D01*
X15640652Y-7826876D02*
X15621605Y-7817352D01*
X15612081Y-7807828D01*
X15602557Y-7788781D01*
X15602557Y-7731638D01*
X15612081Y-7712590D01*
X15621605Y-7703067D01*
X15640652Y-7693543D01*
X15669224Y-7693543D01*
X15688271Y-7703067D01*
X15697795Y-7712590D01*
X15707319Y-7731638D01*
X15707319Y-7788781D01*
X15697795Y-7807828D01*
X15688271Y-7817352D01*
X15669224Y-7826876D01*
X15640652Y-7826876D01*
X15821605Y-7826876D02*
X15802557Y-7817352D01*
X15793033Y-7798305D01*
X15793033Y-7626876D01*
X15973986Y-7817352D02*
X15954938Y-7826876D01*
X15916843Y-7826876D01*
X15897795Y-7817352D01*
X15888271Y-7798305D01*
X15888271Y-7722114D01*
X15897795Y-7703067D01*
X15916843Y-7693543D01*
X15954938Y-7693543D01*
X15973986Y-7703067D01*
X15983509Y-7722114D01*
X15983509Y-7741162D01*
X15888271Y-7760209D01*
X16059700Y-7817352D02*
X16078748Y-7826876D01*
X16116843Y-7826876D01*
X16135890Y-7817352D01*
X16145414Y-7798305D01*
X16145414Y-7788781D01*
X16135890Y-7769733D01*
X16116843Y-7760209D01*
X16088271Y-7760209D01*
X16069224Y-7750686D01*
X16059700Y-7731638D01*
X16059700Y-7722114D01*
X16069224Y-7703067D01*
X16088271Y-7693543D01*
X16116843Y-7693543D01*
X16135890Y-7703067D01*
X16212081Y-7903067D02*
X16221605Y-7893543D01*
X16240652Y-7864971D01*
X16250176Y-7845924D01*
X16259700Y-7817352D01*
X16269224Y-7769733D01*
X16269224Y-7731638D01*
X16259700Y-7684019D01*
X16250176Y-7655448D01*
X16240652Y-7636400D01*
X16221605Y-7607828D01*
X16212081Y-7598305D01*
X11220411Y-8071111D02*
X11220411Y-7929689D01*
X11078989Y-7929689D01*
X11078989Y-8071111D01*
X11220411Y-8071111D01*
X11488271Y-7890876D02*
X11612081Y-7890876D01*
X11545414Y-7967067D01*
X11573986Y-7967067D01*
X11593033Y-7976590D01*
X11602557Y-7986114D01*
X11612081Y-8005162D01*
X11612081Y-8052781D01*
X11602557Y-8071828D01*
X11593033Y-8081352D01*
X11573986Y-8090876D01*
X11516843Y-8090876D01*
X11497795Y-8081352D01*
X11488271Y-8071828D01*
X11697795Y-8071828D02*
X11707319Y-8081352D01*
X11697795Y-8090876D01*
X11688271Y-8081352D01*
X11697795Y-8071828D01*
X11697795Y-8090876D01*
X11783509Y-7909924D02*
X11793033Y-7900400D01*
X11812081Y-7890876D01*
X11859700Y-7890876D01*
X11878748Y-7900400D01*
X11888271Y-7909924D01*
X11897795Y-7928971D01*
X11897795Y-7948019D01*
X11888271Y-7976590D01*
X11773986Y-8090876D01*
X11897795Y-8090876D01*
X12021605Y-7890876D02*
X12040652Y-7890876D01*
X12059700Y-7900400D01*
X12069224Y-7909924D01*
X12078748Y-7928971D01*
X12088271Y-7967067D01*
X12088271Y-8014686D01*
X12078748Y-8052781D01*
X12069224Y-8071828D01*
X12059700Y-8081352D01*
X12040652Y-8090876D01*
X12021605Y-8090876D01*
X12002557Y-8081352D01*
X11993033Y-8071828D01*
X11983509Y-8052781D01*
X11973986Y-8014686D01*
X11973986Y-7967067D01*
X11983509Y-7928971D01*
X11993033Y-7909924D01*
X12002557Y-7900400D01*
X12021605Y-7890876D01*
X12212081Y-7890876D02*
X12231128Y-7890876D01*
X12250176Y-7900400D01*
X12259700Y-7909924D01*
X12269224Y-7928971D01*
X12278748Y-7967067D01*
X12278748Y-8014686D01*
X12269224Y-8052781D01*
X12259700Y-8071828D01*
X12250176Y-8081352D01*
X12231128Y-8090876D01*
X12212081Y-8090876D01*
X12193033Y-8081352D01*
X12183509Y-8071828D01*
X12173986Y-8052781D01*
X12164462Y-8014686D01*
X12164462Y-7967067D01*
X12173986Y-7928971D01*
X12183509Y-7909924D01*
X12193033Y-7900400D01*
X12212081Y-7890876D01*
X12364462Y-8090876D02*
X12364462Y-7957543D01*
X12364462Y-7976590D02*
X12373986Y-7967067D01*
X12393033Y-7957543D01*
X12421605Y-7957543D01*
X12440652Y-7967067D01*
X12450176Y-7986114D01*
X12450176Y-8090876D01*
X12450176Y-7986114D02*
X12459700Y-7967067D01*
X12478748Y-7957543D01*
X12507319Y-7957543D01*
X12526367Y-7967067D01*
X12535890Y-7986114D01*
X12535890Y-8090876D01*
X12631128Y-8090876D02*
X12631128Y-7957543D01*
X12631128Y-7976590D02*
X12640652Y-7967067D01*
X12659700Y-7957543D01*
X12688271Y-7957543D01*
X12707319Y-7967067D01*
X12716843Y-7986114D01*
X12716843Y-8090876D01*
X12716843Y-7986114D02*
X12726367Y-7967067D01*
X12745414Y-7957543D01*
X12773986Y-7957543D01*
X12793033Y-7967067D01*
X12802557Y-7986114D01*
X12802557Y-8090876D01*
X13193033Y-7881352D02*
X13021605Y-8138495D01*
X13450176Y-7890876D02*
X13469224Y-7890876D01*
X13488271Y-7900400D01*
X13497795Y-7909924D01*
X13507319Y-7928971D01*
X13516843Y-7967067D01*
X13516843Y-8014686D01*
X13507319Y-8052781D01*
X13497795Y-8071828D01*
X13488271Y-8081352D01*
X13469224Y-8090876D01*
X13450176Y-8090876D01*
X13431128Y-8081352D01*
X13421605Y-8071828D01*
X13412081Y-8052781D01*
X13402557Y-8014686D01*
X13402557Y-7967067D01*
X13412081Y-7928971D01*
X13421605Y-7909924D01*
X13431128Y-7900400D01*
X13450176Y-7890876D01*
X13602557Y-8071828D02*
X13612081Y-8081352D01*
X13602557Y-8090876D01*
X13593033Y-8081352D01*
X13602557Y-8071828D01*
X13602557Y-8090876D01*
X13802557Y-8090876D02*
X13688271Y-8090876D01*
X13745414Y-8090876D02*
X13745414Y-7890876D01*
X13726367Y-7919448D01*
X13707319Y-7938495D01*
X13688271Y-7948019D01*
X13878748Y-7909924D02*
X13888271Y-7900400D01*
X13907319Y-7890876D01*
X13954938Y-7890876D01*
X13973986Y-7900400D01*
X13983509Y-7909924D01*
X13993033Y-7928971D01*
X13993033Y-7948019D01*
X13983509Y-7976590D01*
X13869224Y-8090876D01*
X13993033Y-8090876D01*
X14164462Y-7890876D02*
X14126367Y-7890876D01*
X14107319Y-7900400D01*
X14097795Y-7909924D01*
X14078748Y-7938495D01*
X14069224Y-7976590D01*
X14069224Y-8052781D01*
X14078748Y-8071828D01*
X14088271Y-8081352D01*
X14107319Y-8090876D01*
X14145414Y-8090876D01*
X14164462Y-8081352D01*
X14173986Y-8071828D01*
X14183509Y-8052781D01*
X14183509Y-8005162D01*
X14173986Y-7986114D01*
X14164462Y-7976590D01*
X14145414Y-7967067D01*
X14107319Y-7967067D01*
X14088271Y-7976590D01*
X14078748Y-7986114D01*
X14069224Y-8005162D01*
X14307319Y-7890876D02*
X14326367Y-7890876D01*
X14345414Y-7900400D01*
X14354938Y-7909924D01*
X14364462Y-7928971D01*
X14373986Y-7967067D01*
X14373986Y-8014686D01*
X14364462Y-8052781D01*
X14354938Y-8071828D01*
X14345414Y-8081352D01*
X14326367Y-8090876D01*
X14307319Y-8090876D01*
X14288271Y-8081352D01*
X14278748Y-8071828D01*
X14269224Y-8052781D01*
X14259700Y-8014686D01*
X14259700Y-7967067D01*
X14269224Y-7928971D01*
X14278748Y-7909924D01*
X14288271Y-7900400D01*
X14307319Y-7890876D01*
X14450176Y-7890876D02*
X14450176Y-7928971D01*
X14526367Y-7890876D02*
X14526367Y-7928971D01*
X14821605Y-8167067D02*
X14812081Y-8157543D01*
X14793033Y-8128971D01*
X14783509Y-8109924D01*
X14773986Y-8081352D01*
X14764462Y-8033733D01*
X14764462Y-7995638D01*
X14773986Y-7948019D01*
X14783509Y-7919448D01*
X14793033Y-7900400D01*
X14812081Y-7871828D01*
X14821605Y-7862305D01*
X15002557Y-8090876D02*
X14888271Y-8090876D01*
X14945414Y-8090876D02*
X14945414Y-7890876D01*
X14926367Y-7919448D01*
X14907319Y-7938495D01*
X14888271Y-7948019D01*
X15240652Y-8090876D02*
X15240652Y-7890876D01*
X15326367Y-8090876D02*
X15326367Y-7986114D01*
X15316843Y-7967067D01*
X15297795Y-7957543D01*
X15269224Y-7957543D01*
X15250176Y-7967067D01*
X15240652Y-7976590D01*
X15450176Y-8090876D02*
X15431128Y-8081352D01*
X15421605Y-8071828D01*
X15412081Y-8052781D01*
X15412081Y-7995638D01*
X15421605Y-7976590D01*
X15431128Y-7967067D01*
X15450176Y-7957543D01*
X15478748Y-7957543D01*
X15497795Y-7967067D01*
X15507319Y-7976590D01*
X15516843Y-7995638D01*
X15516843Y-8052781D01*
X15507319Y-8071828D01*
X15497795Y-8081352D01*
X15478748Y-8090876D01*
X15450176Y-8090876D01*
X15631128Y-8090876D02*
X15612081Y-8081352D01*
X15602557Y-8062305D01*
X15602557Y-7890876D01*
X15783509Y-8081352D02*
X15764462Y-8090876D01*
X15726367Y-8090876D01*
X15707319Y-8081352D01*
X15697795Y-8062305D01*
X15697795Y-7986114D01*
X15707319Y-7967067D01*
X15726367Y-7957543D01*
X15764462Y-7957543D01*
X15783509Y-7967067D01*
X15793033Y-7986114D01*
X15793033Y-8005162D01*
X15697795Y-8024209D01*
X15859700Y-8167067D02*
X15869224Y-8157543D01*
X15888271Y-8128971D01*
X15897795Y-8109924D01*
X15907319Y-8081352D01*
X15916843Y-8033733D01*
X15916843Y-7995638D01*
X15907319Y-7948019D01*
X15897795Y-7919448D01*
X15888271Y-7900400D01*
X15869224Y-7871828D01*
X15859700Y-7862305D01*
M02*
